<svg width="229" height="80" viewBox="0 0 229 80" fill="none" xmlns="http://www.w3.org/2000/svg">
<path fill-rule="evenodd" clip-rule="evenodd" d="M137.927 65.3487C126.325 73.9273 109.45 78.4979 94.8947 78.4979C74.5034 78.4979 56.2217 70.974 42.2994 58.4576C41.2446 57.4732 42.1587 56.1372 43.4947 56.9107C58.4717 65.6299 76.9644 70.8334 96.09 70.8334C108.958 70.8334 123.161 68.1613 136.24 62.6063C138.208 61.8328 139.826 63.9423 137.927 65.3487Z" fill="#FF9900"/>
<path fill-rule="evenodd" clip-rule="evenodd" d="M142.779 59.7941C141.302 57.8956 132.935 58.8801 129.208 59.3723C128.083 59.5129 127.872 58.5285 128.927 57.8253C135.607 53.1141 146.506 54.5204 147.771 56.0674C149.037 57.6143 147.42 68.5837 141.162 73.7872C140.177 74.5606 139.263 74.1387 139.685 73.084C141.091 69.5682 144.256 61.763 142.779 59.7941Z" fill="#FF9900"/>
<path fill-rule="evenodd" clip-rule="evenodd" d="M129.419 24.7777V20.2071C129.419 19.504 129.911 19.0821 130.544 19.0821L150.935 19.0821C151.568 19.0821 152.131 19.5743 152.131 20.2071V24.0746C152.131 24.7074 151.568 25.5512 150.584 26.9575L140.037 42.0053C143.974 41.9349 148.123 42.4975 151.639 44.4663C152.412 44.8882 152.623 45.5914 152.693 46.2243V51.0761C152.693 51.7792 151.99 52.5527 151.217 52.1308C144.959 48.826 136.591 48.4744 129.7 52.2012C128.997 52.5527 128.224 51.8496 128.224 51.1464V46.5055C128.224 45.8023 128.224 44.5367 128.997 43.4116L141.232 25.9028H130.615C129.982 25.9028 129.419 25.4106 129.419 24.7777V24.7777ZM55.0967 53.1153H48.909C48.3465 53.0449 47.8543 52.623 47.784 52.0605L47.784 20.2775C47.784 19.6446 48.3465 19.1524 48.9793 19.1524H54.7451C55.378 19.1524 55.7998 19.6446 55.8702 20.2071V24.3558H56.0108C57.4874 20.3478 60.3703 18.4492 64.1673 18.4492C68.0346 18.4492 70.4956 20.3478 72.1831 24.3558C73.6597 20.3478 77.1052 18.4492 80.7615 18.4492C83.3632 18.4492 86.1758 19.504 87.9336 21.9651C89.9024 24.6371 89.4805 28.5045 89.4805 31.95V52.0605C89.4805 52.6934 88.918 53.1856 88.2852 53.1856H82.1678C81.535 53.1153 81.0428 52.623 81.0428 52.0605V35.1846C81.0428 33.8485 81.1834 30.4733 80.9022 29.2076C80.41 27.0982 79.074 26.4653 77.2458 26.4653C75.7692 26.4653 74.1519 27.4497 73.5191 29.067C72.8863 30.6843 72.9566 33.3563 72.9566 35.1846V52.0605C72.9566 52.6934 72.3941 53.1856 71.7612 53.1856H65.5736C64.9407 53.1153 64.4485 52.623 64.4485 52.0605V35.1846C64.4485 31.6687 65.011 26.395 60.6515 26.395C56.2217 26.395 56.3624 31.4578 56.3624 35.1846L56.3624 52.0605C56.292 52.623 55.7998 53.1153 55.0967 53.1153V53.1153ZM169.709 18.4492C178.921 18.4492 183.913 26.3247 183.913 36.3799C183.913 46.0836 178.428 53.8184 169.709 53.8184C160.709 53.8184 155.787 45.943 155.787 36.0987C155.717 26.1841 160.709 18.4492 169.709 18.4492ZM169.709 24.9887C165.139 24.9887 164.858 31.2468 164.858 35.1143C164.858 38.9817 164.787 47.279 169.639 47.279C174.421 47.279 174.702 40.5989 174.702 36.5206C174.702 33.8486 174.561 30.614 173.788 28.0826C173.085 25.8325 171.678 24.9887 169.709 24.9887ZM195.796 53.1153H189.608C188.976 53.0449 188.483 52.5527 188.483 51.9902V20.1368C188.554 19.5743 189.046 19.0821 189.679 19.0821H195.445C196.007 19.0821 196.429 19.504 196.57 19.9962V24.848H196.71C198.468 20.4884 200.859 18.4492 205.148 18.4492C207.89 18.4492 210.633 19.4337 212.39 22.176C214.008 24.7074 214.008 28.9967 214.008 32.0906V52.1308C213.937 52.6934 213.445 53.1153 212.812 53.1153H206.625C206.062 53.0449 205.57 52.623 205.5 52.1308V34.833C205.5 31.3171 205.921 26.2544 201.632 26.2544C200.156 26.2544 198.749 27.2388 198.046 28.7858C197.202 30.7546 197.062 32.6532 197.062 34.833V51.9902C196.992 52.6231 196.429 53.1153 195.796 53.1153V53.1153ZM113.177 37.9269C113.177 40.3177 113.247 42.3568 112.052 44.5367C111.067 46.2946 109.52 47.3493 107.762 47.3493C105.372 47.3493 103.965 45.5211 103.965 42.8491C103.965 37.5753 108.676 36.5909 113.177 36.5909V37.9269ZM119.435 53.045C119.013 53.3965 118.45 53.4668 117.958 53.1856C115.919 51.498 115.497 50.6542 114.372 49.0369C110.997 52.4824 108.536 53.5372 104.176 53.5372C98.973 53.5372 94.8948 50.3026 94.8948 43.9038C94.8948 38.841 97.637 35.4658 101.504 33.7782C104.879 32.3016 109.591 32.0203 113.177 31.5984V30.8249C113.177 29.3483 113.317 27.5904 112.403 26.3247C111.63 25.1996 110.223 24.7074 108.958 24.7074C106.567 24.7074 104.458 25.9028 103.965 28.4342C103.825 28.9967 103.473 29.5592 102.911 29.5592L96.9339 28.9264C96.4417 28.7858 95.8792 28.4342 96.0198 27.6607C97.4261 20.3478 103.965 18.168 109.872 18.168C112.895 18.168 116.833 18.9414 119.224 21.2619C122.247 24.0746 121.966 27.8717 121.966 31.95V41.5834C121.966 44.4663 123.161 45.732 124.286 47.3493C124.708 47.9119 124.778 48.615 124.286 48.9666C122.95 50.0213 120.7 51.9902 119.435 53.045V53.045ZM31.9632 37.9269C31.9632 40.3177 32.0335 42.3568 30.8382 44.5367C29.8538 46.2946 28.3068 47.3493 26.549 47.3493C24.1583 47.3493 22.752 45.5211 22.752 42.8491C22.752 37.5753 27.4631 36.5909 31.9632 36.5909V37.9269ZM38.1509 53.045C37.729 53.3965 37.1665 53.4668 36.6743 53.1856C34.6351 51.498 34.2133 50.6542 33.0882 49.0369C29.7131 52.4824 27.2521 53.5372 22.8926 53.5372C17.6893 53.5372 13.6111 50.3026 13.6111 43.9038C13.6111 38.841 16.3533 35.4658 20.2207 33.7782C23.5958 32.3016 28.3068 32.0203 31.8929 31.5984V30.8249C31.8929 29.3483 32.0335 27.5904 31.1194 26.3247C30.346 25.1996 28.9397 24.7074 27.674 24.7074C25.2833 24.7074 23.1739 25.9028 22.6817 28.4342C22.541 28.9967 22.1895 29.5592 21.6269 29.5592L15.6502 28.9264C15.158 28.7858 14.5955 28.4342 14.7361 27.6607C16.1424 20.3478 22.6817 18.168 28.5881 18.168C31.6116 18.168 35.5492 18.9414 37.9399 21.2619C40.9635 24.0746 40.6822 27.8717 40.6822 31.95V41.5834C40.6822 44.4663 41.8776 45.732 43.0026 47.3493C43.4245 47.9119 43.4948 48.615 43.0026 48.9666C41.6666 50.0213 39.4165 51.9902 38.1509 53.045V53.045Z" fill="black"/>
</svg>
