<svg width="300" height="80" viewBox="0 0 300 80" fill="none" xmlns="http://www.w3.org/2000/svg">
<path d="M256.069 61.6516H263.866V45.0954C263.866 41.1489 265.695 36.1435 271.471 36.1435C275.417 36.1435 277.246 38.0687 277.246 42.4965V61.5553H285.043V40.2826C285.043 30.9457 278.786 28.6355 273.299 28.6355C268.872 28.6355 265.791 30.3681 264.059 32.582H263.963V14.9671H256.166V61.6516H256.069ZM253.663 37.7799C251.642 32.9671 247.888 28.6355 239.995 28.6355C229.599 28.6355 223.535 35.8548 223.535 45.4804C223.535 55.1061 229.599 62.3253 239.417 62.3253C248.176 62.3253 251.834 57.1275 254.048 52.4109L247.406 48.9457C246.155 51.8334 244.23 55.2024 239.61 55.2024C234.219 55.2024 231.717 50.4858 231.717 45.4804C231.717 40.4751 234.508 35.7585 240.091 35.7585C243.171 35.7585 245.866 37.7799 246.925 40.9564C246.829 40.9564 253.663 37.7799 253.663 37.7799ZM197.064 41.3414C197.93 37.8761 200.914 34.9884 205.438 34.9884C210.636 34.9884 212.754 39.6088 212.754 41.3414H197.064ZM220.936 47.4056C220.936 35.8548 216.219 28.7318 205.438 28.7318C194.946 28.7318 188.979 35.951 188.979 45.5767C188.979 55.2024 195.043 62.4216 205.438 62.4216C214.198 62.4216 218.914 58.1863 221.321 54.5286L214.775 50.6783C214.005 51.7371 211.599 55.2986 205.438 55.2986C201.203 55.2986 197.257 52.2184 197.064 47.4056H220.936ZM173.866 22.3788V54.2398C173.866 59.1489 175.984 62.0366 182.433 62.0366C184.84 62.0366 186.765 61.6516 188.594 61.2665V54.9136C187.438 55.0098 186.283 55.2986 185.128 55.2986C182.144 55.2986 181.663 53.8548 181.663 51.3521V34.9884H188.594V29.4056H181.663V14.582C181.567 14.582 173.866 22.3788 173.866 22.3788ZM160.872 61.6516H168.668V14.9671H160.872V61.6516ZM147.492 50.1007C147.492 54.2398 142.872 56.0687 139.214 56.0687C136.422 56.0687 134.209 54.4323 134.209 52.0259C134.209 48.9457 136.615 48.1756 139.599 47.5981L143.834 46.7318C145.278 46.443 146.529 46.058 147.492 45.5767C147.492 45.4804 147.492 50.1007 147.492 50.1007ZM155.289 39.2237C155.289 30.0794 148.358 28.6355 141.428 28.6355C134.401 28.6355 127.663 31.5232 127.663 39.1275L135.46 39.4163C135.46 35.951 136.904 34.6034 141.428 34.6034C144.797 34.6034 147.588 35.4697 147.588 38.6462V39.6088C145.567 40.2826 142.005 40.9564 139.214 41.5339L135.941 42.2077C131.128 43.1703 126.123 45.9617 126.123 52.3147C126.123 58.5713 130.936 62.4216 137.096 62.4216C141.139 62.4216 144.604 61.1703 147.588 58.7639C147.588 59.6302 147.877 60.8815 148.358 61.6516H156.54C156.059 60.9778 155.289 59.5339 155.289 56.2612C155.289 56.1649 155.289 39.2237 155.289 39.2237ZM124.872 29.4056C122.754 19.8761 115.727 15.1596 106.679 15.1596C93.1069 15.1596 85.2139 26.1328 85.2139 38.935C85.2139 51.7371 92.1444 62.7104 106.679 62.7104C115.727 62.7104 121.791 58.2826 125.353 49.2344L117.556 45.6729C115.92 50.9671 112.551 54.8173 106.583 54.8173C97.5347 54.8173 93.7807 46.828 93.7807 38.935C93.7807 31.0419 97.5347 23.0526 106.583 23.0526C111.781 23.0526 115.92 26.5179 116.594 31.5232L124.872 29.4056Z" fill="#F37421"/>
<path d="M39.7806 75.7051C59.716 75.7051 75.8768 59.5873 75.8768 39.7051C75.8768 19.8228 59.716 3.70508 39.7806 3.70508C19.8452 3.70508 3.68433 19.8228 3.68433 39.7051C3.68433 59.5873 19.8452 75.7051 39.7806 75.7051Z" fill="white"/>
<path d="M72.8929 40.5714L68.6576 40.7639C68.8501 40.1864 69.0426 39.9938 69.4276 39.6088L72.6041 36.9136L69.7164 37.0099C69.3314 37.0099 68.9464 37.0099 68.7538 37.4912L68.6576 36.1436C68.9464 36.5286 69.2351 36.5286 69.6202 36.5286L72.6041 36.4324C72.9891 36.4324 73.3742 36.4323 73.5667 36.0473V37.1061C73.4704 37.1061 73.4704 37.2024 73.3742 37.2024L73.1816 37.2987L69.8127 40.1864L72.7004 40.0901C73.0854 40.0901 73.4704 40.0901 73.6629 39.7051L73.7592 41.0527C73.6629 40.5714 73.3742 40.5714 72.8929 40.5714ZM73.5667 45.288C73.2779 46.8281 71.9303 47.7906 70.5827 47.5981C69.0426 47.4056 68.1763 45.9618 68.3688 44.4217C68.5613 42.9778 69.8127 41.8227 71.3528 42.1115C72.7966 42.304 73.8554 43.6516 73.5667 45.288ZM72.0266 50.7746C72.0266 50.3896 71.449 50.1971 71.1603 50.1008L68.0801 49.042L67.695 50.0045C67.5025 50.4858 67.5025 50.9671 67.695 51.4484L66.8287 50.7746L67.8875 47.8869C67.8875 48.2719 68.4651 48.4644 68.7538 48.5607L71.449 49.5233C71.7378 49.6195 72.3153 49.9083 72.5079 49.5233L72.0266 50.7746ZM69.6202 56.55C68.8501 57.8976 67.2137 58.2826 66.0587 57.6088C64.7111 56.8388 64.326 55.2024 65.0961 53.8548C65.8661 52.5072 67.4063 52.0259 68.7538 52.6997C70.0052 53.4698 70.3902 55.2024 69.6202 56.55ZM65.2886 62.5179C64.9998 62.8067 64.7111 63.0955 64.4223 63.288L63.7485 62.7104C64.2298 62.7104 64.7111 62.3254 64.9998 61.9404C65.7699 61.0741 65.7699 59.8227 64.8073 59.0527C63.8448 58.2826 62.5934 58.3789 61.8234 59.3414C61.6309 59.6302 61.4383 59.919 61.2458 60.2078L62.1121 60.8816C62.4009 61.0741 62.6897 61.3628 62.9784 61.1703L62.2084 62.0366C62.2084 61.9404 62.1121 61.8441 62.0159 61.8441L60.6683 60.689C60.572 60.5928 60.4758 60.4965 60.3795 60.4965C60.6683 59.919 60.9571 59.4377 61.3421 58.9564C62.5934 57.5126 64.1335 57.3201 65.2886 58.2826C66.5399 59.4377 66.5399 61.0741 65.2886 62.5179ZM62.8822 64.8281C62.6897 65.0206 62.4972 65.1168 62.3046 65.0206L60.187 64.3468L60.3795 65.9832C60.3795 66.1757 60.4758 66.5607 60.9571 66.4644L59.8982 67.3307L59.5132 64.058L58.7432 63.0955C58.4544 62.7104 58.2619 62.6142 57.8768 62.6142L59.0319 61.6516C58.8394 62.0366 59.2244 62.4217 59.4169 62.6142L60.0907 63.4805L62.3046 64.2505C62.6897 64.3468 62.9784 64.443 63.3635 64.3468L62.8822 64.8281ZM57.203 16.5072C57.5881 16.6035 57.8768 16.2184 58.1656 15.9297L59.9945 13.7158C60.187 13.427 60.572 13.042 60.3795 12.657L62.2084 14.1971C62.3046 14.2933 62.4009 14.3896 62.4972 14.3896L61.9196 15.0634C61.9196 14.6783 61.7271 14.4858 61.4383 14.2933C61.2458 14.1008 61.0533 14.0045 60.7645 13.812L59.8982 14.8709L60.572 15.4484C60.6683 15.5447 60.7645 15.6409 60.8608 15.6409L60.3795 16.2184C60.4758 15.9297 60.187 15.7372 59.9945 15.6409L59.6095 15.2559L58.7432 16.3147C58.5506 16.6035 58.1656 16.9885 58.3581 17.2773L57.203 16.5072ZM54.2191 14.7746C52.9677 14.0045 52.3902 12.4644 53.1603 11.1168C53.8341 9.86551 55.5667 9.48048 56.9143 10.2505C58.2619 11.0206 58.6469 12.6569 57.9731 13.812C57.203 15.2559 55.5667 15.5447 54.2191 14.7746ZM64.6148 16.411C64.6148 16.5072 64.7111 16.6035 64.8073 16.6997L64.9036 16.796L66.7325 18.9136C66.8287 19.0099 66.925 19.1061 67.0212 19.1061L66.1549 19.4912C66.2512 19.2024 66.1549 19.0099 65.9624 18.8174L65.4811 18.3361L62.8822 20.55C62.5934 20.8388 62.3046 21.0313 62.4009 21.5126L61.4383 20.3575C61.8234 20.55 62.2084 20.165 62.4009 19.9725L64.9998 17.7586L64.6148 17.2773C64.4223 16.9885 64.1335 16.796 63.8448 16.796L64.6148 16.411ZM67.5025 20.165L68.8501 22.1864C68.9464 22.2826 68.9464 22.3789 69.0426 22.4751L68.3688 22.9564C68.4651 22.5714 68.3688 22.3789 68.1763 22.0901C68.08 21.8976 67.8875 21.6088 67.695 21.5126L66.5399 22.2826L67.0212 23.0527C67.1175 23.1489 67.1175 23.2452 67.2137 23.3414L66.5399 23.8227C66.6362 23.6302 66.4437 23.3414 66.3474 23.1489L66.0587 22.6676L64.5186 23.6302L64.9998 24.4965C65.1923 24.9778 65.6736 25.2666 66.1549 25.4591L65.0961 25.7479L63.3635 22.7639C63.6522 23.0527 64.1335 22.6676 64.4223 22.4751L66.8287 20.935C67.1175 20.7425 67.5988 20.55 67.5025 20.165ZM71.2565 26.5179C71.449 26.9029 71.5453 27.3842 71.6415 27.8655L70.8715 28.2505C70.9678 27.7692 70.8715 27.288 70.679 26.8067C70.294 25.8441 69.2351 25.4591 68.2726 25.9404C67.2137 26.4217 66.6362 27.4805 67.1175 28.5393C67.31 29.0206 67.7913 29.5019 68.1763 29.7906H67.2137C66.925 29.5019 66.7325 29.2131 66.5399 28.8281C65.7699 27.1917 66.2512 25.7479 67.7913 25.1703C69.2351 24.4965 70.679 25.1703 71.2565 26.5179ZM72.3153 29.5019L72.7004 30.8495C72.5079 30.5607 71.9303 30.657 71.6415 30.7532L70.7752 30.9457L71.449 33.6409L72.3153 33.4484C72.7004 33.3521 73.1817 33.2559 73.2779 32.8709L73.6629 34.3147C73.4704 33.9297 72.8929 34.1222 72.6041 34.2184L69.8127 34.8922C69.5239 34.9885 68.9464 35.0848 68.8501 35.4698L68.4651 34.0259C68.6576 34.411 69.2351 34.2184 69.5239 34.1222L70.8715 33.8334L70.1014 31.1382L68.7538 31.427C68.4651 31.5233 67.8875 31.6195 67.7913 32.0045L67.5025 30.6569C67.695 30.9457 68.2726 30.8495 68.5613 30.7532L71.3528 30.0794C71.7378 29.9832 72.2191 29.8869 72.3153 29.5019ZM50.4651 8.42166C50.2726 8.13289 49.9838 7.94037 49.695 7.84412C49.4063 7.74786 49.2137 7.74786 48.925 7.6516L48.5399 8.9992L49.4063 9.28797C49.5025 9.28797 49.5988 9.38422 49.695 9.38422L49.5025 10.1543C49.4063 9.86551 49.1175 9.86551 48.925 9.76925L48.3474 9.57674L47.8661 11.3094L48.7325 11.6944C49.2137 11.8869 49.695 11.8869 50.1763 11.6944L49.5988 12.5607L46.6148 11.6944C46.9998 11.6944 47.0961 11.1168 47.1923 10.8281L47.9624 8.13289C48.0587 7.84412 48.2512 7.26658 47.9624 7.07406L50.2726 7.55535C50.3688 7.55535 50.5613 7.6516 50.6576 7.6516L50.4651 8.42166ZM44.8822 33.8334C43.4383 35.0848 41.5132 35.9511 39.9731 37.1061C39.7806 36.6249 39.7806 35.566 39.8768 35.0848C40.4544 30.4644 43.5346 27.0955 43.4383 22.0901C43.5346 20.0687 43.0533 18.1436 42.187 16.5072C42.3795 16.411 42.3795 16.6035 42.4758 16.6035C44.1121 19.2024 45.941 21.8013 46.8073 24.689C47.8661 27.7692 47.3849 31.5233 44.8822 33.8334ZM40.6469 10.8281V10.3468C40.3581 10.8281 39.6843 11.0206 39.203 11.0206C38.7218 11.0206 38.1442 10.9243 37.8554 10.5393C37.3742 10.058 37.3742 9.57674 37.3742 8.9992V6.97781C37.3742 6.59278 37.3742 6.1115 36.9891 5.91898H38.433C38.048 6.1115 38.1442 6.59278 38.1442 6.97781V8.9992C38.1442 9.96176 38.6255 10.443 39.3956 10.443C39.7806 10.443 40.2619 10.2505 40.4544 9.86551C40.6469 9.67299 40.6469 9.48048 40.6469 9.19171V6.88155C40.6469 6.49652 40.6469 6.01524 40.2619 5.82273H41.7057C41.3207 6.01524 41.4169 6.49652 41.4169 6.88155V9.76925C41.4169 10.1543 41.4169 10.6356 41.802 10.8281H40.6469ZM35.5453 6.97781C35.3528 6.78529 35.064 6.78529 34.8715 6.78529L34.1977 6.88155L34.7752 10.2505C34.8715 10.6356 34.8715 10.9243 35.3528 11.1168L33.9089 11.4056C34.294 11.2131 34.1014 10.6356 34.0052 10.3468L33.4276 7.07406L32.7538 7.17032C32.4651 7.26658 32.08 7.36283 31.8875 7.6516L31.9838 6.68904C32.08 6.68904 32.1763 6.68904 32.2726 6.68904H32.4651L35.2565 6.20775C35.3528 6.20775 35.5453 6.1115 35.5453 6.1115V6.97781ZM30.8287 12.3682C31.1175 12.0794 30.925 11.5981 30.8287 11.2131L29.9624 8.51791C29.8661 8.22914 29.7699 7.6516 29.3849 7.6516L30.7325 7.26658C30.4437 7.55535 30.6362 8.03663 30.7325 8.3254L31.5988 11.0206C31.695 11.3094 31.7913 11.8869 32.1763 11.8869L30.8287 12.3682ZM27.941 13.427C28.2298 13.1382 27.941 12.6569 27.8448 12.3682L26.4972 9.28797L25.9196 9.48048C25.6309 9.57674 25.3421 9.76925 25.2458 10.1543L25.1496 9.19171C25.2458 9.19171 25.3421 9.19171 25.4383 9.09545L25.6308 8.9992L28.2298 7.94037C28.326 7.84412 28.4223 7.84412 28.5186 7.74786L28.6148 8.71043C28.4223 8.51791 28.1335 8.61417 27.941 8.71043L27.3635 8.9992L28.7111 12.1757C28.9036 12.5607 28.9998 12.8495 29.4811 12.9457L27.941 13.427ZM27.2672 40.9564C26.9784 41.0527 26.9784 41.4377 26.9784 41.7265V43.7479C26.9784 44.0366 26.9784 44.4217 27.2672 44.5179H26.1121C26.4009 44.4217 26.4009 44.0366 26.4009 43.7479V41.7265C26.4009 41.4377 26.4009 41.0527 26.1121 40.9564H27.2672ZM24.6683 15.3521C24.2833 15.5447 23.802 15.7372 23.4169 15.8334L22.7431 15.1596C23.3207 15.2559 23.9945 15.1596 24.4758 14.8709C24.8608 14.6783 25.2458 14.1008 24.9571 13.6195C24.3795 12.657 22.2619 14.1008 21.3956 12.7532C20.9143 11.9832 21.5881 11.1168 22.3581 10.6356C22.6469 10.443 23.0319 10.2505 23.4169 10.1543L23.8982 10.9243C23.5132 10.8281 23.0319 10.9243 22.6469 11.1168C22.2619 11.3094 21.8768 11.7906 22.1656 12.1757C22.7432 13.042 24.9571 11.6944 25.6308 12.8495C26.0159 13.7158 25.6308 14.7746 24.6683 15.3521ZM24.2833 43.9404C23.7057 44.3254 23.1282 44.5179 22.4544 44.6142L22.7431 44.3254C23.7057 44.1329 24.572 43.3628 24.572 42.4965C24.572 41.919 24.2833 41.3414 23.5132 41.3414C23.0319 41.3414 22.6469 41.7265 22.6469 42.1115C22.6469 42.5928 23.0319 42.9778 23.5132 42.9778C23.7057 42.9778 23.9945 42.8815 24.187 42.7853L23.802 43.1703C23.6095 43.2666 23.5132 43.2666 23.3207 43.2666C22.6469 43.2666 22.0694 42.7853 22.0694 42.1115C22.0694 41.3414 22.7432 40.7639 23.6095 40.7639C24.572 40.7639 25.1496 41.4377 25.1496 42.2078C25.1496 42.9778 24.7645 43.5553 24.2833 43.9404ZM21.2993 16.796L17.1603 16.0259L19.0854 18.2398C19.3742 18.5286 19.5667 18.8174 20.048 18.7211L19.0854 19.5874C19.2779 19.1061 18.9891 18.9136 18.7966 18.6249L16.7752 16.3147C16.4865 16.0259 16.294 15.7372 15.8127 15.8334L16.679 15.0634C16.7752 15.1596 16.7752 15.1596 16.8715 15.1596H17.064L21.3956 15.9297L19.4704 13.812C19.1817 13.5233 18.9891 13.2345 18.5079 13.3307L19.4704 12.4644C19.2779 12.8495 19.5667 13.1382 19.7592 13.427L22.5506 16.6035C22.1656 16.9885 21.8768 16.8922 21.2993 16.796ZM21.0105 65.0206C19.9517 66.2719 18.5079 66.2719 17.2565 65.3094C16.8715 65.0206 16.5827 64.6356 16.294 64.2505L16.8715 63.5767C16.9677 64.058 17.2565 64.443 17.6415 64.8281C18.4116 65.5019 19.4704 65.4056 20.1442 64.5393C20.9143 63.673 20.9143 62.4217 20.048 61.6516C19.6629 61.2666 19.0854 61.0741 18.5079 60.9778L19.3742 60.5928C19.7592 60.689 20.048 60.8815 20.433 61.1703C21.8768 62.3254 22.0694 63.8655 21.0105 65.0206ZM13.8875 61.5553L13.1175 60.5928L15.1389 56.935C15.3314 56.55 15.6202 56.165 15.5239 55.6837L16.4865 56.935C16.1014 56.7425 16.1014 56.8388 15.8127 57.3201L15.2351 58.2826L16.3902 59.7265L17.449 59.3414C17.8341 59.2452 18.1228 59.1489 17.9303 58.7639L18.7966 59.8227C18.3153 59.6302 17.9303 59.8227 17.5453 59.919L14.2726 60.8816C14.08 61.0741 13.695 61.1703 13.8875 61.5553ZM11.0961 57.7051L10.4223 56.4537C10.7111 56.7425 11.1923 56.3575 11.4811 56.2612L14.3688 54.6249L13.8875 53.6623C13.695 53.181 13.31 52.8922 12.8287 52.6997L13.8875 52.5072L15.4276 55.2024C15.1389 54.9136 14.6576 55.2024 14.3688 55.3949L11.8661 56.7425C11.4811 57.1275 10.9998 57.3201 11.0961 57.7051ZM9.0747 53.8548L8.49716 52.5072C8.78593 52.796 9.26721 52.5072 9.55598 52.411L12.1549 51.2559C12.4437 51.1596 13.0212 50.9671 13.0212 50.5821L13.5988 51.9297C13.31 51.6409 12.8287 51.9297 12.5399 52.0259L9.94101 53.181C9.55598 53.2773 8.97844 53.4698 9.0747 53.8548ZM7.72711 50.6783L7.05331 48.3682C7.05331 48.2719 6.95705 48.0794 6.95705 48.0794L7.82336 47.7906C7.63085 48.0794 7.72711 48.3682 7.82336 48.7532C7.91962 49.042 8.01588 49.2345 8.11213 49.5233L9.45973 49.1382L9.17096 48.2719C9.17096 48.1757 9.0747 48.0794 9.0747 47.9832L9.84475 47.7906C9.65224 47.9832 9.7485 48.2719 9.84475 48.4644V48.9457L11.1923 48.5607C11.4811 48.4644 12.0587 48.3682 12.0587 47.9832L12.4437 49.3307C12.2512 49.042 11.6736 49.2345 11.3849 49.3307L8.68967 50.1008C8.30465 50.1971 7.82336 50.2933 7.72711 50.6783ZM8.30465 41.2452C9.84475 41.0527 11.0961 42.2078 11.2886 43.6516C11.4811 45.0955 10.6148 46.5393 9.0747 46.7318C7.63085 46.9243 6.28326 45.8655 6.09074 44.2291C5.89823 42.689 6.95705 41.4377 8.30465 41.2452ZM5.99449 39.9938L6.09074 38.165C6.09074 37.1061 6.66828 36.6249 7.34208 36.6249C8.01588 36.6249 8.49716 37.2987 8.59342 37.8762L10.0373 36.8174C10.4223 36.5286 10.8073 36.0473 11.0961 35.6623C10.9998 35.2773 10.7111 35.181 10.2298 35.0848L7.34208 34.5072C6.95705 34.411 6.66828 34.3147 6.28326 34.6997L6.57203 33.6409C6.66828 33.6409 6.66828 33.6409 6.76454 33.5447H6.95705L10.9998 31.6195L8.20839 30.9457C7.82336 30.8495 7.53459 30.7532 7.14957 31.1382L7.43834 29.8869C7.53459 30.2719 7.82336 30.3682 8.30465 30.4644L12.4437 31.427C12.1549 31.9083 11.8661 32.1008 11.3849 32.2933L7.53459 34.0259L10.4223 34.6997C10.8073 34.796 11.0961 34.8922 11.3849 34.5072L11.0961 35.8548V36.5286C11.0961 36.9136 10.9998 37.2024 10.7111 37.3949L9.45973 38.165L8.4009 38.8388C8.30465 38.2612 8.11213 37.4912 7.34208 37.4912C6.76454 37.4912 6.47577 37.8762 6.47577 38.4537C6.47577 38.6463 6.47577 38.8388 6.47577 38.935L9.84475 39.1275C10.2298 39.1275 10.7111 39.2238 10.9036 38.8388L10.8073 40.2826C10.7111 39.8976 10.1335 39.8976 9.7485 39.8976L6.8608 39.8013C6.66828 39.7051 6.09074 39.6088 5.99449 39.9938ZM8.49716 26.9992C8.49716 27.3842 9.0747 27.5767 9.36347 27.673L11.9624 28.7318C12.2512 28.8281 12.7325 29.1168 13.0212 28.8281L12.5399 30.1757C12.5399 29.7906 11.9624 29.5981 11.6736 29.5019L8.97844 28.443C8.68967 28.3468 8.11213 28.058 7.91962 28.3468L8.49716 26.9992ZM10.4223 23.0527L14.5613 23.534C15.0426 23.6302 15.4276 23.7265 15.8127 23.4377L15.0426 24.7853C15.0426 24.4003 14.9464 24.4003 14.3688 24.304L13.2137 24.1115L12.2512 25.7479L13.0212 26.6142C13.31 26.9992 13.5025 27.0955 13.7913 26.9029L13.31 28.1543C13.31 27.673 13.0212 27.3842 12.7325 26.9992L10.6148 24.4003C10.4223 24.2078 10.2298 23.919 9.94101 24.1115L10.4223 23.0527ZM16.9677 41.7265V43.7479C16.9677 44.0366 16.9677 44.4217 17.2565 44.5179H16.1014C16.3902 44.4217 16.3902 44.0366 16.3902 43.7479V41.7265C16.3902 41.4377 16.3902 41.0527 16.1014 40.9564H17.2565C16.9677 41.0527 16.9677 41.4377 16.9677 41.7265ZM21.4918 43.5553C21.4918 44.1329 20.818 44.6142 19.8554 44.6142C18.9891 44.6142 18.3153 44.2291 18.3153 43.6516C18.3153 43.1703 18.7004 42.8815 19.1817 42.689C18.7966 42.4965 18.4116 42.304 18.4116 41.8227C18.4116 41.2452 18.9891 40.8602 19.8554 40.8602C20.433 40.8602 21.203 41.1489 21.203 41.7265C21.203 42.1115 20.818 42.4003 20.433 42.4965C21.0105 42.7853 21.4918 42.9778 21.4918 43.5553ZM14.8501 16.9885C14.7538 17.3735 15.1389 17.7586 15.4276 17.9511L17.5453 19.7799C17.8341 19.9725 18.2191 20.3575 18.5079 20.165L17.5453 21.2238C17.7378 20.8388 17.2565 20.55 16.9677 20.2612L14.8501 18.4324C14.5613 18.2398 14.1763 17.7586 13.8875 17.9511L14.8501 16.9885ZM43.1496 6.01524C43.2458 6.1115 43.3421 6.1115 43.4383 6.1115H43.6309L46.4223 6.49652C46.5186 6.49652 46.7111 6.49652 46.8073 6.49652L46.4223 7.36283C46.326 7.07406 46.0373 6.97781 45.8448 6.97781L45.0747 6.88155L44.5934 10.2505C44.4972 10.6356 44.4972 10.9243 44.8822 11.2131L43.4383 11.0206C43.8234 10.9243 43.8234 10.3468 43.9196 10.058L44.4009 6.68904L43.7271 6.59278C43.4383 6.59278 43.0533 6.59278 42.7645 6.78529L43.1496 6.01524ZM39.7806 3.70508C19.8554 3.70508 3.68433 19.8762 3.68433 39.8013C3.68433 55.3949 13.5025 68.5821 27.3635 73.6837L27.4597 68.8709L27.7485 63.288C28.1335 58.2826 28.7111 53.3735 29.9624 48.7532C30.3474 47.5019 30.6362 45.8655 32.08 45.3842C34.0052 44.9992 36.2191 45.288 38.2405 45.288C38.2405 44.2291 38.5292 42.8815 38.1442 41.919L37.6629 41.534L28.0373 37.7799C27.8448 37.6837 27.6522 37.5874 27.6522 37.2987V37.1061H39.5881C39.3956 36.9136 39.1068 36.5286 38.9143 36.2398L37.6629 34.9885L33.8127 31.6195C32.1763 30.2719 31.4063 28.443 31.7913 26.3254C32.4651 22.3789 36.5079 19.8762 37.9517 16.2184C37.8554 16.9885 37.7592 17.566 37.5667 18.1436C36.9891 21.1275 35.3528 22.4751 34.9677 25.4591C34.9677 25.8441 34.7752 27.1917 35.064 27.3842C35.1603 25.6516 35.8341 24.1115 36.5079 22.6676C37.9517 20.2612 39.7806 18.4324 40.0694 15.5447C40.0694 15.0634 40.0694 14.1971 39.8768 13.6195H39.9731C41.8982 16.6997 42.8608 20.55 41.8982 24.4003C41.2244 28.058 39.0105 31.7158 39.4918 35.6623C39.5881 36.2398 39.6843 36.8174 39.8768 37.2024H52.3902C52.4865 37.3949 52.3902 37.6837 52.1014 37.7799L42.0907 41.6302C41.7057 41.8227 41.4169 42.2078 41.4169 42.5928C41.5132 42.7853 41.3207 42.9778 41.4169 43.0741C41.8982 42.8816 42.4758 42.8815 42.8608 43.1703C42.9571 42.9778 42.8608 42.689 42.8608 42.4965C42.8608 42.0152 43.2458 41.7265 43.6309 41.534C44.1121 41.4377 44.7859 41.1489 45.171 41.6302C45.556 42.1115 45.556 42.689 45.941 43.0741C45.941 42.5928 45.941 42.0152 46.4223 41.7265C46.9036 41.534 47.6736 41.2452 48.1549 41.7265C49.1175 43.5553 49.695 45.9618 50.2726 47.8869C50.6576 47.0206 51.4276 46.6356 52.1977 46.8281C52.5827 46.9243 52.9678 47.0206 53.1603 47.4056C52.9678 50.1971 53.5453 52.6997 54.0266 55.2987C54.1228 56.6463 55.0854 58.1864 54.2191 59.534C53.449 60.689 52.294 61.6516 51.4276 62.8067C51.2351 63.0955 51.2351 63.4805 51.2351 63.8655L53.3528 73.3949C66.6362 67.812 75.8768 54.9136 75.8768 39.8013C75.8768 19.8762 59.7057 3.70508 39.7806 3.70508ZM68.3688 53.566C67.4062 53.0848 66.1549 53.181 65.5774 54.2398C64.9998 55.2024 65.3849 56.2612 66.3474 56.8388C67.31 57.4163 68.5613 57.3201 69.1389 56.2612C69.7164 55.2024 69.3314 54.1436 68.3688 53.566ZM71.3528 42.8815C70.294 42.689 69.1389 43.2666 68.9464 44.4217C68.7538 45.5767 69.5239 46.443 70.5827 46.5393C71.6415 46.7318 72.7966 46.1543 72.9891 44.9992C73.1817 43.9404 72.5079 43.0741 71.3528 42.8815ZM19.7592 41.1489C19.4704 41.1489 18.9891 41.2452 18.9891 41.6302C18.9891 42.1115 19.7592 42.2078 20.1442 42.4003C20.433 42.304 20.6255 42.0152 20.6255 41.8227C20.6255 41.4377 20.3367 41.1489 19.7592 41.1489ZM56.6255 10.7318C55.5667 10.1543 54.5079 10.5393 53.9303 11.5019C53.449 12.4644 53.5453 13.7158 54.5079 14.2933C55.4704 14.8709 56.5292 14.4858 57.1068 13.5233C57.6843 12.6569 57.5881 11.4056 56.6255 10.7318ZM18.8929 43.4591C18.8929 43.9404 19.2779 44.2291 19.9517 44.2291C20.3367 44.2291 20.9143 44.0366 20.9143 43.6516C20.9143 43.0741 20.048 42.9778 19.5667 42.8815C19.2779 42.8815 18.8929 43.1703 18.8929 43.4591ZM12.8287 24.0152L10.8073 23.7265L12.0587 25.2666L12.8287 24.0152ZM8.88219 45.8655C9.94101 45.7692 10.9036 44.8067 10.7111 43.6516C10.5186 42.4965 9.65224 41.919 8.49716 42.0152C7.43834 42.1115 6.47577 42.9778 6.57203 44.1329C6.8608 45.3842 7.82336 46.058 8.88219 45.8655ZM13.8875 60.5928L15.8127 60.0152L14.8501 58.8602L13.8875 60.5928Z" fill="#F37421"/>
<path d="M46.3262 41.7263C45.7487 42.4001 46.4225 43.6514 46.5187 44.2289L47.8663 50.2931C47.8663 50.4856 47.9626 50.6781 47.9626 50.8707C47.4813 50.9669 47.0963 51.0632 46.615 51.1594C46.5187 50.8707 47 50.7744 47.1925 50.5819L47.2888 50.4856C46.8075 47.7904 46.3262 45.769 46.0375 44.4215C45.9412 43.9402 45.4599 41.8225 45.1711 41.4375L46.3262 41.7263Z" fill="#F37421"/>
<path d="M45.0746 52.6041C44.3045 51.8341 43.4382 51.064 42.2831 51.3528C41.4168 51.449 40.6467 51.6416 39.8767 51.6416C39.5879 51.3528 39.3954 50.8715 39.4917 50.3902C39.973 49.7164 40.9355 49.6202 41.7056 49.3314C42.8607 48.8501 44.112 49.4276 44.882 50.1977L45.2671 50.8715C45.4596 51.449 45.4596 52.2191 45.0746 52.6041ZM45.1708 54.818C45.0746 55.203 44.9783 55.6843 44.5933 55.9731C44.112 54.433 42.5719 53.9517 41.2243 53.7592C40.8393 53.6629 40.358 53.7592 40.0692 53.9517C39.6842 53.6629 39.6842 53.0854 39.7804 52.6041C39.8767 52.4116 40.0692 52.3153 40.1655 52.3153C41.2243 52.1228 42.2831 51.9303 43.3419 52.1228C43.8232 52.3153 44.2082 52.7004 44.5933 53.0854C45.0746 53.4704 45.3633 54.1442 45.1708 54.818ZM44.5933 58.7645C44.497 59.1496 44.4008 59.4383 44.112 59.7271C43.6307 60.0159 43.1494 60.2084 42.6681 60.3047C42.2831 59.0533 42.9569 57.417 41.8018 56.4544C41.3205 55.8768 39.973 55.6843 40.4542 54.7218C40.5505 54.5293 40.6467 54.433 40.8393 54.3367C41.8018 54.3367 42.5719 54.6255 43.3419 55.1068C44.0157 56.0694 45.0746 57.2244 44.5933 58.7645ZM42.5719 66.7539C41.4168 66.7539 37.2778 66.7539 37.2778 66.7539L38.3366 48.6576C38.7216 48.6576 39.1066 48.6576 39.2992 48.5613C39.2992 48.9464 39.4917 49.2351 39.6842 49.4276C38.2403 50.294 39.0104 51.6416 39.3954 52.0266C38.9141 53.3742 39.3954 53.9517 39.8767 54.3367C39.5879 55.203 39.7804 55.6843 41.128 56.4544C42.1869 57.0319 41.9943 58.9571 42.0906 59.5346C42.0906 60.2084 42.5719 66.7539 42.5719 66.7539ZM39.973 48.0801C40.4542 47.4063 41.3205 47.31 41.9943 47.0212C42.7644 46.925 44.0157 46.6362 44.497 47.5025C44.6895 48.0801 45.0746 48.6576 44.7858 49.3314C44.0157 48.9464 43.2457 48.3688 42.2831 48.6576C41.6093 48.7539 40.8393 48.9464 40.1655 49.1389C39.973 49.0426 39.8767 48.4651 39.973 48.0801ZM45.9409 51.064C45.9409 50.5827 45.4596 50.294 45.2671 49.9089C45.6521 49.0426 45.2671 47.9838 44.9783 47.2137C44.882 46.8287 44.4008 46.54 44.112 46.4437C43.8232 45.3849 42.8607 43.171 42.9569 42.2084L42.1869 42.7859C42.6681 42.9785 42.9569 44.1335 43.0532 44.6148L43.5344 46.3474L42.0906 46.4437C42.0906 46.0587 42.1869 45.4811 41.7056 45.2886L41.6093 45.1924L41.4168 43.4597C41.4168 43.0747 41.5131 42.8822 41.7056 42.7859L41.8018 41.6309C41.3205 42.0159 41.128 42.6897 41.128 42.9785C41.0318 43.4597 41.128 44.4223 41.128 45.1924C40.2617 45.4811 38.2403 44.9036 38.2403 44.9036V45.1924C38.5291 45.2886 39.3954 45.4811 39.8767 45.5774C40.358 45.6736 41.128 45.4811 41.5131 45.8662C41.6093 46.1549 41.6093 46.4437 41.4168 46.6362C40.6467 46.925 39.8767 47.2137 39.3954 47.9838C37.759 48.1763 35.9302 48.0801 34.2938 47.8875C34.3901 48.6576 35.2564 48.4651 35.7377 48.5613H35.8339C35.9302 50.0052 36.2189 51.5453 35.6414 52.8929C34.8713 54.433 32.9462 54.1442 31.4061 54.2405V54.6255C32.6574 54.7218 34.005 54.818 35.1601 54.3367C35.8339 54.1442 36.3152 53.4704 36.5077 52.7966C36.7002 51.3528 36.5077 50.0052 36.4115 48.6576C36.989 48.5613 37.5665 48.5613 38.1441 48.5613L38.2403 48.6576L37.9516 53.7592L37.4703 60.9785C36.2189 61.0747 34.6788 61.171 33.62 60.4972C31.9836 59.4383 31.9836 57.417 31.9836 55.6843H31.4061L31.2136 57.3207L30.6361 62.7111L30.5398 65.31C30.5398 65.5025 30.6361 65.695 30.8286 65.695C30.9248 63.3849 31.2136 61.2672 31.4061 58.9571L31.5024 58.8608C31.7911 59.4383 31.9836 60.0159 32.3687 60.4972C33.62 61.8448 35.5451 61.6522 37.2778 61.556L37.374 61.6522L37.0853 66.9464H38.4328H38.7216L38.6254 75.6095C39.8767 75.7057 41.3205 75.6095 42.6681 75.5132C42.8607 75.417 42.6681 75.1282 42.7644 74.9357L42.2831 68.3902L42.1869 66.8501H43.1494L42.7644 60.8822L42.8607 60.7859C43.3419 60.6897 43.8232 60.4972 44.2082 60.3047C45.4596 59.8234 45.2671 58.3795 45.3633 57.3207C44.7858 56.4544 45.8446 55.7806 45.9409 54.9143C46.2296 54.2405 45.9409 53.5667 45.6521 52.9891C45.9409 52.6041 45.8446 51.7378 45.9409 51.064Z" fill="#E96D1F"/>
<path d="M50.465 50.1954C50.465 49.6179 50.08 48.6553 50.3687 47.789L50.1762 47.1152C49.9837 47.5003 49.7912 48.2703 49.7912 48.7516C49.7912 50.6767 50.08 51.7356 50.08 53.5644L49.9837 53.8532C48.6361 54.912 46.6147 55.3933 45.9409 57.1259C45.6522 59.2436 46.1334 61.1687 46.6147 63.0938L46.9998 62.9976C46.6147 61.4575 46.326 59.8211 46.4222 58.1848C46.5185 55.8746 49.1174 55.1045 50.6575 54.0457C50.85 52.7944 50.6575 51.543 50.465 50.1954Z" fill="#F37421"/>
</svg>
