<svg width="167" height="80" viewBox="0 0 167 80" fill="none" xmlns="http://www.w3.org/2000/svg">
<path d="M83.4732 14.9245C84.5187 14.9734 85.5173 15.3728 86.3083 16.0582C87.3861 17.0786 87.6687 18.7799 87.1586 20.1412C85.1754 24.2233 80.459 26.95 77.2362 27.852C75.3081 28.3055 72.8707 28.3055 71.1126 27.6252C70.2615 28.1354 69.5435 29.7842 68.5043 29.0991C67.0001 27.9243 68.3022 26.0857 67.4338 24.7811C67.2547 24.5125 66.8037 24.4928 66.577 24.0533C65.3858 21.4449 66.8604 18.95 68.5043 16.966C71.2449 13.9083 79.1076 10.5015 83.4732 14.9245ZM74.3445 16.9652C72.8132 17.2486 71.0838 17.9149 70.149 19.0067C69.2132 20.0977 68.6185 21.1615 69.1853 22.2952C71.1701 20.8214 72.1338 18.7799 74.3453 17.5329C74.3445 17.3053 74.6846 17.1352 74.3445 16.9652ZM83.5874 17.5329C79.6745 17.1919 76.7261 20.1412 73.9477 22.9754C73.7776 23.4289 72.7573 23.9391 73.5509 24.4492C77.2937 24.7894 80.8657 23.7132 83.5874 21.2174C84.3818 20.4805 84.947 19.5168 84.5519 18.4957C84.3818 18.0997 83.9817 17.7029 83.5874 17.5329ZM117.492 34.4291C119.307 38.8521 120.838 45.8252 117.492 50.0782C116.585 51.0986 114.998 52.0392 113.978 51.2686C110.235 48.2643 108.649 43.9546 106.324 40.0984C105.984 39.9283 105.984 40.3826 105.814 40.5527C104.963 44.4648 106.551 49.5681 103.886 52.6291C102.866 52.7991 101.911 52.2742 101.561 51.2686C100.257 47.2432 101.617 43.0468 101.957 39.0214C102.751 36.9799 103.091 34.5991 104.849 33.0678C107.684 34.2015 109.045 37.3775 110.688 39.7024C111.88 41.4597 112.843 43.4445 114.203 45.0316C115.393 44.5215 114.808 42.9655 114.771 42.0265C114.316 38.3412 113.295 34.9392 112.331 31.424C112.276 30.517 111.766 28.9857 112.728 28.4188C115.283 29.5534 116.358 32.2175 117.492 34.4291ZM100.369 33.0678C100.369 33.9189 99.6892 34.982 99.1207 35.1093C93.6781 35.9596 87.6112 35.4494 82.5087 37.15C82.3387 37.7735 83.0756 37.8869 83.4724 38.0569C87.8371 38.7371 92.4311 38.9072 96.6841 39.985C98.9326 40.556 99.7467 43.2177 99.9168 45.4284C100.021 47.1717 99.3507 49.2838 97.6486 50.475C93.4539 53.14 87.0468 53.0259 82.793 50.5892C81.1672 49.6773 79.6178 48.2085 79.5044 46.3937C79.5143 44.9528 80.1288 43.8182 81.1491 43.2752C85.2321 41.6305 90.2779 42.5391 93.794 44.6357C94.0191 45.7702 92.7917 45.7086 92.2043 46.1103C88.2914 48.3785 85.3438 43.5603 81.7152 45.3159C81.205 45.656 80.8361 46.6048 81.4317 46.9039C85.9107 48.8887 90.9006 47.4707 95.3228 46.2237C95.833 46.0536 96.4574 45.5434 96.5132 45.0333C96.3432 43.2185 94.3025 42.8226 92.9979 42.3124C89.1425 41.3488 84.8903 41.3488 80.7507 40.952C79.9571 40.7819 78.9458 40.229 78.71 39.5915C78.2565 38.2311 78.2565 36.3597 79.2769 35.226C84.5494 30.5761 92.5436 30.9738 99.2341 32.2208C99.6884 32.3876 100.199 32.5577 100.369 33.0678ZM75.5924 35.2227C76.1025 40.6652 76.3859 45.7127 76.2726 51.4387C76.1592 52.1748 75.3089 52.3456 74.7421 52.6291C73.8351 52.7991 72.6628 52.6061 72.3038 52.1189C71.0001 50.0199 71.4535 47.1865 71.3402 44.6348C71.5102 40.6102 71.4535 36.2438 72.5881 32.501C72.8049 31.9571 73.4383 31.4806 73.9485 31.8199C75.3089 32.501 75.5357 33.8622 75.5924 35.2227ZM138.587 34.4291C138.859 34.8875 139.144 35.5956 138.587 35.9029C136.035 37.0366 132.577 36.5264 129.628 36.8665C128.834 37.5468 128.21 38.6805 128.493 39.7016C128.778 39.8717 129.031 40.1304 129.344 40.0976C131.158 40.2118 133.88 39.2473 135.072 40.9479C135.363 41.4539 135.033 43.3434 134.222 43.3861C132.009 43.6712 128.372 43.1085 127.303 43.6712C125.943 44.5782 126.055 46.3354 125.545 47.7542C126.509 48.3777 127.519 47.7394 128.663 47.5833C130.762 47.2432 133.087 46.6196 135.184 47.0731C135.581 47.81 136.148 48.6044 135.751 49.5114C132.176 52.3465 127.566 55.2522 122.654 53.1967C120.811 52.3703 119.989 49.5681 120.613 47.1881C121.009 45.4868 122.767 43.8429 121.69 42.0282C121.52 41.2337 121.975 40.5543 122.655 40.3843C124.525 40.3843 124.128 38.0594 125.092 36.9815C124.015 35.7912 121.294 35.8479 121.578 33.4663C122.882 32.786 124.47 33.0128 125.943 32.786C129.288 32.105 133.03 31.7082 136.434 32.105C137.112 32.2414 138.02 33.5788 138.587 34.4291ZM57.6183 21.5016C62.8506 25.7785 69.6388 33.0686 68.7885 41.4597C67.7674 48.0943 60.7368 53.0834 54.7832 54.6714C48.9997 56.3719 41.7424 56.2019 35.8447 54.8414C35.4479 55.9193 35.0511 57.2222 33.804 57.6765C33.0105 57.9599 31.9893 57.7899 31.3658 57.2797C29.6085 55.635 31.0257 52.4598 28.474 51.4403C23.4841 49.3422 18.0974 45.2025 15.5466 40.1C15.2065 39.0797 15.6032 38.0594 16.2268 37.2658C20.1397 34.1473 25.0721 32.9002 30.0053 31.9358C30.2888 32.0491 30.1754 31.6523 30.4021 31.539C30.6856 28.1371 30.7989 24.6776 31.8759 21.6158C32.1216 21.1862 32.7262 21.049 33.1238 21.3324C36.2423 23.7132 34.7677 28.1937 36.129 31.4248C42.0825 31.7082 48.0361 31.9916 52.7418 35.3377C54.3298 36.6414 54.7167 39.1315 54.2156 40.5543C53.7153 41.9748 52.0615 42.9926 50.5302 43.1043C49.5091 43.1043 47.5818 43.2037 47.6951 42.4249C47.8085 41.6453 51.1636 40.3695 50.1334 39.3056C48.6522 37.7768 41.2413 36.8674 36.6482 36.3005C36.0813 36.1871 35.5613 36.3572 35.5613 36.9807C35.4479 41.2896 35.1078 46.052 35.8447 50.1924C35.9014 50.4767 36.2415 50.8168 36.5257 50.8718C44.6333 52.1764 53.1952 51.4387 59.5456 46.7897C62.494 44.4097 63.4585 41.062 62.9475 37.3775C60.3959 27.1151 49.6799 20.934 40.8913 16.9652C32.3302 13.2232 22.8606 11.2951 12.7115 11.806C11.0956 11.9243 8.53488 12.4821 8.51598 13.0539C8.49709 13.6257 11.4168 13.4458 11.0668 14.5277C10.7177 15.6089 7.75032 14.9672 6.8713 14.6978C5.99227 14.4283 6.07771 13.1665 6.30445 12.3729C8.51598 8.4608 14.6872 8.14452 17.4747 8.00732C32.8963 7.60971 47.8093 13.4828 57.6183 21.5016ZM29.8353 36.6973C25.9224 36.754 21.7835 37.1508 18.1549 38.5112C17.418 38.7946 16.5102 39.5882 17.0771 40.5527C18.5509 42.5367 20.6589 44.1658 22.6338 45.3151C24.6088 46.4627 27.2269 47.9234 29.6085 48.2643C30.1754 44.5782 30.1754 40.9495 30.1187 37.1508C29.8911 37.0374 30.1179 36.8107 29.8353 36.6973ZM147.033 31.5373C146.863 36.4697 142.269 39.5324 142.269 44.4648C142.44 44.6348 142.555 44.8616 142.78 44.7499C146.467 40.7236 150.094 34.9968 155.481 33.2962C156.901 33.1828 158.183 34.4159 158.714 35.3377C160.585 39.0797 160.133 44.3531 157.524 47.755C154.832 51.0945 150.152 54.4454 144.824 53.8778C142.614 59.3212 141.08 65.048 140.23 71.0016C139.776 72.1919 138.7 71.1149 138.02 70.8882C133.427 67.2595 137.198 57.6535 137.51 56.4278C137.821 55.2054 139.05 52.3218 139.949 49.9074C137.794 46.0528 139.154 41.4022 140.912 37.8302C142.272 35.4486 144.145 33.067 146.356 31.2531C146.637 31.2539 146.863 31.3106 147.033 31.5373ZM156.164 37.6609C155.484 37.5476 155.199 38.4554 154.633 38.6254C152.026 41.5739 149.417 44.5223 148.112 48.0376C149.871 48.2643 151.344 47.1306 152.876 46.5071C155.484 44.8624 157.128 42.1423 156.958 39.023C156.844 38.5112 156.391 38.1144 156.164 37.6609Z" fill="black"/>
</svg>
