<svg width="376" height="80" viewBox="0 0 376 80" fill="none" xmlns="http://www.w3.org/2000/svg">
<g clip-path="url(#clip0_8533_144107)">
<mask id="mask0_8533_144107" style="mask-type:luminance" maskUnits="userSpaceOnUse" x="8" y="8" width="359" height="73">
<path d="M366.14 8.00195H8.42554V80.002H366.14V8.00195Z" fill="white"/>
</mask>
<g mask="url(#mask0_8533_144107)">
<path d="M59.4832 72.2968H21.6345C14.3526 72.2968 8.42554 66.3696 8.42554 59.0595V21.2108C8.42554 13.929 14.3526 8.00195 21.6345 8.00195H59.4832C66.7932 8.00195 72.6921 13.929 72.6921 21.2108V59.0595C72.7203 66.3696 66.7932 72.2968 59.4832 72.2968Z" fill="#FDDB32"/>
<path d="M28.0652 59.7951V53.5574C28.0652 53.0494 27.6699 52.6543 27.162 52.6543H20.9244C20.4164 52.6543 20.0212 53.0494 20.0212 53.5574V59.7951C20.0212 60.3031 20.4164 60.6982 20.9244 60.6982H27.162C27.6699 60.6982 28.0652 60.3031 28.0652 59.7951Z" fill="#191E3B"/>
<path d="M61.1222 54.4293V23.6931C61.1222 21.4068 59.2876 19.5723 57.0013 19.5723H26.2652C25.6442 19.5723 25.2774 19.7981 24.8822 20.1932L18.7576 26.3743C18.306 26.8259 18.6164 27.5033 19.2938 27.5033H47.0948L29.8497 44.7483C29.5392 45.0587 29.3981 45.3692 29.3981 45.8773V50.4215C29.3981 50.9576 29.7651 51.3246 30.3012 51.3246H34.8454C35.3816 51.3246 35.692 51.1835 35.9743 50.873L53.2194 33.6279V61.4288C53.2194 62.1062 53.8966 62.4167 54.3484 61.9651L60.5295 55.8123C60.8963 55.417 61.1222 55.0502 61.1222 54.4293Z" fill="#191E3B"/>
<path d="M154.43 46.4997L167.018 29.1137C167.385 28.5774 167.103 28.041 166.482 28.041H159.623C159.257 28.041 158.777 28.1823 158.551 28.5774L150.253 40.6856L141.757 28.5774C141.532 28.2104 141.08 28.041 140.685 28.041H133.375C133.008 28.041 132.754 28.3515 132.754 28.662C132.754 28.8032 132.754 28.9724 132.895 29.1137L145.511 46.5562L131.597 65.6923C131.23 66.2284 131.512 66.7648 132.048 66.7648H138.963C139.33 66.7648 139.81 66.6237 140.036 66.2284L149.66 52.3704L159.426 66.2284C159.652 66.6237 160.103 66.7648 160.498 66.7648H167.865C168.232 66.7648 168.486 66.4543 168.486 66.1438C168.486 66.0027 168.401 65.8334 168.345 65.6923L154.43 46.4997Z" fill="#191E3B"/>
<path d="M126.319 13.5059C126.855 13.5059 127.222 13.8728 127.222 14.409V19.5741C127.222 20.1103 126.855 20.4773 126.319 20.4773H101.735V35.8312H123.807C124.343 35.8312 124.71 36.1981 124.71 36.7345V41.8712C124.71 42.4075 124.343 42.7743 123.807 42.7743H101.735V59.5961H126.319C126.855 59.5961 127.222 59.9629 127.222 60.4992V65.8335C127.222 66.3699 126.855 66.7367 126.319 66.7367H97.5581C95.3567 66.7367 93.6915 65.0715 93.6915 62.87V17.3726C93.6915 15.1711 95.3567 13.5059 97.5581 13.5059H126.319Z" fill="#191E3B"/>
<path d="M194.393 26.8262C186.943 26.8262 182.991 30.1 180.705 33.1484V28.9429C180.705 28.4066 180.339 28.0398 179.803 28.0398H173.79C173.254 28.0398 172.887 28.4349 172.887 28.9429V79.0691C172.887 79.6054 173.254 79.9724 173.79 79.9724H179.886C180.422 79.9724 180.79 79.6054 180.79 79.0691V61.7959C182.991 64.844 186.943 67.8924 194.393 67.8924C206.502 67.8924 213.557 58.776 213.557 47.3452C213.557 35.9143 206.502 26.8262 194.393 26.8262ZM193.038 61.3443C185.588 61.3443 180.48 56.3205 180.48 47.4297C180.48 38.5392 185.588 33.3458 193.038 33.3458C200.49 33.3458 205.515 38.5109 205.515 47.4297C205.515 56.3205 200.49 61.3443 193.038 61.3443Z" fill="#191E3B"/>
<path d="M237.549 26.8262C226.965 26.8262 218.526 34.4466 218.526 47.0629C218.526 59.9896 225.976 67.9206 238.536 67.9206C245.762 67.9206 251.774 64.7312 255.5 60.3C255.724 60.0742 255.809 59.8485 255.809 59.6226C255.809 59.3969 255.724 59.171 255.5 58.9453L252 55.5019C251.774 55.276 251.547 55.1914 251.322 55.1914C251.096 55.1914 250.87 55.3326 250.645 55.5584C247.765 58.6912 244.012 61.3443 238.621 61.3443C230.745 61.3443 226.965 56.4898 226.371 49.4902H255.583C256.119 49.4902 256.487 49.0949 256.487 48.587V47.0629C256.487 35.4909 249.488 26.8262 237.549 26.8262ZM226.654 43.563C227.557 37.2126 230.887 33.0636 237.493 33.0636C244.265 33.0636 247.85 36.9303 248.357 43.563H226.654Z" fill="#191E3B"/>
<path d="M365.263 28.0419H359.251C358.715 28.0419 358.347 28.4089 358.347 28.945V33.207C356.061 30.1586 352.111 26.8848 344.49 26.8848C332.552 26.8848 325.467 36.0012 325.467 47.432C325.467 58.8628 332.552 67.9792 344.49 67.9792C352.111 67.9792 356.061 64.7052 358.347 61.657V65.8342C358.347 66.3704 358.715 66.7374 359.251 66.7374H365.263C365.799 66.7374 366.167 66.3704 366.167 65.8342V28.945C366.194 28.4089 365.799 28.0419 365.263 28.0419ZM346.014 61.4312C338.563 61.4312 333.539 56.2662 333.539 47.3472C333.539 38.4567 338.563 33.4327 346.014 33.4327C353.466 33.4327 358.574 38.4567 358.574 47.3472C358.574 56.2662 353.466 61.4312 346.014 61.4312Z" fill="#191E3B"/>
<path d="M301.227 13.5059H295.13C294.594 13.5059 294.228 13.8728 294.228 14.409V33.2063C291.94 30.1581 288.075 26.8841 280.454 26.8841C268.516 26.8841 261.431 36.0005 261.431 47.4313C261.431 58.8621 268.516 67.9786 280.454 67.9786C288.075 67.9786 292.025 64.7047 294.311 61.6563V65.8335C294.311 66.3699 294.679 66.7367 295.215 66.7367H301.227C301.763 66.7367 302.129 66.3699 302.129 65.8335V14.409C302.129 13.8728 301.763 13.5059 301.227 13.5059ZM281.978 61.4306C274.528 61.4306 269.503 56.2655 269.503 47.3467C269.503 38.456 274.528 33.4322 281.978 33.4322C289.43 33.4322 294.538 38.456 294.538 47.3467C294.538 56.2655 289.43 61.4306 281.978 61.4306Z" fill="#191E3B"/>
<path d="M317.794 13.5059C318.33 13.5059 318.696 13.8728 318.696 14.409V20.6466C318.696 21.1828 318.33 21.5498 317.794 21.5498H311.556C311.02 21.5498 310.654 21.1828 310.654 20.6466V14.409C310.654 13.8728 311.02 13.5059 311.556 13.5059H317.794Z" fill="#191E3B"/>
<path d="M317.733 28.041C318.269 28.041 318.635 28.408 318.635 28.9443V65.8334C318.635 66.3695 318.269 66.7365 317.733 66.7365H311.636C311.1 66.7365 310.732 66.3695 310.732 65.8334V28.9443C310.732 28.408 311.1 28.041 311.636 28.041H317.733Z" fill="#191E3B"/>
</g>
</g>
<defs>
<clipPath id="clip0_8533_144107">
<rect width="376" height="80" fill="white"/>
</clipPath>
</defs>
</svg>
