<svg width="275" height="80" viewBox="0 0 275 80" fill="none" xmlns="http://www.w3.org/2000/svg">
<path d="M48.8087 20.6739H47.6847V22.8709H48.8087V20.6739Z" fill="white"/>
<path d="M48.8087 26.4255H47.6847V28.6251H48.8087V26.4255Z" fill="white"/>
<path d="M37.1567 17.6941C36.8229 17.8344 36.5315 18.0595 36.3114 18.3471V30.0456C36.8523 29.6217 37.5284 29.4082 38.2146 29.4449L40.4864 29.7623L43.2408 30.1295C44.0837 30.1607 44.925 30.0357 45.7225 29.761V17.825C44.936 18.1442 44.0879 18.2827 43.2408 18.2303L40.3841 17.8539L38.2146 17.547C37.8552 17.503 37.4905 17.5537 37.1567 17.6941Z" fill="white"/>
<path d="M26.5345 17.8479C26.534 17.8477 26.5336 17.8475 26.5332 17.8473H26.5345C26.5345 17.8475 26.5345 17.8477 26.5345 17.8479C27.2872 18.1588 28.1011 18.2932 28.9138 18.2408L31.7758 17.8618L33.94 17.5522C34.2994 17.5085 34.664 17.5594 34.9978 17.6997C35.3315 17.84 35.6229 18.0649 35.8432 18.3523V30.0587C35.2977 29.6297 34.6145 29.4143 33.9216 29.4527L31.6512 29.7715L28.9138 30.1361C26.9096 30.1361 26.4925 29.6521 26.4872 29.6482C26.482 29.6442 26.5292 18.6524 26.5345 17.8479Z" fill="white"/>
<path d="M26.0649 19.054C25.7527 19.1209 25.1153 19.256 24.9002 19.2993L24.9028 31.1408C26.2673 31.3366 27.643 31.4439 29.0213 31.4622C30.8504 31.4291 32.6765 31.3004 34.4922 31.0766L34.7545 31.0398V31.8452C35.1615 32.0014 35.5935 32.0828 36.0294 32.0852C36.4833 32.0801 36.933 31.9981 37.3594 31.8426V31.0398L37.6218 31.0766C39.4422 31.3008 41.2731 31.4295 43.107 31.4622C44.4823 31.4434 45.8549 31.336 47.2164 31.1408V19.2875L46.1802 18.9989L46.1382 29.9341C46.0779 30.001 45.5139 30.5991 43.2395 30.5991L40.3828 30.2227L38.2133 29.9158C37.8539 29.8717 37.4891 29.9223 37.1553 30.0627C36.8215 30.203 36.5301 30.4282 36.3101 30.7159L36.2459 30.6817H35.9114L35.8471 30.7185C35.6222 30.4301 35.3267 30.2047 34.9891 30.064C34.6516 29.9234 34.2834 29.8723 33.9203 29.9158L31.7509 30.2253L28.9125 30.5991C26.6709 30.5991 26.179 30.0286 26.0649 29.7833V19.054Z" fill="white"/>
<path d="M24.4267 20.6752H23.3262V22.8722H24.4267V20.6752Z" fill="white"/>
<path d="M24.4267 26.4268H23.3262V28.6264H24.4267V26.4268Z" fill="white"/>
<path d="M262.051 16.9885C262.055 16.8634 262.028 16.7393 261.974 16.6265H261.386C260.107 16.6265 259.288 16.6816 256.983 16.6816C256.196 16.6816 255.016 16.6265 254.731 16.6265H254.065C253.987 16.6816 253.96 16.961 253.96 17.062C253.952 17.2179 253.998 17.3718 254.091 17.4974C254.997 17.6337 255.883 17.8832 256.727 18.2398C257.211 19.026 257.468 19.9307 257.47 20.8539C257.493 21.2343 257.52 21.6199 257.52 22.6706V28.0181C257.523 28.3856 257.506 28.753 257.47 29.1186C257.034 28.632 256.42 27.7151 255.397 26.5596L246.844 17.0895C246.734 16.9604 246.606 16.8478 246.464 16.7551C246.258 16.7551 245.9 16.7314 245.698 16.7314C244.056 16.7314 241.089 16.6541 240.653 16.6541C240.595 16.7655 240.56 16.8871 240.548 17.0121C240.565 17.1757 240.591 17.3381 240.626 17.4988C241.351 17.6154 242.023 17.9551 242.547 18.4707C243.061 18.9524 243.515 19.4945 243.899 20.0853C243.986 20.35 244.022 20.6285 244.006 20.9064C244.006 22.2364 243.928 24.1029 243.928 25.8906V31.0874C243.934 31.7385 243.884 32.3888 243.777 33.0312C243.024 33.7144 242.092 34.1693 241.09 34.3429C241.031 34.4891 240.996 34.6443 240.989 34.8019C240.989 34.8793 241.013 35.1364 241.062 35.164H241.549C242.063 35.164 243.241 35.0866 244.007 35.0866C245.135 35.0866 245.901 35.164 246.952 35.164H248.488C248.589 35.1364 248.619 34.8295 248.619 34.7285C248.617 34.5873 248.591 34.4474 248.541 34.3153C247.358 34.1772 246.266 33.613 245.468 32.7282C245.242 31.686 245.131 30.6219 245.138 29.5554C245.138 28.7395 245.11 27.6102 245.11 26.1018C245.11 24.0753 245.138 22.3085 245.16 21.4153C245.316 21.5937 245.494 21.8232 245.623 21.9793L257.45 35.265C257.573 35.3961 258.038 35.4158 258.165 35.4158C258.27 35.4254 258.375 35.4083 258.472 35.3659C258.626 35.0017 258.704 34.6098 258.701 34.2143C258.701 33.4759 258.674 32.7059 258.674 32.3203V21.6435C258.674 18.4418 260.187 17.5433 261.953 17.4699C262.023 17.3175 262.058 17.1511 262.054 16.9833M232.716 25.1155C232.716 28.9861 231.643 32.3898 230.185 33.5913C229.418 34.21 228.455 34.5354 227.47 34.5094C226.802 34.5455 226.137 34.4061 225.54 34.1051C224.943 33.8041 224.435 33.352 224.067 32.7938C223.006 30.7403 222.485 28.4504 222.554 26.1399C222.554 22.5814 223.472 19.7928 225.113 18.4353C225.853 17.7935 226.799 17.4388 227.778 17.4358C228.457 17.4315 229.127 17.5895 229.733 17.8966C230.338 18.2036 230.862 18.651 231.259 19.2013C232.356 20.9688 232.867 23.0378 232.718 25.1128M237.349 25.6034C237.421 23.9813 237.032 22.3721 236.226 20.9627C235.42 19.5533 234.23 18.4017 232.795 17.6417C231.313 16.792 229.637 16.3401 227.929 16.3301C226.21 16.3501 224.523 16.7953 223.017 17.6258C221.512 18.4564 220.236 19.6465 219.302 21.09C218.335 22.6422 217.822 24.4343 217.821 26.2631C217.822 27.7088 218.152 29.1354 218.786 30.4346C219.42 31.7339 220.342 32.8717 221.481 33.7618C223.174 34.9963 225.224 35.6434 227.319 35.6047C228.65 35.6037 229.97 35.3518 231.208 34.8623C232.57 34.3455 233.79 33.5125 234.766 32.4318C236.468 30.5671 237.392 28.1222 237.349 25.5981M214.847 22.382V17.163C214.847 16.7773 214.696 16.6764 214.31 16.6764C213.54 16.6764 209.499 16.7773 205.404 16.7773C202.226 16.7773 199.59 16.7275 198.159 16.7275H196.259C195.929 16.7275 195.828 16.801 195.828 17.163V22.0515C195.951 22.1243 196.093 22.1594 196.236 22.1525C196.425 22.1609 196.615 22.1442 196.8 22.1026C197.488 20.3194 198.749 18.8156 200.386 17.828C201.152 17.7506 202.66 17.727 203.068 17.727C203.096 18.0064 203.123 18.9075 203.145 19.9791C203.173 21.8154 203.173 22.6155 203.173 26.9636C203.173 30.7293 203.145 32.4213 203.096 32.8292C202.995 33.5441 203.123 34.0818 200.05 34.2091C199.985 34.3977 199.958 34.5976 199.973 34.7967C199.968 34.935 199.977 35.0734 200 35.2099H200.996C201.945 35.2099 204.169 35.1049 205.096 35.1049C205.834 35.1049 208.219 35.1823 209.778 35.1823H210.493C210.557 35.011 210.583 34.8281 210.571 34.6459C210.576 34.4868 210.541 34.3291 210.47 34.1868C209.564 34.253 208.656 34.0854 207.833 33.7002C207.677 33.0717 207.598 32.4263 207.6 31.7786C207.576 29.0124 207.55 27.963 207.55 26.1189C207.55 23.7382 207.578 22.1289 207.578 17.6981C207.936 17.6981 208.758 17.6706 209.521 17.6981C210.744 17.9424 211.831 18.6359 212.567 19.642C213.134 20.5142 213.591 21.453 213.928 22.4371C214.07 22.4747 214.217 22.4902 214.364 22.483C214.531 22.4813 214.696 22.447 214.851 22.382M192.786 30.7017C192.793 30.4553 192.784 30.2086 192.759 29.9633C192.643 29.8926 192.507 29.8652 192.373 29.8859C192.184 29.8776 191.994 29.8944 191.809 29.9357C191.213 31.4565 190.245 32.8032 188.993 33.8523C188.385 34.1034 187.725 34.1994 187.071 34.1317H184.973C184.407 34.1413 183.842 34.0974 183.285 34.0005C182.899 33.9271 182.498 33.3132 182.313 32.9053C182.052 32.4098 181.953 31.8454 182.028 31.2907V25.6847H182.978C183.516 25.7008 184.047 25.8239 184.537 26.0467C185.034 26.2595 185.442 26.6389 185.689 27.1197C185.921 27.8067 186.068 28.52 186.124 29.2432C186.338 29.3206 186.566 29.3549 186.793 29.3442C186.971 29.3539 187.149 29.3105 187.302 29.2196C187.302 28.527 187.146 26.6606 187.146 25.6336C187.146 24.3547 187.324 22.5879 187.408 21.6658C187.249 21.5925 187.075 21.5579 186.899 21.5648C186.675 21.5504 186.45 21.5766 186.234 21.6422C186.157 21.9951 185.872 23.0732 185.821 23.1506C185.425 23.7919 184.806 24.2652 184.083 24.4806C183.597 24.605 183.099 24.674 182.597 24.6866H182.056V22.3046C182.056 19.8505 182.105 19.057 182.129 18.594C182.157 18.287 182.206 17.9565 182.234 17.727C182.744 17.6697 183.257 17.6513 183.77 17.6719C185.251 17.6719 185.943 17.6994 186.173 17.6994C186.76 17.6981 187.333 17.8777 187.815 18.2136C188.825 19.1084 189.657 20.1852 190.269 21.3878C190.447 21.4281 190.629 21.4449 190.811 21.4376C190.962 21.4376 190.989 21.3878 191.196 21.2815C191.196 19.722 191.091 17.6994 191.04 17.058C191.013 16.7957 190.963 16.7275 190.453 16.7275C190.247 16.7275 189.272 16.6777 188.252 16.6777C186.793 16.6777 186.202 16.7013 183.973 16.7013C182.772 16.7013 180.286 16.7288 179.236 16.7288C177.704 16.7288 176.397 16.679 175.732 16.679H174.861C174.783 16.8012 174.738 16.9418 174.73 17.0869C174.733 17.2645 174.778 17.4388 174.861 17.5958C175.491 17.6452 176.117 17.7404 176.733 17.8804C177.006 18.066 177.232 18.3135 177.391 18.6028C177.551 18.892 177.64 19.2148 177.651 19.5449C177.706 20.0814 177.728 21.5675 177.728 22.7466V28.0168C177.728 29.095 177.705 30.6532 177.679 31.2959C177.632 32.132 177.442 32.954 177.119 33.7264C176.378 33.9884 175.597 34.119 174.811 34.112C174.731 34.2896 174.686 34.4812 174.68 34.676C174.684 34.8377 174.729 34.9958 174.811 35.1351H175.655C176.476 35.1351 179.494 35.0577 180.187 35.0577C180.828 35.0577 182.058 35.1076 183.539 35.1076C184.36 35.1076 186.768 35.2636 191.934 35.2636C192.166 35.2842 192.399 35.2674 192.626 35.2138C192.698 35.0884 192.733 34.9451 192.727 34.8006C192.782 34.2917 192.782 32.7781 192.782 30.7057M171.127 31.6042C171.073 31.4183 170.957 31.2563 170.799 31.1447C170.641 31.0332 170.449 30.9787 170.256 30.9903C170.201 30.9903 170.125 31.0139 170.078 31.0139C169.551 31.9154 168.799 32.665 167.897 33.1898C166.994 33.7145 165.971 33.9966 164.927 34.0084C163.829 34.0139 162.754 33.6966 161.835 33.0958C160.915 32.4951 160.193 31.6375 159.758 30.6296C159.233 29.1338 158.967 27.5597 158.971 25.9746C158.919 24.4446 159.18 22.9201 159.737 21.494C160.865 18.5271 162.503 17.5997 164.502 17.5997C165.317 17.6388 166.112 17.8678 166.823 18.2683C167.534 18.6689 168.141 19.23 168.597 19.9069C169.182 20.8706 169.62 21.9155 169.899 23.0077C170.084 23.0518 170.273 23.0764 170.463 23.0811C170.684 23.0584 170.896 22.9794 171.077 22.8516C171.055 22.5669 170.798 20.5995 170.798 19.9856C170.798 19.2157 171 17.9631 171 17.4765C170.697 17.2993 170.355 17.2014 170.004 17.1918C169.67 17.5024 169.377 17.8551 169.133 18.2411C167.524 16.9643 165.503 16.3184 163.451 16.4245C162.264 16.3886 161.082 16.5945 159.978 17.0297C158.873 17.4649 157.868 18.1203 157.024 18.956C156.1 19.9084 155.381 21.0397 154.91 22.2802C154.44 23.5208 154.227 24.8445 154.287 26.17C154.245 27.6398 154.55 29.0986 155.177 30.4285C155.805 31.7584 156.736 32.9219 157.896 33.8248C159.658 35.0053 161.744 35.6065 163.863 35.5443C165.094 35.6287 166.328 35.4247 167.467 34.9486C168.605 34.4725 169.617 33.7374 170.421 32.8017C170.713 32.4346 170.955 32.0306 171.141 31.6002M151.208 16.9885C151.21 16.8636 151.183 16.7399 151.131 16.6265H150.539C149.261 16.6265 148.441 16.6816 146.136 16.6816C145.349 16.6816 144.169 16.6265 143.884 16.6265H143.219C143.142 16.6816 143.114 16.961 143.114 17.062C143.105 17.2181 143.151 17.3726 143.245 17.4974C144.152 17.6349 145.038 17.8842 145.883 18.2398C146.364 19.0273 146.619 19.9314 146.622 20.8539C146.649 21.2343 146.677 21.6199 146.677 22.6706V28.0181C146.682 28.3857 146.663 28.7533 146.622 29.1186C146.19 28.632 145.572 27.7151 144.549 26.5596L136.005 17.0895C135.893 16.9601 135.764 16.8474 135.62 16.7551C135.414 16.7551 135.056 16.7314 134.854 16.7314C133.211 16.7314 130.244 16.6541 129.809 16.6541C129.752 16.7657 129.718 16.8873 129.708 17.0121C129.723 17.1756 129.748 17.3381 129.781 17.4988C130.507 17.6154 131.179 17.9551 131.703 18.4707C132.22 18.9511 132.676 19.4934 133.061 20.0853C133.145 20.3504 133.179 20.6288 133.162 20.9064C133.162 22.2364 133.088 24.1029 133.088 25.8906V31.0874C133.093 31.7386 133.04 32.389 132.932 33.0312C132.179 33.7144 131.247 34.1693 130.244 34.3429C130.187 34.4898 130.153 34.6446 130.143 34.8019C130.143 34.8793 130.167 35.1364 130.217 35.164H130.704C131.218 35.164 132.396 35.0866 133.162 35.0866C134.29 35.0866 135.056 35.164 136.106 35.164H137.638C137.739 35.1364 137.769 34.8295 137.769 34.7285C137.768 34.5873 137.742 34.4474 137.692 34.3153C136.51 34.1768 135.42 33.6126 134.624 32.7282C134.4 31.6856 134.289 30.6218 134.294 29.5554C134.294 28.7395 134.266 27.6102 134.266 26.1018C134.266 24.0753 134.294 22.3085 134.316 21.4153C134.472 21.5937 134.65 21.8232 134.779 21.9793L146.602 35.265C146.823 35.3757 147.07 35.4277 147.317 35.4158C147.422 35.4262 147.528 35.409 147.624 35.3659C147.778 35.0017 147.856 34.6098 147.853 34.2143C147.853 33.4759 147.826 32.7059 147.826 32.3203V21.6435C147.826 18.4418 149.339 17.5433 151.105 17.4699C151.176 17.3177 151.212 17.1513 151.21 16.9833M125.895 34.7219C125.896 34.5476 125.87 34.3741 125.818 34.2078C125.183 34.1652 124.55 34.0886 123.924 33.9782C123.461 33.4131 123.16 32.7332 123.053 32.0108C123.03 30.7818 123.003 28.245 123.003 25.8697V19.5738C122.979 19.072 123.144 18.5795 123.466 18.1939C124.15 17.7657 124.939 17.5355 125.746 17.5289C125.794 17.3713 125.819 17.2073 125.819 17.0423C125.817 16.8947 125.771 16.7511 125.688 16.6291H124.945C123.873 16.6291 121.363 16.7603 120.486 16.7603C119.949 16.7603 117.44 16.6868 116.312 16.6593H115.752C115.655 16.7828 115.608 16.9383 115.621 17.0948C115.625 17.258 115.642 17.4207 115.671 17.5814C116.352 17.5738 117.029 17.6953 117.666 17.9395C117.954 18.2211 118.179 18.5612 118.326 18.937C118.472 19.3127 118.537 19.7154 118.514 20.1181C118.538 20.6047 118.56 21.654 118.588 24.0071C118.615 25.2873 118.638 27.0803 118.638 28.5611C118.638 29.3035 118.588 30.9693 118.56 31.8678C118.536 32.3968 118.416 32.9171 118.208 33.4037C117.901 33.6556 117.588 34.1186 115.715 34.2471C115.665 34.4215 115.639 34.602 115.638 34.7836C115.638 34.9895 115.688 35.0905 115.688 35.219H116.123C117.15 35.219 119.709 35.0879 121.039 35.0879C121.425 35.0879 124.085 35.1653 124.928 35.1653H125.786C125.851 35.0293 125.886 34.8806 125.887 34.7298M105.36 21.3602C105.377 22.1388 105.166 22.9054 104.753 23.5655C104.34 24.2256 103.742 24.7503 103.035 25.0748C102.345 25.2254 101.641 25.2932 100.936 25.2768C100.619 25.2841 100.301 25.2674 99.9862 25.227L99.9587 23.0483V18.3369C99.9397 18.1361 99.9953 17.9353 100.115 17.7729C100.46 17.6478 100.827 17.5964 101.193 17.622C103.188 17.622 104.059 17.8004 104.775 19.0071C105.181 19.7235 105.384 20.537 105.363 21.3602M112.788 34.7521C112.785 34.564 112.74 34.3789 112.657 34.2104C112.077 34.225 111.5 34.1122 110.969 33.8799C110.809 33.6763 110.663 33.462 110.533 33.2385C110.223 32.2367 109.855 31.2536 109.433 30.2938C108.997 29.1695 108.354 28.1366 107.539 27.2482C106.939 26.8825 106.292 26.5989 105.617 26.4048C105.209 26.2487 104.875 26.1202 104.568 25.9916C104.914 25.9208 105.265 25.8704 105.617 25.8408C106.636 25.8488 107.627 25.5144 108.433 24.8912C108.943 24.503 109.353 23.9989 109.629 23.4206C109.905 22.8424 110.039 22.2066 110.02 21.5662C110.031 20.5545 109.729 19.5641 109.156 18.7303C108.583 17.8964 107.767 17.2598 106.819 16.9072C105.812 16.6859 104.781 16.5903 103.751 16.6226C101.829 16.6226 99.1416 16.801 97.8627 16.801C97.4771 16.801 95.2486 16.7511 94.3541 16.7511C93.9684 16.7511 92.9965 16.7013 92.8457 16.7013C92.7748 16.8549 92.7305 17.0195 92.7145 17.1879C92.7177 17.3434 92.7343 17.4983 92.7644 17.6509C93.1998 17.7007 93.9934 17.8017 94.4013 17.8804C94.8886 18.223 95.2622 18.7036 95.4742 19.2603C95.6372 21.4331 95.6893 23.6128 95.6303 25.791C95.6303 28.3998 95.6578 31.4232 95.5293 32.3951C95.5249 32.749 95.4251 33.0952 95.2404 33.3971C95.0557 33.699 94.793 33.9456 94.48 34.1107C93.9971 34.1948 93.5103 34.2543 93.0214 34.2891C92.942 34.4475 92.8973 34.621 92.8903 34.798C92.9055 34.9396 92.9395 35.0785 92.9913 35.2112C93.3533 35.2112 97.2698 35.1338 98.087 35.1338C99.7239 35.1338 101.104 35.2112 102.568 35.2112C102.624 35.0897 102.658 34.9591 102.669 34.8256C102.667 34.6422 102.633 34.4605 102.568 34.2891C102.053 34.2392 101.416 34.0832 101.133 34.0268C100.791 33.8654 100.505 33.6071 100.309 33.284C100.113 32.961 100.017 32.5875 100.032 32.2101L100.014 26.3012C100.235 26.2817 100.457 26.2739 100.679 26.2776C101.159 26.2837 101.628 26.4251 102.032 26.6855C102.873 27.1011 103.576 27.7488 104.059 28.552C104.931 30.273 105.477 32.1409 105.668 34.0609C105.746 34.5973 105.948 35.0564 106.438 35.1102C106.64 35.1377 107.998 35.1876 108.97 35.1876H112.634C112.732 35.0648 112.785 34.9128 112.785 34.756M84.9837 21.4875C85.0057 22.0829 84.9009 22.6763 84.6764 23.2282C84.4519 23.7802 84.1127 24.2782 83.6812 24.6892C82.8957 25.2111 81.9573 25.4532 81.0173 25.3765C80.6498 25.3842 80.2822 25.3675 79.9168 25.3266C79.7109 25.3043 79.5824 25.2768 79.5824 25.1483L79.6099 17.6496C80.1017 17.572 80.5982 17.5282 81.096 17.5184C82.8339 17.5184 83.9121 17.9539 84.421 19.0268C84.7985 19.7908 84.9917 20.6327 84.985 21.4848M89.5666 21.5858C89.5764 20.6615 89.3248 19.7533 88.8406 18.9659C88.3565 18.1784 87.6597 17.5439 86.8305 17.1354C85.3516 16.6631 83.7991 16.464 82.2489 16.5478C80.2815 16.5478 77.2044 16.6986 75.8507 16.6986C74.8946 16.7 73.4636 16.595 72.6648 16.595C72.5899 16.7189 72.545 16.8586 72.5336 17.003C72.5229 17.1779 72.5493 17.3531 72.611 17.5171C73.0976 17.668 73.8898 17.7965 74.404 17.925C74.8099 18.3064 75.0556 18.8278 75.0913 19.3836C75.1687 20.2821 75.2225 21.4061 75.2225 23.3513C75.2225 28.754 75.1989 31.5976 75.1215 32.2114C75.0749 32.6211 74.9132 33.0093 74.655 33.3308C74.3969 33.6523 74.0529 33.8941 73.6629 34.0281C73.1726 34.1418 72.6765 34.2293 72.1768 34.2904C72.144 34.4673 72.1273 34.6469 72.127 34.8269C72.1209 34.9505 72.1461 35.0737 72.2005 35.1849C73.0215 35.1849 75.4297 35.0839 76.3505 35.0839C78.6301 35.0839 80.9596 35.1849 81.904 35.1849H82.5467C82.612 35.0595 82.639 34.9176 82.6241 34.777C82.6361 34.6206 82.6174 34.4633 82.569 34.314C81.7025 34.2992 80.8624 34.0139 80.166 33.4982C79.81 33.0765 79.6263 32.5359 79.6519 31.9845L79.5745 26.3576C81.1104 26.4586 82.7487 26.5084 83.6406 26.5084C84.6473 26.5092 85.6481 26.3544 86.6075 26.0494C87.4931 25.6929 88.2492 25.0753 88.7752 24.2787C89.3012 23.4821 89.5722 22.5442 89.5521 21.5898" fill="black"/>
<path d="M262.459 45.5327C262.459 45.3818 262.358 45.3307 262.308 45.2257C261.258 45.2257 259.877 45.3031 259.336 45.3031C258.033 45.3031 256.45 45.1982 255.754 45.1982C255.676 45.3543 255.649 45.3818 255.649 45.5104C255.649 45.6151 255.668 45.719 255.704 45.8173C256.446 45.9681 257.52 46.1478 257.726 46.5046C257.894 46.8099 257.974 47.156 257.956 47.5041C257.967 47.8278 257.914 48.1505 257.8 48.4537C257.57 49.0912 257.085 50.0906 256.396 51.4993C255.216 53.88 254.475 55.3608 254.062 55.9589C253.397 54.8309 251.916 51.864 251.558 51.098L250.121 47.9749C250.054 47.7503 250.02 47.517 250.02 47.2824C250.009 47.0562 250.043 46.83 250.121 46.6174C250.351 46.1544 251.144 46.1032 252.22 45.9747C252.266 45.8513 252.291 45.7209 252.293 45.5891C252.293 45.4107 252.22 45.4579 252.143 45.3372H251.684C249.964 45.3372 250.477 45.4107 247.533 45.4107C246.281 45.4107 244.767 45.3372 244.567 45.3372C244.462 45.5156 244.41 45.5392 244.41 45.7176C244.412 45.8284 244.449 45.9359 244.515 46.0245C246.221 46.4377 246.745 46.7394 246.918 47.0739L251.399 55.8619C251.739 56.4707 252.014 57.1134 252.22 57.7795C252.399 58.7934 252.468 59.8238 252.426 60.8527C252.47 61.2235 252.417 61.5994 252.273 61.944C252.129 62.2886 251.899 62.5903 251.605 62.8201C250.932 62.9898 250.246 63.1017 249.555 63.1546C249.474 63.2571 249.428 63.3825 249.424 63.5127C249.433 63.6184 249.459 63.722 249.501 63.8196C250.813 63.8196 252.166 63.792 252.931 63.792C253.467 63.792 254.288 63.8196 255.797 63.8419C256.668 63.8694 257.333 63.897 257.792 63.897C257.862 63.798 257.908 63.6831 257.923 63.5625C257.924 63.4427 257.888 63.3256 257.818 63.228C257.049 63.1987 256.292 63.0242 255.588 62.7139C255.357 62.5126 255.177 62.2601 255.06 61.9766C254.944 61.6931 254.896 61.3864 254.919 61.0809L254.717 57.2378C254.708 57.0283 254.742 56.8192 254.818 56.6239C254.889 56.3774 254.982 56.1381 255.098 55.9091L259.042 48.0982C259.452 47.4138 260.012 46.8309 260.679 46.3931C261.21 46.1534 261.769 45.9807 262.343 45.8789C262.399 45.7753 262.433 45.6616 262.444 45.5445M241.765 50.8186V45.8409C241.765 45.4553 241.609 45.3543 241.223 45.3543C240.457 45.3543 236.921 45.4553 232.829 45.4553C229.655 45.4553 227.531 45.4054 226.096 45.4054H224.202C223.871 45.4054 223.767 45.4828 223.767 45.8409V50.4736C223.853 50.545 223.962 50.5823 224.073 50.5786C224.178 50.5868 224.284 50.5697 224.38 50.5287C225.38 48.2989 225.889 47.1184 227.61 46.2501C228.376 46.1767 231.063 46.1491 231.471 46.1491C231.499 46.4338 231.526 47.3296 231.549 48.4012C231.576 50.2441 231.576 51.2449 231.576 55.5969C231.576 59.3574 231.549 61.3065 231.499 61.7144C231.398 62.4292 231.526 62.967 228.453 63.0943C228.388 63.2296 228.361 63.3802 228.376 63.5297C228.371 63.6328 228.38 63.736 228.403 63.8366H229.399C230.348 63.8366 231.6 63.7356 232.522 63.7356C233.264 63.7356 234.673 63.813 236.236 63.813H236.951C237.014 63.6948 237.041 63.5607 237.029 63.4274C237.035 63.2997 236.998 63.1735 236.924 63.0693C236.018 63.1348 235.11 62.9673 234.287 62.5827C234.132 61.954 234.055 61.3087 234.058 60.6612C234.034 57.8962 234.008 56.5951 234.008 54.7496C234.008 52.369 234.035 50.5523 234.035 46.1229C234.393 46.1229 236.287 46.0954 237.052 46.1229C238.231 46.3682 239.267 47.0661 239.938 48.0668C240.492 48.9165 240.882 49.8622 241.089 50.8553C241.214 50.8966 241.344 50.9135 241.475 50.9052C241.578 50.9021 241.678 50.8668 241.76 50.8042M220.485 63.4484C220.486 63.3248 220.459 63.2025 220.407 63.0903C219.772 63.0474 219.14 62.9708 218.513 62.8608C218.051 62.2956 217.75 61.6157 217.642 60.8933C217.62 59.6643 217.593 56.8758 217.593 54.4951V47.9907C217.572 47.4901 217.735 46.9993 218.052 46.6108C218.735 46.1814 219.524 45.9494 220.331 45.9406C220.381 45.8375 220.408 45.7247 220.41 45.6101C220.41 45.5527 220.398 45.496 220.376 45.4433C220.353 45.3906 220.32 45.3429 220.279 45.3031H219.54C218.462 45.3031 216.926 45.4343 216.055 45.4343C215.519 45.4343 213.983 45.3569 212.855 45.3333H212.291C212.245 45.374 212.209 45.4254 212.188 45.4831C212.166 45.5408 212.159 45.6028 212.168 45.6638C212.173 45.7767 212.19 45.8888 212.218 45.9983C212.899 45.9905 213.576 46.112 214.213 46.3564C214.501 46.638 214.726 46.9781 214.873 47.3538C215.019 47.7296 215.083 48.1324 215.061 48.535C215.085 49.0164 215.107 50.3241 215.135 52.6811C215.162 53.9613 215.184 55.6979 215.184 57.1853C215.184 57.9277 215.135 59.8453 215.107 60.7438C215.083 61.2729 214.964 61.7933 214.754 62.2797C214.442 62.5421 214.135 62.9946 212.269 63.1231C212.219 63.2456 212.193 63.3765 212.191 63.5087C212.191 63.7147 212.241 63.7147 212.241 63.8393H212.677C213.704 63.8393 215.291 63.716 216.621 63.716C217.006 63.716 218.693 63.7894 219.542 63.7894H220.381C220.448 63.6906 220.485 63.5744 220.487 63.455M207.839 58.7448C207.866 57.7902 207.604 56.8497 207.088 56.0462C206.571 55.2427 205.825 54.6135 204.946 54.2407C204.039 53.7982 203.088 53.4551 202.107 53.2176C200.823 52.88 199.578 52.4078 198.393 51.8089C197.912 51.5242 197.517 51.1139 197.251 50.6219C196.986 50.13 196.859 49.5749 196.884 49.0164C196.984 48.1482 197.415 47.352 198.088 46.794C198.76 46.236 199.622 45.9594 200.494 46.0219C201.18 46.0195 201.856 46.1809 202.466 46.4928C203.076 46.8047 203.603 47.258 204.003 47.8149C204.654 48.7155 205.188 49.6958 205.59 50.732C205.73 50.7909 205.886 50.8031 206.034 50.7667C206.182 50.7303 206.314 50.6473 206.411 50.53C206.298 49.7656 206.229 48.9952 206.205 48.2228C206.232 47.5529 206.31 46.886 206.438 46.2278C206.358 46.1008 206.242 45.9995 206.106 45.9361C205.969 45.8726 205.818 45.8496 205.669 45.8698C205.299 46.1336 204.963 46.442 204.669 46.7879C203.468 45.7334 201.915 45.166 200.317 45.1969C199.637 45.1437 198.953 45.23 198.307 45.4506C197.662 45.6711 197.068 46.0212 196.562 46.4795C196.057 46.9377 195.65 47.4944 195.368 48.1153C195.085 48.7363 194.932 49.4085 194.918 50.0906C194.95 51.1016 195.279 52.0809 195.863 52.9067C196.498 53.7538 197.363 54.4014 198.355 54.7732C199.093 55.0801 202.421 56.0848 202.881 56.2593C204.931 57.0463 205.701 57.7454 205.701 59.562C205.652 60.5325 205.251 61.4519 204.573 62.1486C204.219 62.5483 203.78 62.8637 203.288 63.0716C202.796 63.2795 202.263 63.3746 201.73 63.35C200.919 63.3562 200.117 63.1906 199.376 62.8641C198.634 62.5376 197.97 62.0577 197.427 61.456C196.667 60.4039 196.08 59.2366 195.69 57.9985C195.574 57.9607 195.453 57.9451 195.331 57.9526C195.158 57.9529 194.988 58.0055 194.845 58.1035C194.845 58.4379 194.946 60.126 194.946 60.6349C194.935 61.4039 194.841 62.1695 194.666 62.9185C194.747 63.0673 194.866 63.1924 195.01 63.2817C195.154 63.3709 195.318 63.4211 195.488 63.4274C195.85 63.0655 196.286 62.7855 196.766 62.6063C196.987 62.6266 197.198 62.7074 197.376 62.8398C198.638 63.695 200.131 64.1415 201.655 64.1186C205.265 64.1186 207.846 62.2981 207.846 58.7409M185.203 49.907C185.182 50.7543 184.901 51.5746 184.398 52.257C183.895 52.9394 183.195 53.451 182.392 53.7226C181.512 53.873 180.621 53.9407 179.728 53.9246C179.421 53.9246 178.548 53.9246 178.165 53.8747L178.141 51.6226V46.7892C178.141 46.4548 178.219 46.2751 178.32 46.1977C178.909 46.0854 179.509 46.0349 180.109 46.0468C182.517 46.0468 183.617 46.2764 184.488 47.5277C184.971 48.2259 185.221 49.0584 185.203 49.907ZM190.581 63.4733C190.58 63.3351 190.536 63.2005 190.456 63.0877C189.875 63.1022 189.297 62.9894 188.764 62.7572C188.606 62.5521 188.46 62.3375 188.329 62.1145C188.027 61.0309 187.669 59.9639 187.256 58.918C186.821 57.7918 186.179 56.7573 185.362 55.8684C184.79 55.5014 184.169 55.2175 183.518 55.025C183.11 54.8689 182.775 54.7456 182.468 54.6171C182.815 54.5465 183.165 54.4944 183.518 54.461C184.499 54.4375 185.448 54.1073 186.233 53.5166C186.755 53.1388 187.18 52.6427 187.473 52.0688C187.767 51.495 187.92 50.8598 187.921 50.2152C187.931 49.2066 187.629 48.2196 187.056 47.3895C186.483 46.5594 185.667 45.9268 184.72 45.5786C183.711 45.3596 182.679 45.2658 181.647 45.2992C179.73 45.2992 178.295 45.4776 177.014 45.4776C176.634 45.4776 175.377 45.4277 174.483 45.4277C174.097 45.4277 173.125 45.3779 172.969 45.3779C172.896 45.5563 172.838 45.6074 172.838 45.7084C172.843 45.8295 172.861 45.9497 172.893 46.0665C173.325 46.1216 174.118 46.2226 174.53 46.3C175.018 46.6415 175.392 47.1224 175.603 47.6798C175.734 48.5009 175.759 50.8029 175.759 54.4125C175.759 57.0213 175.783 60.3005 175.654 61.2737C175.653 61.6282 175.554 61.9754 175.369 62.2779C175.184 62.5803 174.92 62.8263 174.605 62.9893C174.122 63.0736 173.635 63.1331 173.146 63.1677C173.07 63.2722 173.024 63.3964 173.015 63.5258C173.032 63.6335 173.068 63.7374 173.121 63.8327C173.48 63.8327 176.423 63.7553 177.24 63.7553C178.882 63.7553 179.29 63.8327 180.749 63.8327C180.805 63.7492 180.841 63.6534 180.854 63.5533C180.853 63.4178 180.817 63.2848 180.749 63.1677C180.24 63.1179 179.597 62.9618 179.314 62.9159C178.973 62.7528 178.688 62.4935 178.493 62.1699C178.298 61.8463 178.202 61.4727 178.217 61.0953L178.19 54.6971C178.396 54.6696 179.134 54.6696 179.341 54.6696C180.041 54.6358 180.74 54.7581 181.386 55.0277C182.406 55.4623 183.278 56.1819 183.899 57.1C184.77 58.8475 185.318 60.7384 185.514 62.6811C185.587 63.2175 185.793 63.6806 186.28 63.7304C186.773 63.7934 187.269 63.8192 187.766 63.8078H190.426C190.474 63.7663 190.512 63.7148 190.538 63.6571C190.564 63.5994 190.577 63.5367 190.577 63.4733M169.1 59.5843C169.106 59.3366 169.098 59.0887 169.076 58.8419C168.961 58.7712 168.824 58.7438 168.691 58.7645C168.577 58.7567 168.463 58.7737 168.356 58.8144C167.977 60.3947 167.04 61.7852 165.719 62.7309C165.026 62.9927 164.282 63.0901 163.545 63.0156H160.675C160.109 63.0116 159.544 62.9677 158.983 62.8844C158.603 62.807 158.196 62.1918 158.015 61.7839C157.761 61.2324 157.663 60.6219 157.731 60.0185V54.1869H158.552C159.294 54.1452 160.036 54.2675 160.725 54.545C161.283 54.7684 161.763 55.1512 162.105 55.6454C162.314 56.3353 162.436 57.0487 162.467 57.769C162.587 57.85 162.731 57.887 162.875 57.8739C163.022 57.8809 163.167 57.8343 163.283 57.7428C163.283 57.0502 163.132 55.1837 163.132 54.1567C163.132 52.8779 163.31 51.3183 163.384 50.3962C163.263 50.3187 163.119 50.2833 162.976 50.2952C162.836 50.2818 162.695 50.3072 162.568 50.3687C162.491 50.7268 162.283 51.8036 162.237 51.8823C161.749 52.5386 161.057 53.0157 160.27 53.2399C159.582 53.395 158.877 53.4629 158.171 53.4419H157.763V50.9353C157.763 48.4773 157.813 47.4818 157.837 47.0188C157.864 46.7118 157.914 46.3813 157.942 46.1478C158.171 46.1242 158.914 46.098 160.093 46.098C161.574 46.098 162.676 46.1255 162.909 46.1255C163.494 46.1254 164.064 46.3029 164.546 46.6345C165.613 47.4357 166.409 48.545 166.826 49.8126C166.924 49.8489 167.028 49.8645 167.133 49.8585C167.283 49.8585 167.311 49.8126 167.513 49.7076C167.513 48.1481 167.412 46.3826 167.362 45.7412C167.335 45.4789 167.285 45.4068 166.771 45.4068C166.569 45.4068 165.59 45.3569 164.574 45.3569C163.111 45.3569 162.523 45.3845 160.295 45.3845C159.093 45.3845 156.97 45.4081 155.919 45.4081C154.383 45.4081 154.048 45.3582 153.383 45.3582H152.512C152.436 45.4435 152.39 45.5513 152.38 45.6651C152.384 45.7956 152.43 45.9214 152.512 46.0232C153.142 46.0723 153.767 46.1674 154.383 46.3079C154.741 46.6148 155.072 46.6935 155.302 47.9172C155.351 48.4589 155.379 50.1969 155.379 51.3747V56.6488C155.379 57.7218 155.351 59.4925 155.324 60.1299C155.276 60.9829 155.086 61.8219 154.76 62.6116C154.021 62.874 153.242 63.0045 152.458 62.9972C152.379 63.1212 152.334 63.2636 152.327 63.4104C152.33 63.5392 152.376 63.6633 152.458 63.7632H153.301C154.122 63.7632 156.172 63.6897 156.86 63.6897C157.502 63.6897 158.368 63.7396 159.854 63.7396C160.675 63.7396 163.078 63.8957 168.249 63.8957C168.481 63.9143 168.715 63.8957 168.941 63.8406C169.013 63.7171 169.048 63.5755 169.042 63.4327C169.092 62.9237 169.092 61.6672 169.092 59.5935M150.157 45.6114C150.157 45.5104 150.13 45.349 150.026 45.332H149.155C148.541 45.332 147.568 45.3818 147.133 45.3818C145.059 45.3818 144.317 45.2507 144.01 45.2507H143.551C143.495 45.3818 143.419 45.4527 143.419 45.5812C143.419 45.6822 143.474 45.7596 143.474 45.8658C144.074 45.9344 144.665 46.0618 145.24 46.2462C145.647 46.6861 145.876 47.2615 145.883 47.8608C145.774 48.6601 145.566 49.4427 145.264 50.1903L141.145 60.3254L136.082 47.5028C136.106 47.216 136.193 46.9381 136.338 46.6897C136.484 46.4414 136.683 46.2288 136.921 46.0678C137.471 45.9599 138.027 45.8923 138.586 45.8658C138.642 45.754 138.676 45.6325 138.687 45.5077C138.687 45.4028 138.663 45.2454 138.556 45.2231H137.914C137.127 45.2231 135.925 45.3281 134.567 45.3281C133.979 45.3281 132.829 45.273 131.701 45.273H130.702C130.64 45.3634 130.605 45.4696 130.601 45.5791C130.596 45.6887 130.623 45.7971 130.678 45.8921C131.431 46.0838 132.154 46.3754 132.829 46.7591C133.616 48.2713 134.317 49.8268 134.928 51.418L137.046 56.5334C138.812 60.7844 139.862 63.6281 139.991 64.1147C140.122 64.1921 139.991 64.2655 140.22 64.2655C140.45 64.2655 140.426 64.2157 140.483 64.0872L147.087 48.2163C147.307 47.6812 147.618 47.1878 148.005 46.7577C148.599 46.3028 149.306 46.0188 150.05 45.9367C150.102 45.8324 150.137 45.721 150.156 45.6061M127.733 63.4445C127.737 63.3206 127.71 63.1978 127.656 63.0864C127.021 63.0437 126.389 62.9671 125.762 62.8568C125.301 62.2906 125 61.6112 124.891 60.8894C124.868 59.6604 124.841 56.8718 124.841 54.4912V47.9907C124.817 47.4889 124.982 46.9964 125.304 46.6108C125.986 46.1814 126.773 45.9494 127.579 45.9406C127.63 45.8381 127.657 45.7248 127.656 45.6101C127.656 45.5527 127.644 45.496 127.622 45.4433C127.599 45.3906 127.566 45.3429 127.525 45.3031H126.781C125.708 45.3031 124.172 45.4343 123.3 45.4343C122.764 45.4343 121.228 45.3569 120.104 45.3333H119.54C119.491 45.3725 119.454 45.4234 119.431 45.4814C119.408 45.5393 119.4 45.6021 119.408 45.6638C119.413 45.7767 119.43 45.8888 119.458 45.9983C120.14 45.9912 120.817 46.1127 121.453 46.3564C121.742 46.638 121.967 46.9781 122.113 47.3538C122.26 47.7296 122.324 48.1324 122.302 48.535C122.326 49.0164 122.352 50.3241 122.375 52.6811C122.403 53.9613 122.43 55.6979 122.43 57.1853C122.43 57.9277 122.375 59.8453 122.353 60.7438C122.329 61.2738 122.206 61.7947 121.991 62.2797C121.688 62.5421 121.381 62.9946 119.509 63.1231C119.46 63.2456 119.433 63.3765 119.432 63.5087C119.432 63.7147 119.487 63.7147 119.487 63.8393H119.919C120.946 63.8393 122.533 63.716 123.863 63.716C124.248 63.716 125.935 63.7894 126.78 63.7894H127.629C127.694 63.6903 127.729 63.5739 127.73 63.455M116.158 45.5641C116.161 45.4707 116.134 45.3787 116.081 45.3018H115.493C114.214 45.3018 113.649 45.3517 111.347 45.3517C110.55 45.3517 109.38 45.3018 109.095 45.3018H108.433C108.359 45.3517 108.332 45.5314 108.332 45.6363C108.329 45.69 108.34 45.7436 108.362 45.7923C108.385 45.841 108.42 45.8834 108.463 45.9157C109.369 46.0525 110.255 46.3019 111.099 46.6581C111.581 47.4436 111.838 48.3466 111.842 49.2682C111.865 49.6539 111.891 50.0382 111.891 51.0888V58.695C111.895 59.0625 111.878 59.4298 111.842 59.7955C111.406 59.3089 110.661 58.3645 109.663 57.1866L99.8847 45.7622C99.7735 45.6333 99.6435 45.5218 99.4991 45.4317C99.2932 45.4317 99.04 45.4041 98.8341 45.4041C97.1971 45.4041 95.7622 45.3307 95.3254 45.3307C95.2782 45.4062 95.2528 45.4934 95.252 45.5825C95.2575 45.6951 95.2728 45.807 95.2979 45.917C96.0046 45.9932 96.6826 46.2384 97.2745 46.6318C97.7558 47.08 98.1769 47.5888 98.5271 48.1455C98.613 48.4084 98.6486 48.6852 98.6321 48.9613C98.6321 50.2966 98.5547 52.7218 98.5547 54.52V59.9686C98.5595 60.6199 98.5073 61.2703 98.3986 61.9125C97.6464 62.5974 96.7138 63.0526 95.7111 63.2241C95.6557 63.318 95.6212 63.4226 95.6101 63.531C95.6101 63.6084 95.6337 63.7606 95.6835 63.7934H96.1701C96.6843 63.7934 97.8621 63.7199 98.6334 63.7199C99.7575 63.7199 100.266 63.7934 101.316 63.7934H102.857C102.958 63.7658 102.981 63.5638 102.981 63.4589C102.982 63.3658 102.955 63.2746 102.904 63.1966C101.724 63.0581 100.634 62.4961 99.8362 61.6147C99.609 60.5534 99.4968 59.4708 99.5017 58.3855C99.5017 57.5696 99.4742 56.2344 99.4742 54.726C99.4742 52.7034 99.5017 49.9149 99.5292 49.0164C99.6801 49.1948 99.9149 49.4794 100.089 49.6814L112.225 63.8944C112.356 64.019 112.403 64.0452 112.537 64.0452C112.671 64.0452 112.583 64.0452 112.688 63.9954C112.788 63.6201 112.832 63.232 112.819 62.8437C112.819 62.1013 112.791 61.3301 112.791 60.9445V50.0644C112.791 46.8679 114.305 45.9694 116.07 45.896C116.136 45.7967 116.171 45.6805 116.171 45.5615M92.4661 45.6848C92.4615 45.5629 92.4152 45.4462 92.3349 45.3543H91.5964C90.799 45.3543 89.7247 45.4041 88.804 45.4041C87.7809 45.4041 86.6306 45.3543 85.8829 45.3543H84.9648C84.8993 45.4523 84.8629 45.5669 84.8599 45.6848C84.8634 45.8003 84.8897 45.914 84.9372 46.0193C85.0422 46.0193 86.9047 46.0468 87.2392 46.5059C87.6785 47.0752 88.0166 47.7159 88.2386 48.3999C88.3859 49.3321 88.4539 50.275 88.4419 51.2186C88.4419 53.3973 88.4419 54.8558 88.4144 55.6218C88.4039 56.7735 88.2484 57.9193 87.9514 59.0321C87.6415 60.0884 86.9688 61.0015 86.0517 61.6105C85.1347 62.2195 84.0321 62.4852 82.9383 62.361C81.903 62.3663 80.8791 62.1446 79.9386 61.7118C79.2912 61.4192 78.726 60.9714 78.2931 60.4081C77.8602 59.8448 77.573 59.1834 77.457 58.4825L77.3258 50.8055L77.3035 47.6825C77.3035 47.0948 78.0419 46.5544 78.299 46.2475C78.9469 46.1103 79.6049 46.0261 80.2665 45.9957C80.3395 45.8892 80.3846 45.7661 80.3976 45.6376C80.3942 45.5722 80.3765 45.5083 80.3456 45.4505C80.3148 45.3927 80.2717 45.3424 80.2193 45.3031L79.2473 45.3307C78.2977 45.3543 77.0464 45.3805 76.2529 45.3805C75.0239 45.3805 74.0742 45.353 73.3082 45.353H72.2353C72.188 45.399 72.1516 45.4551 72.1289 45.517C72.1062 45.579 72.0977 45.6453 72.1041 45.7111C72.0998 45.7668 72.107 45.8228 72.1253 45.8756C72.1436 45.9284 72.1725 45.9769 72.2104 46.018C73.0262 46.1229 73.5627 46.1964 73.926 46.2803C74.3448 46.5426 74.6606 46.9408 74.8206 47.4083C74.8481 47.7389 74.8979 48.5599 74.8979 50.1628V56.3078C74.8594 57.4573 74.9474 58.6075 75.1603 59.7378C75.4586 61.0404 76.2602 62.1721 77.3901 62.8857C78.7973 63.7475 80.4275 64.175 82.0766 64.1147C83.6104 64.1523 85.1277 63.7907 86.4797 63.0654C87.1161 62.7048 87.67 62.2152 88.106 61.6279C88.5419 61.0406 88.8503 60.3686 89.0112 59.6551C89.2831 58.6627 89.422 57.6385 89.4244 56.6095V51.7013C89.4244 50.7832 89.4742 49.6289 89.4742 49.1699C89.4537 48.1765 89.7211 47.1985 90.2441 46.3538C90.9375 46.1602 91.6492 46.0402 92.3677 45.9957C92.4285 45.9024 92.4633 45.7947 92.4687 45.6835" fill="black"/>
<path d="M29.8389 19.8934C29.7634 19.8947 29.6897 19.9174 29.6264 19.9587C29.563 19.9999 29.5126 20.0582 29.4809 20.1268L28.724 21.8031C28.7064 21.8156 28.6863 21.8241 28.665 21.828C28.6414 21.828 28.6152 21.8031 28.5968 21.7506C28.5784 21.6982 28.4866 21.4568 28.2899 21.0004L28.0472 20.4521C27.9607 20.2501 27.8911 20.1176 27.8688 20.0757C27.8368 20.0201 27.7907 19.9739 27.7353 19.9417C27.6798 19.9095 27.6169 19.8924 27.5527 19.892C27.542 19.8777 27.5369 19.86 27.5383 19.8422C27.5373 19.8255 27.5404 19.8088 27.5475 19.7937H27.6747C27.8164 19.7937 27.9371 19.8002 28.042 19.8002C28.1469 19.8002 28.3725 19.7884 28.5102 19.7884H28.5929C28.606 19.7884 28.6112 19.8212 28.6112 19.8317C28.6122 19.8505 28.609 19.8693 28.6021 19.8868C28.5102 19.896 28.3043 19.8868 28.3043 20.018C28.3042 20.0563 28.3104 20.0944 28.3227 20.1308L28.8185 21.3112L29.2316 20.3367C29.2694 20.2545 29.2882 20.1648 29.2867 20.0744C29.2867 19.9642 29.2093 19.9156 29.0021 19.8907C28.9957 19.8761 28.9913 19.8606 28.989 19.8448C28.9904 19.825 28.9948 19.8056 29.0021 19.7871H29.0611C29.1529 19.7871 29.2448 19.7989 29.4546 19.7989C29.4914 19.7989 29.633 19.7924 29.7025 19.7924H29.8442C29.854 19.8049 29.8603 19.8198 29.8625 19.8356C29.8599 19.8566 29.8518 19.8765 29.8389 19.8934Z" fill="black"/>
<path d="M31.9352 21.7703C31.3344 21.7703 31.0091 21.7546 30.9265 21.7546H30.6419C30.5592 21.7546 30.3664 21.7677 30.1553 21.7677H30.0359C30.0286 21.7545 30.0254 21.7394 30.0267 21.7244C30.0245 21.7052 30.0245 21.6859 30.0267 21.6667C30.1312 21.6678 30.2347 21.6459 30.3297 21.6024C30.3787 21.5093 30.4009 21.4044 30.394 21.2994C30.394 21.2076 30.394 21.1066 30.394 21.0043C30.394 20.8535 30.394 20.6698 30.394 20.4469V20.1321C30.394 19.9143 30.2838 19.9143 30.0595 19.8894C30.0549 19.8722 30.0518 19.8547 30.0503 19.837C30.0503 19.8251 30.0503 19.7937 30.0687 19.7871H30.1789C30.2523 19.7871 30.4491 19.7871 30.8255 19.7871C31.1692 19.7871 31.5049 19.7937 31.5771 19.7937H31.783C31.8289 19.7937 31.8473 19.7937 31.8473 19.8396L31.8748 20.2895C31.8473 20.3026 31.842 20.3078 31.8197 20.3078C31.8045 20.3104 31.789 20.3104 31.7738 20.3078C31.705 20.1701 31.6026 20.052 31.4761 19.9642C31.4236 19.932 31.3632 19.9148 31.3016 19.9143C31.2741 19.9143 31.2059 19.9143 31.0393 19.9143C30.9081 19.9143 30.8334 19.9143 30.815 19.9209C30.7967 19.9275 30.7967 19.9209 30.7875 19.997C30.7875 20.0455 30.7783 20.1281 30.7783 20.3905V20.6528H30.8465C30.9219 20.654 30.9971 20.6466 31.0708 20.6305C31.1524 20.6079 31.2237 20.5579 31.2728 20.4888C31.2938 20.4355 31.3092 20.3801 31.3187 20.3236C31.3385 20.3134 31.3607 20.3089 31.383 20.3105C31.4009 20.3098 31.4185 20.3153 31.4328 20.3262C31.4328 20.4062 31.4144 20.5584 31.4144 20.7499C31.4144 20.8456 31.4236 21.0568 31.4236 21.1433C31.416 21.1496 31.4072 21.1542 31.3977 21.1569C31.3882 21.1596 31.3783 21.1604 31.3685 21.1591C31.35 21.1592 31.3315 21.157 31.3134 21.1525C31.2951 20.9833 31.2675 20.8679 31.1259 20.8089C31.0562 20.7795 30.9811 20.7652 30.9055 20.7669C30.8617 20.7677 30.8179 20.7708 30.7744 20.7761V21.3007C30.7691 21.3796 30.7785 21.4587 30.8019 21.5342C30.8163 21.5683 30.8609 21.6378 30.9213 21.6444C30.9819 21.6544 31.0434 21.6588 31.1049 21.6575H31.3895C31.4653 21.6571 31.5402 21.6415 31.6099 21.6116C31.7481 21.4982 31.8566 21.3528 31.926 21.1879C31.9445 21.1795 31.9647 21.1754 31.985 21.1761C32.0054 21.1771 32.0255 21.182 32.044 21.1906V21.7152C32.0414 21.7638 32.0034 21.7703 31.9352 21.7703Z" fill="black"/>
<path d="M34.3213 20.418C34.3082 20.418 34.2899 20.418 34.2663 20.4115C34.2301 20.3076 34.1807 20.2089 34.1194 20.1176C34.0767 20.0598 34.0215 20.0124 33.9579 19.979C33.8943 19.9456 33.8239 19.9271 33.7521 19.9248C33.7062 19.9248 33.596 19.9248 33.5593 19.9248V20.7984C33.5593 20.9296 33.5593 21.0988 33.5593 21.3991C33.5593 21.6313 33.6642 21.6313 33.9029 21.6614C33.9141 21.6787 33.9204 21.6986 33.9213 21.7192C33.9213 21.7362 33.9167 21.7529 33.9082 21.7677H33.8203C33.6891 21.7677 33.4071 21.7585 33.3206 21.7585C33.2615 21.7585 32.9586 21.7716 32.8156 21.7716C32.8089 21.7648 32.8037 21.7565 32.8006 21.7474C32.7974 21.7384 32.7963 21.7287 32.7972 21.7192C32.7983 21.7009 32.8032 21.683 32.8116 21.6667C33.1278 21.6431 33.1605 21.5841 33.1697 21.4831C33.1789 21.4188 33.1789 21.1578 33.1789 20.8915V20.1636C33.1808 20.0831 33.1747 20.0027 33.1605 19.9235C33.0578 19.9201 32.955 19.9271 32.8536 19.9445C32.6716 20.034 32.5308 20.1899 32.4601 20.38C32.4441 20.3854 32.4272 20.3876 32.4103 20.3865C32.4015 20.3869 32.3928 20.3853 32.3848 20.3816C32.3768 20.378 32.3698 20.3724 32.3644 20.3655V19.8566C32.3644 19.8107 32.3644 19.7989 32.4234 19.7989H32.6385C32.7067 19.7989 32.9966 19.7989 33.3586 19.7989C33.836 19.7989 34.1889 19.7871 34.2768 19.7871C34.3227 19.7871 34.3541 19.7871 34.3725 19.8028C34.3749 19.8273 34.3749 19.8519 34.3725 19.8763V20.3852C34.3681 20.3951 34.3609 20.4035 34.3519 20.4093C34.3428 20.4151 34.3321 20.4182 34.3213 20.418Z" fill="black"/>
<path d="M29.7436 23.5156C29.7253 23.5156 29.7109 23.5156 29.6846 23.5091C29.6525 23.4036 29.6028 23.3043 29.5377 23.2153C29.4955 23.157 29.4404 23.1093 29.3767 23.0758C29.313 23.0424 29.2424 23.0241 29.1705 23.0225C29.1246 23.0225 29.0144 23.0225 28.9776 23.0225V23.896C28.9776 24.0272 28.9776 24.1964 28.9776 24.4967C28.9776 24.7289 29.0878 24.7289 29.3265 24.7591C29.3364 24.7766 29.341 24.7967 29.3397 24.8168C29.3412 24.8335 29.338 24.8503 29.3305 24.8653H29.2492C29.1075 24.8653 28.8321 24.8561 28.7494 24.8561C28.6904 24.8561 28.3874 24.8706 28.2405 24.8706C28.2306 24.855 28.226 24.8365 28.2274 24.8181C28.2285 24.8003 28.2316 24.7827 28.2366 24.7656C28.5527 24.742 28.5855 24.683 28.5986 24.582C28.5986 24.5177 28.5986 24.2567 28.5986 23.9905V23.2664C28.6019 23.1857 28.5975 23.1049 28.5855 23.0251C28.481 23.0216 28.3764 23.0286 28.2733 23.0461C28.0909 23.1351 27.9499 23.2911 27.8798 23.4815C27.8619 23.4868 27.8433 23.489 27.8247 23.4881C27.816 23.4881 27.8074 23.4863 27.7995 23.4826C27.7915 23.479 27.7845 23.4737 27.7788 23.4671V22.9582C27.7788 22.9123 27.788 22.9005 27.8378 22.9005H28.0529C28.1264 22.9005 28.415 22.9005 28.777 22.9005C29.2492 22.9005 29.6072 22.8887 29.6951 22.8887C29.745 22.8887 29.7777 22.8887 29.7922 22.9044C29.8066 22.9202 29.7922 22.9503 29.7922 22.9779V23.4868C29.7871 23.4952 29.78 23.5022 29.7715 23.5072C29.763 23.5123 29.7535 23.5151 29.7436 23.5156Z" fill="black"/>
<path d="M32.0035 24.8744C31.4067 24.8744 31.0775 24.8587 30.9988 24.8587H30.7102C30.6328 24.8587 30.4348 24.8731 30.2288 24.8731H30.1095C30.101 24.8603 30.0965 24.8452 30.0964 24.8298C30.095 24.8102 30.0982 24.7904 30.1055 24.7721C30.2085 24.7744 30.3105 24.7524 30.4033 24.7079C30.44 24.6685 30.4584 24.5846 30.4676 24.4049C30.4676 24.3131 30.4767 24.2121 30.4767 24.1084C30.4767 23.9576 30.4767 23.774 30.4767 23.551C30.4767 23.3975 30.4767 23.3057 30.4767 23.2414C30.4767 23.0237 30.3705 23.0237 30.1462 22.9988C30.1384 22.9823 30.134 22.9645 30.1331 22.9463C30.1331 22.9345 30.1423 22.903 30.1554 22.8965H30.2616C30.339 22.8965 30.5318 22.8965 30.9083 22.8965C31.2572 22.8965 31.5864 22.903 31.6651 22.903H31.8671C31.9169 22.903 31.9353 22.903 31.9353 22.949L31.9576 23.3988C31.9419 23.4111 31.9224 23.4176 31.9025 23.4172C31.8873 23.4192 31.8718 23.4192 31.8566 23.4172C31.7908 23.2774 31.6878 23.1585 31.5588 23.0736C31.5083 23.0412 31.4496 23.0239 31.3896 23.0237C31.3621 23.0237 31.2939 23.0237 31.1194 23.0237C30.9883 23.0237 30.9135 23.0237 30.8991 23.0303C30.8847 23.0368 30.8755 23.0303 30.8663 23.1063C30.8663 23.1549 30.8663 23.2375 30.8663 23.4998V23.7622H30.9306C31.006 23.7637 31.0814 23.7557 31.1549 23.7386C31.2375 23.7159 31.3101 23.666 31.3608 23.5969C31.38 23.5433 31.3936 23.488 31.4014 23.4316C31.4215 23.4221 31.4435 23.4171 31.4657 23.4172C31.4854 23.4157 31.5049 23.4213 31.5208 23.4329C31.5208 23.513 31.4985 23.6651 31.4985 23.8566C31.4985 23.9524 31.5116 24.1635 31.5116 24.2501C31.4959 24.2622 31.4762 24.2678 31.4565 24.2658C31.4367 24.2659 31.4169 24.2637 31.3975 24.2593C31.3791 24.0901 31.3555 23.9747 31.2099 23.9156C31.142 23.8867 31.0687 23.8723 30.9948 23.8737C30.951 23.8746 30.9072 23.8776 30.8637 23.8828V24.4075C30.86 24.486 30.8675 24.5646 30.886 24.641C30.9043 24.6751 30.9502 24.7446 31.0053 24.7511C31.066 24.7615 31.1274 24.7664 31.189 24.7656H31.4775C31.5494 24.769 31.6212 24.7578 31.6887 24.7328C31.8304 24.6215 31.9411 24.4756 32.01 24.3091C32.0284 24.3002 32.0487 24.2961 32.0691 24.2973C32.0881 24.2978 32.1069 24.3023 32.1242 24.3104V24.8351C32.115 24.8679 32.0822 24.8744 32.0035 24.8744Z" fill="black"/>
<path d="M33.4031 24.9213C33.2434 24.9146 33.0869 24.8739 32.9441 24.802C32.9207 24.7924 32.8958 24.7871 32.8706 24.7862C32.8168 24.8009 32.7667 24.8268 32.7237 24.8623C32.701 24.8633 32.6784 24.8584 32.6582 24.8481C32.638 24.8377 32.6208 24.8223 32.6083 24.8033C32.6083 24.7613 32.645 24.638 32.645 24.5606C32.645 24.5147 32.6319 24.2983 32.6266 24.2393C32.6369 24.2262 32.6501 24.2157 32.6651 24.2087C32.6801 24.2016 32.6966 24.1982 32.7132 24.1986C32.7241 24.1974 32.7351 24.1974 32.746 24.1986C32.788 24.2786 32.8706 24.4951 32.9296 24.5816C32.9848 24.6448 33.0524 24.696 33.1282 24.7319C33.2041 24.7677 33.2865 24.7876 33.3703 24.7902C33.4276 24.7961 33.4854 24.7907 33.5405 24.7743C33.5957 24.7578 33.647 24.7307 33.6917 24.6944C33.7284 24.6662 33.7576 24.6295 33.7768 24.5875C33.796 24.5454 33.8046 24.4993 33.8019 24.4531C33.806 24.3889 33.7864 24.3254 33.7468 24.2747C33.6926 24.2081 33.6215 24.1573 33.5409 24.1278C33.4543 24.0858 33.1474 24.0111 33.0359 23.9507C32.9308 23.9067 32.8367 23.8399 32.7604 23.7553C32.6842 23.6506 32.6438 23.5241 32.645 23.3946C32.646 23.3173 32.6629 23.241 32.6946 23.1705C32.7263 23.1 32.7722 23.0367 32.8294 22.9847C32.8866 22.9327 32.9539 22.8929 33.0271 22.868C33.1003 22.8431 33.1778 22.8335 33.2549 22.8398C33.4227 22.8278 33.5895 22.8741 33.7271 22.9709C33.7629 22.9311 33.801 22.8934 33.8412 22.8581C33.8619 22.8561 33.8827 22.86 33.9012 22.8692C33.9198 22.8785 33.9354 22.8929 33.9462 22.9106C33.9305 23 33.92 23.0902 33.9147 23.1808C33.9147 23.2333 33.9462 23.4431 33.9462 23.4746C33.9226 23.4892 33.8962 23.4985 33.8688 23.5021C33.8562 23.5007 33.8438 23.4976 33.832 23.493C33.7769 23.3972 33.7271 23.2306 33.6668 23.1493C33.6206 23.0904 33.5603 23.0441 33.4916 23.0145C33.4229 22.985 33.3478 22.9731 33.2733 22.9801C33.2302 22.9765 33.1869 22.9816 33.1458 22.9949C33.1047 23.0083 33.0667 23.0297 33.034 23.0579C33.0013 23.0861 32.9745 23.1205 32.9552 23.1592C32.9359 23.1979 32.9246 23.24 32.9218 23.2831C32.9277 23.3509 32.954 23.4153 32.9974 23.4678C33.0407 23.5202 33.099 23.5583 33.1644 23.5769C33.247 23.6097 33.348 23.6477 33.4622 23.6832C33.5701 23.7169 33.6756 23.7577 33.7783 23.8051C33.8797 23.8488 33.9653 23.9225 34.0234 24.0163C34.0816 24.1101 34.1096 24.2196 34.1035 24.3298C34.0973 24.415 34.0741 24.498 34.0353 24.5741C33.9965 24.6502 33.943 24.7177 33.8777 24.7728C33.8125 24.8279 33.7369 24.8695 33.6554 24.895C33.5739 24.9205 33.4881 24.9294 33.4031 24.9213Z" fill="black"/>
<path d="M30.543 27.9858C29.9422 27.9858 29.6169 27.97 29.5343 27.97H29.2497C29.1671 27.97 28.9742 27.9845 28.7631 27.9845H28.6437C28.6364 27.9713 28.6331 27.9562 28.6345 27.9412C28.6324 27.922 28.6324 27.9026 28.6345 27.8835C28.739 27.8846 28.8425 27.8627 28.9375 27.8192C28.9867 27.7261 29.0089 27.6212 29.0018 27.5162C29.0018 27.4244 29.0018 27.3234 29.0018 27.2198C29.0018 27.0689 29.0018 26.8853 29.0018 26.6623V26.3528C29.0018 26.135 28.8916 26.135 28.6673 26.1101C28.6626 26.093 28.6595 26.0754 28.6581 26.0577C28.6581 26.0459 28.6581 26.0144 28.6765 26.0078H28.7867C28.8601 26.0078 29.0569 26.0078 29.4333 26.0078C29.777 26.0078 30.1114 26.0144 30.1849 26.0144H30.3908C30.4367 26.0144 30.4551 26.0144 30.4551 26.0603L30.4826 26.5102C30.4551 26.5246 30.4511 26.5285 30.4275 26.5285C30.4124 26.5312 30.3968 26.5312 30.3816 26.5285C30.3128 26.3908 30.2104 26.2727 30.0839 26.1849C30.0314 26.1526 29.9711 26.1354 29.9094 26.135C29.8819 26.135 29.8137 26.135 29.6471 26.135C29.5159 26.135 29.4412 26.135 29.4228 26.1416C29.4045 26.1482 29.4045 26.1416 29.3953 26.2177C29.3953 26.2662 29.3861 26.3488 29.3861 26.6112V26.8735H29.4543C29.5297 26.8748 29.6049 26.8673 29.6786 26.8512C29.7602 26.8286 29.8315 26.7786 29.8806 26.7095C29.9016 26.6562 29.917 26.6008 29.9265 26.5443C29.9462 26.5337 29.9684 26.5287 29.9908 26.5298C30.0087 26.5293 30.0263 26.5348 30.0406 26.5456C30.0406 26.6256 30.0222 26.7777 30.0222 26.9692C30.0222 27.0663 30.0314 27.2762 30.0314 27.3627C30.0238 27.369 30.015 27.3736 30.0055 27.3763C29.996 27.379 29.9861 27.3798 29.9763 27.3785C29.9578 27.3786 29.9393 27.3764 29.9212 27.3719C29.9029 27.2027 29.8753 27.0873 29.7337 27.0283C29.6639 26.9994 29.5888 26.9855 29.5133 26.9876C29.4695 26.9884 29.4257 26.9915 29.3822 26.9968V27.5214C29.3769 27.6003 29.3863 27.6794 29.4097 27.7549C29.4241 27.789 29.4687 27.8585 29.5291 27.8651C29.5897 27.8751 29.6512 27.8795 29.7127 27.8782H29.9973C30.0705 27.8815 30.1436 27.8703 30.2124 27.8454C30.3508 27.7322 30.4594 27.5867 30.5285 27.4218C30.547 27.4133 30.5672 27.4093 30.5876 27.41C30.608 27.4108 30.6281 27.4157 30.6466 27.4244V27.949C30.6479 27.9779 30.6151 27.9858 30.543 27.9858Z" fill="black"/>
<path d="M33.4305 26.0997C33.2285 26.1063 33.054 26.2164 33.054 26.5378V27.5583C33.054 27.5976 33.0724 27.8862 33.0724 27.9963C33.048 28.014 33.0196 28.0253 32.9898 28.0291C32.9705 28.0229 32.9532 28.0116 32.9399 27.9963L31.5417 26.4919L31.5561 26.7988V27.3536C31.5561 27.3969 31.5653 27.5005 31.5745 27.5779C31.5729 27.6187 31.5812 27.6592 31.5988 27.696C31.6164 27.7328 31.6427 27.7648 31.6755 27.7891C31.7533 27.8416 31.8441 27.8716 31.9378 27.8757C31.946 27.8896 31.9505 27.9054 31.9509 27.9216C31.9493 27.9395 31.943 27.9567 31.9326 27.9714H31.7817C31.6506 27.9714 31.5522 27.9714 31.4197 27.9714C31.3332 27.9714 31.2086 27.9806 31.122 27.9806H31.0577C31.0556 27.9654 31.0556 27.9499 31.0577 27.9347C31.0575 27.9176 31.0606 27.9007 31.0669 27.8849C31.1846 27.8805 31.2968 27.8339 31.383 27.7537C31.4086 27.6768 31.4197 27.5959 31.4158 27.515V26.8041C31.4158 26.69 31.4158 26.6322 31.4066 26.5194C31.4092 26.439 31.3837 26.3601 31.3345 26.2965C31.3055 26.2589 31.273 26.2242 31.2374 26.1928C31.1669 26.1511 31.0916 26.1181 31.0131 26.0945C31.0063 26.08 31.0019 26.0645 31 26.0486C31.0004 26.0312 31.0049 26.0141 31.0131 25.9987H31.063C31.1049 25.9987 31.3253 26.0105 31.4853 26.0105H31.5811C31.603 26.0199 31.623 26.0332 31.6401 26.0499L32.6763 27.1831C32.7537 27.2697 32.8547 27.3851 32.9097 27.4586V26.6375C32.9107 26.5617 32.9076 26.486 32.9006 26.4106C32.8954 26.3361 32.8754 26.2634 32.8415 26.1968C32.8101 26.1469 32.6173 26.1194 32.5163 26.0984C32.5092 26.0796 32.5061 26.0595 32.5071 26.0394C32.5052 26.025 32.5052 26.0105 32.5071 25.9961H32.5661C32.6618 25.9961 32.8179 26.0105 32.915 26.0105C33.1537 26.0105 33.2272 26.004 33.3465 26.004H33.4239C33.431 26.0191 33.4342 26.0358 33.4331 26.0525C33.4359 26.0682 33.435 26.0844 33.4305 26.0997Z" fill="black"/>
<path d="M39.9663 19.8861C39.7696 19.8927 39.5899 20.0028 39.5899 20.3242V21.3446C39.5899 21.384 39.603 21.6726 39.603 21.7827C39.5804 21.8 39.5537 21.8113 39.5256 21.8155C39.5125 21.8155 39.498 21.8037 39.4705 21.7827L38.0723 20.2783L38.0907 20.5852V21.14C38.0907 21.1833 38.0998 21.2869 38.1038 21.3643C38.1042 21.4047 38.1135 21.4446 38.131 21.481C38.1484 21.5175 38.1736 21.5497 38.2048 21.5755C38.2832 21.6267 38.3736 21.6565 38.4671 21.6621C38.4753 21.676 38.4798 21.6918 38.4802 21.708C38.4787 21.7252 38.4743 21.7421 38.4671 21.7578H38.311C38.1864 21.7578 38.0867 21.7578 37.949 21.7578C37.8624 21.7578 37.7431 21.767 37.6552 21.767H37.5909C37.5861 21.7521 37.5831 21.7367 37.5817 21.7211C37.5816 21.7034 37.5866 21.6861 37.5962 21.6712C37.7125 21.6662 37.8233 21.6197 37.9083 21.5401C37.936 21.4637 37.9472 21.3824 37.9411 21.3014V20.5904C37.9411 20.4763 37.9411 20.4186 37.9411 20.3058C37.941 20.2288 37.9172 20.1537 37.8729 20.0907C37.8421 20.0535 37.8083 20.0189 37.7719 19.9871C37.7018 19.9445 37.6264 19.9114 37.5476 19.8887C37.5437 19.8736 37.5406 19.8583 37.5385 19.8428C37.5396 19.8259 37.5427 19.8092 37.5476 19.793H37.6027C37.6394 19.793 37.8546 19.8048 38.0198 19.8048H38.1156C38.1385 19.8153 38.1601 19.8285 38.1798 19.8441L39.216 20.9774C39.2934 21.064 39.3944 21.1794 39.4495 21.2528V20.437C39.4495 20.3611 39.4446 20.2853 39.4351 20.2101C39.4322 20.1352 39.412 20.062 39.3761 19.9963C39.3446 19.9464 39.1518 19.9189 39.0547 19.8979C39.0466 19.8793 39.0421 19.8592 39.0416 19.8389C39.0409 19.8239 39.044 19.809 39.0508 19.7956H39.1098C39.2055 19.7956 39.3616 19.8087 39.4587 19.8087C39.6922 19.8087 39.7709 19.8022 39.8902 19.8022H39.9637C39.9722 19.817 39.9771 19.8336 39.9781 19.8507C39.976 19.863 39.972 19.875 39.9663 19.8861Z" fill="black"/>
<path d="M42.0258 21.5195C41.9351 21.6125 41.827 21.6867 41.7075 21.7378C41.588 21.7889 41.4597 21.8159 41.3297 21.8173C41.1998 21.8186 41.0709 21.7943 40.9504 21.7456C40.8299 21.697 40.7202 21.6251 40.6276 21.5339C40.5287 21.4356 40.4511 21.3178 40.3999 21.188C40.3486 21.0582 40.3248 20.9192 40.3299 20.7797C40.326 20.641 40.3503 20.5029 40.4015 20.3739C40.4527 20.245 40.5297 20.1277 40.6276 20.0295C40.8124 19.8445 41.0627 19.7399 41.3241 19.7383C41.5089 19.7398 41.69 19.7905 41.8488 19.8852C41.9981 19.978 42.1212 20.1075 42.2064 20.2613C42.2915 20.4151 42.336 20.5882 42.3354 20.764C42.333 21.0462 42.2222 21.3167 42.0258 21.5195ZM41.7045 20.0767C41.662 20.0114 41.6036 19.958 41.5347 19.9215C41.4659 19.885 41.3889 19.8666 41.311 19.8681C41.2368 19.8673 41.1637 19.8862 41.0992 19.9229C41.0347 19.9595 40.9811 20.0126 40.9437 20.0767C40.8081 20.2835 40.7437 20.529 40.7601 20.7758C40.7465 21.0198 40.8074 21.2623 40.9346 21.471C40.9746 21.5392 41.0322 21.5955 41.1014 21.6338C41.1707 21.6721 41.249 21.6911 41.3281 21.6887C41.4187 21.6916 41.5081 21.6675 41.585 21.6194C41.6618 21.5712 41.7226 21.5013 41.7596 21.4185C41.8569 21.2216 41.9021 21.003 41.8907 20.7837C41.9099 20.5333 41.8463 20.2835 41.7097 20.0728L41.7045 20.0767Z" fill="black"/>
<path d="M44.8421 19.8934C44.7674 19.8957 44.6948 19.9188 44.6325 19.96C44.5702 20.0012 44.5206 20.059 44.4892 20.1268L43.7377 21.8031C43.7201 21.8156 43.6999 21.8241 43.6787 21.828C43.655 21.828 43.6236 21.8031 43.6104 21.7506C43.5973 21.6982 43.5003 21.4568 43.2983 21.0004L43.0596 20.4521C42.973 20.2501 42.9035 20.1176 42.8812 20.0757C42.8486 20.0206 42.8025 19.9747 42.7471 19.9426C42.6918 19.9104 42.6291 19.893 42.5651 19.892C42.5584 19.8857 42.5533 19.8779 42.5501 19.8692C42.5469 19.8606 42.5458 19.8514 42.5467 19.8422C42.5454 19.8248 42.5505 19.8075 42.5611 19.7937H42.6844C42.8156 19.7937 42.9468 19.8002 43.0464 19.8002C43.1461 19.8002 43.377 19.7884 43.5186 19.7884H43.596C43.6144 19.7884 43.6183 19.8212 43.6183 19.8317C43.6192 19.8505 43.6161 19.8693 43.6091 19.8868C43.5134 19.896 43.3114 19.8868 43.3114 20.018C43.3091 20.0565 43.3154 20.095 43.3298 20.1308L43.8203 21.3112L44.2374 20.3367C44.2716 20.2535 44.2886 20.1643 44.2873 20.0744C44.2873 19.9642 44.2099 19.9156 44.0026 19.8907C43.9973 19.876 43.9942 19.8605 43.9934 19.8448C43.9936 19.8252 43.9967 19.8058 44.0026 19.7871H44.0617C44.1535 19.7871 44.2453 19.7989 44.4551 19.7989C44.4879 19.7989 44.6335 19.7924 44.703 19.7924H44.8447C44.855 19.8067 44.8606 19.8239 44.8606 19.8415C44.8606 19.8592 44.855 19.8764 44.8447 19.8907L44.8421 19.8934Z" fill="black"/>
<path d="M39.3201 23.5156C39.3017 23.5156 39.2886 23.5156 39.2611 23.5091C39.2287 23.4037 39.1791 23.3044 39.1142 23.2153C39.0719 23.1571 39.0167 23.1094 38.953 23.076C38.8894 23.0425 38.8188 23.0242 38.7469 23.0225C38.701 23.0225 38.5908 23.0225 38.5541 23.0225V23.896C38.5541 24.0272 38.5541 24.1964 38.5541 24.4967C38.5541 24.7289 38.6643 24.7289 38.903 24.7591C38.9134 24.7765 38.9184 24.7965 38.9174 24.8168C38.9189 24.8335 38.9157 24.8503 38.9082 24.8653H38.8243C38.6826 24.8653 38.4072 24.8561 38.3246 24.8561C38.2655 24.8561 37.9625 24.8706 37.8156 24.8706C37.8052 24.8551 37.8002 24.8367 37.8012 24.8181C37.8025 24.8003 37.8056 24.7828 37.8104 24.7656C38.1265 24.742 38.1593 24.683 38.1724 24.582C38.1724 24.5177 38.1724 24.2567 38.1724 23.9905V23.2664C38.1755 23.1857 38.1706 23.1049 38.158 23.0251C38.0535 23.0216 37.9489 23.0286 37.8458 23.0461C37.6634 23.1351 37.5224 23.2911 37.4523 23.4815C37.4345 23.4868 37.4158 23.489 37.3972 23.4881C37.3885 23.4881 37.3799 23.4863 37.372 23.4826C37.364 23.479 37.357 23.4737 37.3513 23.4671V22.9582C37.3513 22.9123 37.3605 22.9005 37.4103 22.9005H37.6255C37.6989 22.9005 37.9875 22.9005 38.3495 22.9005C38.8217 22.9005 39.1797 22.8887 39.2676 22.8887C39.3175 22.8887 39.3503 22.8887 39.3634 22.9044C39.3765 22.9202 39.3634 22.9503 39.3634 22.9779V23.4868C39.3588 23.4945 39.3525 23.5011 39.345 23.5061C39.3375 23.5111 39.329 23.5144 39.3201 23.5156Z" fill="black"/>
<path d="M41.6953 24.8716H41.5392C41.4382 24.8716 41.3241 24.8585 41.2048 24.8585C41.0172 24.8585 40.7785 24.8716 40.6801 24.8716C40.6694 24.8573 40.6643 24.8396 40.6657 24.8218C40.6666 24.8061 40.6697 24.7907 40.6749 24.7759C40.8677 24.7667 40.9451 24.7339 40.9451 24.6565C40.943 24.566 40.923 24.4768 40.886 24.3942C40.827 24.2499 40.7942 24.183 40.7798 24.1463C40.7706 24.1318 40.7667 24.1253 40.7247 24.1253H40.1017C40.0338 24.243 39.9842 24.3704 39.9548 24.503C39.9448 24.5407 39.9399 24.5795 39.9403 24.6185C39.9403 24.6827 39.9994 24.7496 40.2197 24.7601C40.2295 24.7768 40.234 24.7959 40.2328 24.8152C40.2349 24.8304 40.2349 24.8459 40.2328 24.8611H40.1777C40.0308 24.8611 39.9902 24.8519 39.8341 24.8519C39.7331 24.8519 39.4904 24.8611 39.4078 24.8611C39.4025 24.8477 39.3994 24.8335 39.3986 24.8191C39.398 24.8021 39.4012 24.7851 39.4078 24.7693C39.5178 24.76 39.6199 24.7083 39.6924 24.625C39.7911 24.4608 39.8754 24.2883 39.9443 24.1095C40.0544 23.8472 40.1869 23.5114 40.2473 23.3711C40.3299 23.1993 40.3574 23.1416 40.3784 23.0825C40.4204 22.996 40.465 22.9081 40.4834 22.8766C40.4934 22.8645 40.5061 22.8547 40.5204 22.848C40.5346 22.8414 40.5502 22.8379 40.566 22.8379C40.5818 22.8379 40.5973 22.8414 40.6116 22.848C40.6259 22.8547 40.6385 22.8645 40.6486 22.8766C40.6668 22.9079 40.6822 22.9409 40.6945 22.975C40.8086 23.2478 40.9005 23.4904 41.0434 23.8302C41.1169 24.002 41.1536 24.1095 41.231 24.2892C41.2861 24.402 41.3176 24.486 41.3726 24.5896C41.4461 24.7391 41.5655 24.7404 41.6848 24.7706C41.6848 24.7837 41.7032 24.7982 41.7032 24.8165C41.7032 24.8349 41.7097 24.8532 41.6953 24.8716ZM40.4427 23.2976C40.4007 23.3737 40.3286 23.5455 40.301 23.6164C40.1948 23.8787 40.1594 23.96 40.141 23.9967H40.7326C40.6814 23.8839 40.5293 23.5193 40.444 23.3016L40.4427 23.2976Z" fill="black"/>
<path d="M44.7588 24.8765L43.9561 24.8673H43.7358C43.7277 24.8518 43.7228 24.8349 43.7213 24.8175C43.7209 24.8083 43.7223 24.7992 43.7255 24.7907C43.7286 24.7821 43.7335 24.7743 43.7397 24.7676C43.8057 24.7679 43.8716 24.7618 43.9364 24.7493C44.0191 24.7125 44.0519 24.6325 44.0519 24.5132V23.0861L43.6295 24.0042C43.5836 24.1052 43.5285 24.2154 43.4826 24.3256C43.4162 24.4722 43.358 24.6224 43.3082 24.7755C43.3033 24.788 43.2942 24.7985 43.2825 24.8052C43.2708 24.8119 43.2572 24.8143 43.2439 24.8122C43.2164 24.8122 43.198 24.803 43.1849 24.7571C43.1298 24.6378 43.0931 24.5604 43.0747 24.5092L42.4189 23.0559H42.4045V23.4271L42.4189 24.3558C42.4189 24.6378 42.5658 24.7715 42.7901 24.7715C42.7988 24.7866 42.805 24.803 42.8084 24.8201C42.8074 24.8371 42.8025 24.8538 42.794 24.8686C42.7796 24.8686 42.735 24.8686 42.693 24.8686C42.651 24.8686 42.5186 24.8555 42.3074 24.8555C42.2484 24.8555 42.1238 24.8555 42.028 24.8555H41.8968C41.8915 24.8398 41.8884 24.8235 41.8877 24.807C41.8894 24.7923 41.8924 24.7778 41.8968 24.7637C41.9975 24.7446 42.0948 24.7105 42.1854 24.6627C42.2274 24.6233 42.2628 24.5394 42.2628 24.344V23.3261C42.2628 23.1635 42.2405 23.1018 42.1618 23.0467C42.0775 23.0161 41.9891 22.9985 41.8995 22.9943C41.8911 22.9771 41.8867 22.9583 41.8864 22.9392C41.887 22.921 41.8915 22.9031 41.8995 22.8867C41.9782 22.8867 42.1146 22.8933 42.2523 22.8933H42.7337C42.7521 22.9056 42.7666 22.9229 42.7756 22.9431L43.3672 24.2849L43.4734 24.0226C43.5653 23.8075 43.6977 23.4835 43.8866 23.1333L44.006 22.9038L44.7575 22.892C44.7681 22.9061 44.7744 22.9229 44.7759 22.9405C44.7757 22.9581 44.7707 22.9753 44.7615 22.9903C44.6788 23.0048 44.5372 23.0048 44.4677 23.1215C44.4441 23.1582 44.4309 23.195 44.4309 23.3576V24.3138C44.4309 24.681 44.5228 24.7178 44.5621 24.7453C44.6277 24.7642 44.6958 24.7735 44.7641 24.7729C44.7726 24.7881 44.7771 24.8052 44.7772 24.8227C44.772 24.8581 44.7628 24.8581 44.7588 24.8765Z" fill="black"/>
<path d="M39.2739 26.6276C39.2556 26.6276 39.2411 26.6276 39.2149 26.621C39.1826 26.5156 39.1329 26.4163 39.068 26.3272C39.0258 26.269 38.9707 26.2213 38.9069 26.1878C38.8432 26.1544 38.7727 26.1361 38.7007 26.1344C38.6548 26.1344 38.5446 26.1344 38.5079 26.1344V27.008C38.5079 27.1391 38.5079 27.3083 38.5079 27.6087C38.5079 27.8409 38.6181 27.8409 38.8568 27.871C38.8667 27.8886 38.8713 27.9087 38.8699 27.9288C38.8714 27.9455 38.8683 27.9623 38.8608 27.9773H38.7742C38.6325 27.9773 38.3571 27.9681 38.2744 27.9681C38.2154 27.9681 37.9124 27.9825 37.7655 27.9825C37.7556 27.9669 37.751 27.9485 37.7524 27.9301C37.7536 27.9123 37.7567 27.8947 37.7616 27.8776C38.0777 27.854 38.1105 27.795 38.1236 27.694C38.1236 27.6297 38.1236 27.3687 38.1236 27.1024V26.3784C38.1269 26.2982 38.1225 26.2178 38.1105 26.1384C38.006 26.1349 37.9014 26.1419 37.7983 26.1594C37.6159 26.2483 37.4749 26.4044 37.4048 26.5948C37.387 26.6001 37.3683 26.6023 37.3497 26.6014C37.341 26.6014 37.3324 26.5995 37.3245 26.5959C37.3166 26.5923 37.3095 26.587 37.3038 26.5804V26.0715C37.3038 26.0256 37.313 26.0138 37.3629 26.0138H37.578C37.6514 26.0138 37.94 26.0138 38.302 26.0138C38.7742 26.0138 39.1323 26.002 39.2201 26.002C39.27 26.002 39.3028 26.002 39.3159 26.0177C39.329 26.0334 39.3159 26.0636 39.3159 26.0911V26.6001C39.3113 26.6074 39.3051 26.6137 39.2979 26.6184C39.2907 26.6232 39.2825 26.6263 39.2739 26.6276Z" fill="black"/>
<path d="M41.736 26.1082C41.6612 26.1104 41.5886 26.1334 41.5263 26.1747C41.464 26.2159 41.4144 26.2738 41.3831 26.3417L40.6303 28.0179C40.6126 28.0305 40.5925 28.039 40.5712 28.0429C40.5489 28.0429 40.5161 28.0179 40.503 27.9655C40.4899 27.913 40.3928 27.6717 40.1909 27.2152L39.9521 26.667C39.8656 26.465 39.7961 26.3325 39.7738 26.2905C39.7412 26.2354 39.695 26.1896 39.6397 26.1574C39.5843 26.1253 39.5216 26.1079 39.4576 26.1069C39.451 26.1005 39.4459 26.0927 39.4427 26.0841C39.4395 26.0755 39.4383 26.0662 39.4393 26.057C39.4379 26.0396 39.4431 26.0224 39.4537 26.0085H39.577C39.7082 26.0085 39.8393 26.0151 39.939 26.0151C40.0387 26.0151 40.2696 26.0033 40.4112 26.0033H40.4886C40.507 26.0033 40.5122 26.0347 40.5122 26.0465C40.5131 26.0654 40.51 26.0841 40.503 26.1016C40.406 26.1108 40.2053 26.1016 40.2053 26.2328C40.203 26.2713 40.2093 26.3098 40.2236 26.3456L40.7142 27.5261L41.1313 26.5515C41.1657 26.4684 41.1827 26.3791 41.1811 26.2892C41.1811 26.179 41.1038 26.1318 40.8965 26.1056C40.8913 26.0908 40.8882 26.0753 40.8873 26.0597C40.8876 26.0401 40.8907 26.0207 40.8965 26.002H40.9555C41.0474 26.002 41.1392 26.0138 41.349 26.0138C41.3818 26.0138 41.5274 26.0072 41.5969 26.0072H41.7386C41.7474 26.02 41.7524 26.035 41.753 26.0505C41.7547 26.0712 41.7486 26.0917 41.736 26.1082Z" fill="black"/>
<path d="M44.8002 27.9832L44.0027 27.9741H43.7785C43.7716 27.9584 43.7685 27.9413 43.7693 27.9242C43.768 27.9154 43.7685 27.9065 43.7707 27.8979C43.773 27.8894 43.777 27.8814 43.7824 27.8744C43.8501 27.8746 43.9178 27.8685 43.9844 27.856C44.0618 27.8193 44.0946 27.7393 44.0946 27.6199V26.4617C44.0946 26.4617 44.0946 26.2532 44.0946 26.1994H44.0854L43.6683 27.1175C43.6184 27.2185 43.5673 27.3287 43.5174 27.4389C43.4256 27.654 43.3705 27.8035 43.343 27.8888C43.3338 27.9255 43.301 27.9255 43.2787 27.9255C43.2564 27.9255 43.2381 27.9163 43.2197 27.8704C43.1699 27.7511 43.1318 27.6737 43.1135 27.6225L42.4524 26.1666H42.4393V26.5378L42.4524 27.4664C42.4524 27.7484 42.5993 27.8822 42.8288 27.8822C42.8363 27.8974 42.8407 27.9139 42.8419 27.9308C42.8431 27.9475 42.8399 27.9642 42.8328 27.9793C42.8144 27.9793 42.7737 27.9793 42.7278 27.9793C42.6819 27.9793 42.5586 27.9662 42.3475 27.9662C42.2832 27.9662 42.1599 27.9662 42.0681 27.9662H41.9369C41.9283 27.9515 41.9238 27.9347 41.9238 27.9177C41.9252 27.9025 41.9297 27.8878 41.9369 27.8744C42.0374 27.8545 42.1345 27.8205 42.2255 27.7734C42.2877 27.6795 42.3138 27.5663 42.2989 27.4546V26.9864V26.4355C42.2989 26.2728 42.2806 26.2112 42.1979 26.1561C42.1136 26.1255 42.0252 26.1078 41.9356 26.1036C41.9237 26.0878 41.9172 26.0684 41.9172 26.0486C41.918 26.0296 41.9244 26.0114 41.9356 25.9961C42.0091 25.9961 42.1507 26.0027 42.2845 26.0027H42.7711C42.7878 26.0155 42.8006 26.0327 42.8078 26.0525L43.3994 27.3943L43.5096 27.132C43.6312 26.8283 43.7691 26.5315 43.9227 26.2427C43.9595 26.1653 44.0146 26.0656 44.0421 26.0131L44.7897 26.0013C44.7989 26.0171 44.8133 26.0315 44.8133 26.0499C44.8117 26.0678 44.8053 26.085 44.795 26.0997C44.7176 26.1128 44.5746 26.1128 44.5064 26.2309C44.4841 26.2676 44.4658 26.3043 44.4658 26.467V27.4232C44.4658 27.7904 44.5576 27.8271 44.5969 27.8547C44.6607 27.8738 44.7271 27.8831 44.7937 27.8822C44.8056 27.8961 44.8121 27.9138 44.812 27.9321C44.8186 27.9622 44.8094 27.9649 44.8002 27.9832Z" fill="black"/>
<path d="M63.7961 15.5661L63.7135 14.6243L62.815 14.8971C60.6313 15.5615 58.361 15.8983 56.0784 15.8966C52.1886 15.9075 48.3612 14.9189 44.9632 13.0257C41.5651 11.1325 38.7104 8.39814 36.6727 5.08473L36.0221 4L35.3663 5.08473C33.3294 8.39885 30.4751 11.134 27.0773 13.028C23.6794 14.9219 19.8519 15.911 15.9619 15.9005C13.6839 15.9034 11.4181 15.5684 9.23844 14.9063L8.33734 14.6335L8.25471 15.5713C7.6841 22.058 8.07347 28.5935 9.41026 34.9666C10.8224 41.6835 13.2553 48.1444 16.6243 54.1244C18.393 57.2746 20.4078 60.2802 22.65 63.1131C26.3874 67.8357 30.7218 72.0533 35.5447 75.6603L36.0012 76L36.4576 75.6603C41.2897 72.0692 45.6347 67.8656 49.3838 63.1551C51.6272 60.328 53.6417 57.3267 55.4082 54.1795C58.6243 48.4605 60.9854 42.3012 62.4163 35.8978L62.6038 34.9718C63.9479 28.5963 64.3496 22.0581 63.7961 15.5661ZM47.6839 20.6749H48.808V22.8719H47.6839V20.6749ZM47.6839 26.4265H48.808V28.6261H47.6839V26.4265ZM36.3107 18.3481C36.5308 18.0605 36.8221 17.8354 37.156 17.6951C37.4898 17.5547 37.8545 17.504 38.2139 17.548L40.3833 17.8549L43.2401 18.2313C44.0872 18.2837 44.9353 18.1451 45.7217 17.826V29.762C44.9243 30.0367 44.083 30.1617 43.2401 30.1305L40.4857 29.7633L38.2139 29.4459C37.5277 29.4092 36.8515 29.6227 36.3107 30.0466V18.3481ZM26.5324 17.8483C27.2855 18.1596 28.0999 18.2942 28.913 18.2418L31.775 17.8628L33.9393 17.5532C34.2987 17.5095 34.6633 17.5604 34.997 17.7007C35.3308 17.841 35.6222 18.0659 35.8424 18.3533V30.0597C35.2969 29.6307 34.6138 29.4153 33.9209 29.4537L31.6504 29.7725L28.913 30.1371C26.9089 30.1371 26.4918 29.6531 26.4865 29.6492C26.4813 29.6452 26.5285 18.6484 26.5337 17.8483H26.5324ZM24.8994 19.3003C25.1145 19.257 25.752 19.1219 26.0642 19.055V29.7843C26.1783 30.0295 26.6701 30.6001 28.9117 30.6001L31.7501 30.2263L33.9196 29.9167C34.2827 29.8733 34.6508 29.9244 34.9884 30.065C35.326 30.2057 35.6215 30.4311 35.8464 30.7195L35.9106 30.6827H36.2451L36.3094 30.7168C36.5294 30.4292 36.8207 30.204 37.1546 30.0637C37.4884 29.9233 37.8531 29.8727 38.2126 29.9167L40.382 30.2237L43.2388 30.6001C45.5132 30.6001 46.0772 30.002 46.1375 29.9351L46.1795 18.9999L47.2157 19.2885V31.1418C45.8542 31.337 44.4816 31.4444 43.1063 31.4632C41.2724 31.4305 39.4415 31.3018 37.621 31.0775L37.3587 31.0408V31.8435C36.9323 31.9991 36.4826 32.0811 36.0287 32.0862C35.5927 32.0838 35.1608 32.0024 34.7538 31.8462V31.0408L34.4915 31.0775C32.6758 31.3014 30.8497 31.4301 29.0206 31.4632C27.6423 31.4449 26.2665 31.3376 24.902 31.1418L24.8994 19.3003ZM23.3255 20.6762H24.4259V22.8732H23.3255V20.6762ZM23.3255 26.4278H24.4259V28.6274H23.3255V26.4278ZM36.0012 74.0404C31.4693 70.6033 27.3851 66.6129 23.8436 62.1622C23.8291 62.1438 23.816 62.1202 23.8016 62.1031L35.9998 50.2341L48.227 62.1254C48.2086 62.1438 48.1942 62.1713 48.1771 62.1936C44.6301 66.6346 40.542 70.6148 36.0077 74.0417L36.0012 74.0404ZM60.9223 35.5568C59.5358 41.7469 57.2615 47.7039 54.17 53.243L36.013 35.7732L17.8703 53.2063C14.6538 47.4554 12.3184 41.2544 10.9423 34.8105H61.0758L60.9223 35.5568Z" fill="black"/>
<path d="M23.8439 62.1624C27.3855 66.6131 31.4697 70.6035 36.0015 74.0406L36.0081 74.0419C40.5424 70.615 44.6305 66.6348 48.1775 62.1938C48.1945 62.1715 48.209 62.144 48.2273 62.1256L36.0002 50.2343L23.802 62.1033C23.8164 62.1204 23.8295 62.144 23.8439 62.1624Z" fill="#E87722"/>
<path d="M54.1704 53.2432C57.2619 47.7041 59.5362 41.7471 60.9227 35.557L61.0762 34.8107H10.9426C12.3188 41.2546 14.6542 47.4556 17.8707 53.2065L36.0133 35.7734L54.1704 53.2432Z" fill="#E87722"/>
</svg>
