<svg width="226" height="80" viewBox="0 0 226 80" fill="none" xmlns="http://www.w3.org/2000/svg">
<path d="M81.9596 32.8942C83.9317 33.588 86.0219 33.8833 88.109 33.763C95.4942 33.763 100.183 29.7713 100.183 22.9936C100.183 17.6988 97.2319 10.5767 88.109 10.5767H81.9596V32.8942ZM81.9596 49.0482C81.9596 55.2192 83.4576 56.9492 87.6071 56.9492V58.447H69.7134V56.9492C73.1888 56.9492 75.3609 55.8258 75.3609 49.2204V18.0433C75.3759 11.9697 73.8779 10.1423 69.7134 10.1423V8.64453H87.8693C101.591 8.64453 107.149 15.9389 107.149 22.7989C107.149 31.0369 100.895 35.6502 89.607 35.6502C87.0492 35.6484 84.4944 35.4758 81.9596 35.1335V49.0482Z" fill="#011F5B"/>
<path d="M125.043 38.2002C125.305 31.46 120.698 28.6441 116.803 28.6441C111.68 28.6441 108.639 32.4635 108.295 38.2002H125.043ZM108.28 39.698C108.108 53.5079 116.354 56.9753 120.526 56.9753C124.698 56.9753 126.953 55.4775 131.379 50.5497V52.7964C127.634 57.5744 124.084 59.3943 118.698 59.3943C109.081 59.4242 102.115 52.6841 102.115 43.4051C102.115 34.1261 108.857 26.8242 117.575 26.8242C124.698 26.8242 131.297 32.5534 130.862 39.6755L108.28 39.698Z" fill="#011F5B"/>
<path d="M164.216 51.7479C164.216 55.7396 165.084 56.9903 169.421 56.9903V58.4881H153.01V56.9903C157.175 56.9903 158.306 56.0392 158.306 53.1709V37.0693C158.306 32.119 154.748 30.037 151.445 30.037C148.404 30.037 145.715 31.9468 142.674 36.0283V51.0514C142.674 55.7396 143.281 56.9528 147.917 56.9528V58.4507H131.641V56.9528C135.723 56.9528 136.764 56.6083 136.764 51.0514V33.7666C136.764 30.0221 135.813 29.2732 131.641 29.2732V27.7753L141.199 26.8242H142.697V32.9877C146.344 28.8163 149.902 26.8242 153.812 26.8242C158.935 26.8242 164.238 30.4714 164.238 37.8482V51.7479H164.216Z" fill="#011F5B"/>
<path d="M201.823 51.7479C201.823 55.7396 202.692 56.9903 207.066 56.9903V58.4881H190.618V56.9903C194.782 56.9903 195.913 56.0392 195.913 53.1709V37.0693C195.913 32.119 192.356 30.037 189.053 30.037C186.012 30.037 183.323 31.9468 180.282 36.0283V51.0514C180.282 55.7396 180.888 56.9528 185.525 56.9528V58.4507H169.249V56.9528C173.331 56.9528 174.372 56.6083 174.372 51.0514V33.7666C174.372 30.0221 173.421 29.2732 169.249 29.2732V27.7753L178.806 26.8242H180.304V32.9877C183.952 28.8163 187.51 26.8242 191.419 26.8242C196.543 26.8242 201.846 30.4714 201.846 37.8482V51.7479H201.823Z" fill="#011F5B"/>
<path d="M71.4809 67.2684C71.4809 68.6464 71.8554 69.7024 73.3234 69.7024C74.6717 69.7024 75.3832 68.7962 75.3832 67.216V64.4825C75.3732 64.3018 75.3531 64.1218 75.3233 63.9433C75.2709 63.5913 74.9338 63.4565 74.4769 63.404V63.1719H76.7988V63.4265C76.327 63.4789 76.0049 63.6137 75.9525 63.9657C75.9189 64.1437 75.8989 64.3239 75.8925 64.5049V67.2759C75.8925 69.3953 74.5443 70.1892 73.271 70.1892C71.1738 70.1892 70.5222 69.1182 70.5222 67.3358V64.3776C70.5222 63.464 70.5222 63.5164 69.6758 63.404V63.1719H72.3273V63.4265C71.4359 63.5388 71.4809 63.4864 71.4809 64.4001V67.2909V67.2684Z" fill="#011F5B"/>
<path d="M82.3793 70.0445L78.6792 65.6559V69.0185C78.6846 69.1542 78.6996 69.2893 78.7241 69.4229C78.7241 69.7 79.0162 69.8048 79.5181 69.8423V70.0445H77.6605V69.8423C78.02 69.8423 78.2747 69.7 78.3121 69.4229C78.3366 69.2893 78.3516 69.1542 78.3571 69.0185V65.4162C78.2657 65.2622 78.1366 65.134 77.982 65.0436C77.8274 64.9532 77.6523 64.9036 77.4733 64.8995V64.6973H78.8589C79.9899 66.0753 81.1734 67.4757 82.3044 68.8462V65.7457C82.2984 65.6076 82.2834 65.47 82.2594 65.3338C82.2594 65.0642 81.9598 64.9594 81.458 64.9219V64.7197H83.323V64.9219C82.9635 64.9219 82.7088 65.0642 82.6714 65.3338C82.641 65.4692 82.6234 65.6071 82.6189 65.7457V70.0445H82.3793Z" fill="#011F5B"/>
<path d="M86.2813 69.1002C86.2813 69.8042 86.2813 69.7667 86.933 69.8491V70.0513H84.8882V69.8491C85.5698 69.7667 85.5398 69.8042 85.5398 69.1002V65.6777C85.5398 64.9737 85.5398 65.0111 84.8882 64.9288V64.7266H86.933V64.9288C86.2514 65.0111 86.2813 64.9737 86.2813 65.6777V69.1002Z" fill="#011F5B"/>
<path d="M90.1681 64.9193C89.7561 64.9193 89.4191 65.0392 89.6962 65.7656C89.9958 66.6643 90.4452 68.0123 90.8347 69.1282C91.3216 67.9674 91.786 66.7916 92.2578 65.6308C92.4451 65.1515 92.2578 64.8819 91.726 64.8819V64.6797H93.3514V64.8819C93.2098 64.8774 93.0707 64.9198 92.9556 65.0024C92.8405 65.085 92.7558 65.2032 92.7147 65.3387C92.0781 66.8965 91.4339 68.4467 90.7973 70.0044H90.4078C89.9434 68.6864 89.4266 67.2185 88.9622 65.9304C88.6776 65.1141 88.4454 64.8819 88.0784 64.8819V64.6797H90.1456V64.8819L90.1681 64.9193Z" fill="#011F5B"/>
<path d="M94.5428 69.8491C95.2244 69.7667 95.1945 69.8042 95.1945 69.1002V65.6777C95.1945 64.9737 95.1945 65.0111 94.5428 64.9288V64.7266H97.9433V65.9548H97.7411C97.6662 65.3931 97.5164 64.9737 96.9921 64.9737H95.9585V67.1455H96.5951C97.0745 67.1455 97.2767 66.9583 97.2917 66.4865H97.4939V68.1041H97.2917C97.2917 67.6548 97.1045 67.3552 96.5951 67.3552H95.9585V69.0777C95.9585 69.7218 96.2506 69.7742 96.9397 69.7742C98.0407 69.7742 97.9883 69.4672 98.3403 68.6508H98.5351L98.3029 70.0214H94.5578V69.8191L94.5428 69.8491Z" fill="#011F5B"/>
<path d="M101.067 67.4496H101.696C102.362 67.4496 102.662 66.9479 102.662 66.0866C102.662 65.2254 102.205 64.9708 101.651 64.9708H101.067V67.4496ZM99.6733 64.7236H101.92C102.105 64.7051 102.291 64.7244 102.468 64.7803C102.645 64.8363 102.808 64.9277 102.948 65.0489C103.089 65.1702 103.203 65.3188 103.283 65.4856C103.364 65.6525 103.41 65.834 103.418 66.0192C103.421 66.3575 103.319 66.6884 103.126 66.9661C102.933 67.2438 102.658 67.4547 102.34 67.5695L103.089 68.7003C103.38 69.1692 103.741 69.5909 104.16 69.951V70.0484H103.411C102.961 70.0484 102.714 69.2171 101.793 67.6893H101.044V69.0972C101.044 69.8012 101.044 69.7638 101.696 69.8462V70.0484H99.6509V69.8462C100.34 69.7638 100.303 69.8012 100.303 69.0972V65.6747C100.303 64.9708 100.303 65.0082 99.6509 64.9258V64.7236H99.6733Z" fill="#011F5B"/>
<path d="M107.943 65.8637C107.943 65.7382 107.918 65.6139 107.87 65.498C107.822 65.3821 107.751 65.2769 107.662 65.1885C107.573 65.1001 107.467 65.0302 107.351 64.9828C107.234 64.9355 107.11 64.9116 106.984 64.9126C106.879 64.8998 106.771 64.9097 106.67 64.9416C106.568 64.9735 106.475 65.0266 106.395 65.0974C106.316 65.1683 106.253 65.2553 106.21 65.3525C106.166 65.4498 106.145 65.5551 106.145 65.6615C106.145 66.1932 106.677 66.5153 107.441 67.0844C108.205 67.6536 108.505 68.073 108.505 68.7021C108.505 69.6083 107.576 70.11 106.662 70.11C106.212 70.1326 105.762 70.0691 105.336 69.9228C105.316 69.9123 105.3 69.896 105.289 69.8759C105.278 69.8559 105.274 69.833 105.276 69.8105V68.7021H105.479C105.479 68.8603 105.51 69.017 105.572 69.1627C105.634 69.3083 105.725 69.44 105.839 69.5498C105.953 69.6596 106.088 69.7452 106.236 69.8016C106.384 69.858 106.541 69.8839 106.7 69.8779C106.827 69.8809 106.954 69.8583 107.073 69.8114C107.192 69.7646 107.301 69.6945 107.392 69.6052C107.483 69.5159 107.556 69.4092 107.606 69.2914C107.655 69.1736 107.681 69.0471 107.681 68.9193C107.681 68.425 107.419 68.0206 106.273 67.2642C106.002 67.1425 105.773 66.9459 105.611 66.6977C105.449 66.4495 105.361 66.1601 105.359 65.8637C105.359 65.1822 106.108 64.643 106.992 64.643C107.351 64.6376 107.71 64.6856 108.055 64.7853C108.072 64.7905 108.087 64.8016 108.097 64.8167C108.106 64.8319 108.11 64.8499 108.108 64.8677V65.8637H107.943Z" fill="#011F5B"/>
<path d="M111.261 69.1002C111.261 69.8042 111.261 69.7667 111.912 69.8491V70.0513H109.867V69.8491C110.557 69.7667 110.527 69.8042 110.527 69.1002V65.6777C110.527 64.9737 110.527 65.0111 109.867 64.9288V64.7266H111.912V64.9288C111.231 65.0111 111.261 64.9737 111.261 65.6777V69.1002Z" fill="#011F5B"/>
<path d="M115.672 69.1002C115.672 69.8042 115.672 69.7667 116.324 69.8491V70.0513H114.279V69.8491C114.968 69.7667 114.931 69.8042 114.931 69.1002V64.9737H114.249C113.59 64.9737 113.433 65.3931 113.185 65.8949H112.998L113.2 64.7266H117.402L117.612 65.8949H117.417C117.17 65.3931 117.02 64.9737 116.354 64.9737H115.672V69.1002Z" fill="#011F5B"/>
<path d="M119.822 69.8491C120.503 69.7667 120.481 69.8042 120.481 69.1002V67.9319L119.305 65.6103C119.058 65.116 118.841 64.9288 118.496 64.9288V64.7266H120.429V64.9288C119.852 64.9288 119.904 65.2134 120.099 65.6103L121.02 67.52L122.069 65.6103C122.324 65.146 122.069 64.9288 121.634 64.9288V64.7266H123.2V64.9288C122.983 64.9288 122.78 65.0261 122.578 65.3931L121.305 67.6698C121.236 67.846 121.205 68.0349 121.215 68.224V69.0777C121.215 69.7817 121.215 69.7443 121.867 69.8266V70.0288H119.822V69.8266V69.8491Z" fill="#011F5B"/>
<path d="M130.106 66.309C130.106 65.283 129.491 65.2455 129.357 65.2455C128.286 65.2455 127.589 67.1552 127.589 68.4359C127.589 68.9451 127.679 69.8738 128.405 69.8738C129.529 69.8738 130.128 68.024 130.128 66.309H130.106ZM126.66 68.2337C126.66 66.938 127.776 65.0059 129.416 65.0059C130.727 65.0059 131.012 65.8971 131.012 66.7808C131.012 67.8667 130.151 70.1733 128.263 70.1733C127.005 70.1733 126.66 69.1548 126.66 68.2337Z" fill="#011F5B"/>
<path d="M135.97 65.3312L135.738 65.5334H134.442C133.977 67.8905 133.367 70.2165 132.615 72.4983H132.165L133.581 65.5334H132.645L132.727 65.1215H133.656C133.771 64.489 134.099 63.9149 134.586 63.4941C135.072 63.0733 135.687 62.8311 136.33 62.8074C136.623 62.7905 136.915 62.8526 137.176 62.9871L137.056 63.6312L136.809 63.751C136.728 63.5874 136.605 63.4485 136.452 63.3484C136.299 63.2484 136.123 63.1909 135.94 63.1819C135.349 63.1819 134.907 63.5863 134.667 64.6797L134.562 65.1515H136.045L136 65.3612L135.97 65.3312Z" fill="#011F5B"/>
<path d="M141.985 68.8112C141.985 69.7323 141.94 69.6799 142.831 69.7922V70.0469H140.18V69.7922C141.064 69.6799 141.026 69.7323 141.026 68.8112V64.3776C141.026 63.464 141.026 63.5164 140.18 63.404V63.1719H142.786C144.419 63.1719 145.228 63.8234 145.228 65.0067C145.228 66.4221 143.947 67.1935 142.442 67.1037V66.9164C142.685 66.9456 142.933 66.9188 143.164 66.8383C143.396 66.7578 143.607 66.6256 143.78 66.4517C143.953 66.2778 144.085 66.0667 144.164 65.8346C144.244 65.6024 144.269 65.3551 144.239 65.1115C144.273 64.8901 144.254 64.6639 144.183 64.4513C144.113 64.2386 143.993 64.0457 143.834 63.888C143.675 63.7304 143.481 63.6125 143.267 63.544C143.054 63.4756 142.828 63.4584 142.606 63.4939H142.007V68.8411L141.985 68.8112Z" fill="#011F5B"/>
<path d="M146.531 69.8491C147.221 69.7667 147.191 69.8042 147.191 69.1002V65.6777C147.191 64.9737 147.191 65.0111 146.531 64.9288V64.7266H149.932V65.9548H149.737C149.655 65.3931 149.505 64.9737 148.988 64.9737H147.955V67.1455H148.591C149.071 67.1455 149.28 66.9583 149.295 66.4865H149.528V68.1041H149.333C149.333 67.6548 149.138 67.3552 148.629 67.3552H147.992V69.0777C147.992 69.7218 148.292 69.7742 148.973 69.7742C150.074 69.7742 150.022 69.4672 150.374 68.6508H150.569L150.344 70.0214H146.599V69.8191L146.531 69.8491Z" fill="#011F5B"/>
<path d="M156.568 70.0445L152.868 65.6559V69.0185C152.873 69.1542 152.888 69.2893 152.913 69.4229C152.913 69.7 153.205 69.8048 153.707 69.8423V70.0445H151.849V69.8423C152.209 69.8423 152.463 69.7 152.501 69.4229C152.525 69.2893 152.54 69.1542 152.546 69.0185V65.4162C152.454 65.2622 152.325 65.134 152.171 65.0436C152.016 64.9532 151.841 64.9036 151.662 64.8995V64.6973H153.048C154.179 66.0753 155.362 67.4757 156.493 68.8462V65.7457C156.487 65.6076 156.472 65.47 156.448 65.3338C156.448 65.0642 156.148 64.9594 155.647 64.9219V64.7197H157.512V64.9219C157.152 64.9219 156.897 65.0642 156.86 65.3338C156.833 65.4698 156.816 65.6074 156.808 65.7457V70.0445H156.568Z" fill="#011F5B"/>
<path d="M163.384 70.0445C162.171 68.6141 160.92 67.1162 159.677 65.6559V69.0185C159.682 69.1542 159.697 69.2893 159.722 69.4229C159.722 69.7 160.021 69.8048 160.523 69.8423V70.0445H158.658V69.8423C159.025 69.8423 159.272 69.7 159.31 69.4229C159.341 69.2902 159.358 69.1547 159.362 69.0185V65.4162C159.27 65.2627 159.141 65.1348 158.986 65.0445C158.832 64.9542 158.657 64.9043 158.478 64.8995V64.6973H159.864C160.995 66.0753 162.171 67.4757 163.302 68.8462V65.7457C163.294 65.6074 163.276 65.4698 163.249 65.3338C163.249 65.0642 162.957 64.9594 162.455 64.9219V64.7197H164.313V64.9219C163.961 64.9219 163.699 65.0642 163.661 65.3338C163.637 65.47 163.622 65.6076 163.616 65.7457V70.0445H163.384Z" fill="#011F5B"/>
<path d="M168.328 65.8638C168.329 65.738 168.304 65.6132 168.257 65.4969C168.209 65.3805 168.138 65.2749 168.049 65.1863C167.959 65.0977 167.853 65.0278 167.736 64.9808C167.62 64.9338 167.495 64.9107 167.369 64.9127C167.264 64.901 167.157 64.9118 167.057 64.9442C166.956 64.9766 166.864 65.0299 166.785 65.1006C166.707 65.1713 166.644 65.2579 166.601 65.3546C166.559 65.4513 166.537 65.5559 166.537 65.6616C166.537 66.1933 167.069 66.5153 167.826 67.0845C168.582 67.6537 168.897 68.0731 168.897 68.7021C168.897 69.6083 167.968 70.1101 167.054 70.1101C166.609 70.1115 166.167 70.0302 165.751 69.8704C165.733 69.8577 165.719 69.8407 165.71 69.8211C165.701 69.8014 165.697 69.7797 165.699 69.7581V68.7021H165.901C165.901 68.8604 165.933 69.0171 165.994 69.1627C166.056 69.3084 166.147 69.4401 166.261 69.5498C166.375 69.6596 166.51 69.7453 166.658 69.8017C166.806 69.858 166.964 69.884 167.122 69.8779C167.249 69.8809 167.377 69.8583 167.495 69.8115C167.614 69.7647 167.723 69.6945 167.814 69.6052C167.906 69.5159 167.978 69.4092 168.028 69.2914C168.077 69.1736 168.103 69.0471 168.103 68.9193C168.103 68.425 167.841 68.0206 166.695 67.2642C166.423 67.1444 166.191 66.9485 166.027 66.7C165.864 66.4516 165.776 66.1612 165.773 65.8638C165.773 65.1823 166.522 64.643 167.406 64.643C167.768 64.6373 168.129 64.6852 168.477 64.7853C168.495 64.7905 168.509 64.8017 168.519 64.8168C168.528 64.8319 168.532 64.85 168.53 64.8677V65.8638H168.328Z" fill="#011F5B"/>
<path d="M171.391 69.8491C172.08 69.7667 172.05 69.8042 172.05 69.1002V67.9319L170.874 65.6103C170.627 65.116 170.417 64.9288 170.065 64.9288V64.7266H171.998V64.9288C171.421 64.9288 171.473 65.2134 171.661 65.6103L172.582 67.52L173.63 65.6103C173.885 65.146 173.63 64.9288 173.196 64.9288V64.7266H174.761V64.9288C174.552 64.9288 174.342 65.0261 174.14 65.3931L172.874 67.6698C172.805 67.846 172.774 68.0349 172.784 68.224V69.0777C172.784 69.7817 172.784 69.7443 173.436 69.8266V70.0288H171.391V69.8266V69.8491Z" fill="#011F5B"/>
<path d="M176.012 69.8491C176.701 69.7667 176.671 69.8042 176.671 69.1002V65.6777C176.671 64.9737 176.671 65.0111 176.012 64.9288V64.7266H178.064V64.9288C177.375 65.0111 177.405 64.9737 177.405 65.6777V69.22C177.405 69.7517 177.705 69.8042 178.379 69.8042C179.48 69.8042 179.435 69.4971 179.787 68.6808H179.982L179.75 70.0513H176.005V69.8491H176.012Z" fill="#011F5B"/>
<path d="M182.633 64.9193C182.214 64.9193 181.884 65.0392 182.161 65.7656C182.453 66.6643 182.91 68.0123 183.292 69.1282C183.779 67.9674 184.244 66.7916 184.715 65.6308C184.903 65.1515 184.715 64.8819 184.191 64.8819V64.6797H185.831V64.8819C185.691 64.8778 185.553 64.9205 185.439 65.0031C185.325 65.0858 185.242 65.2038 185.202 65.3387C184.558 66.8965 183.914 68.4467 183.277 70.0044H182.888C182.423 68.6864 181.907 67.2185 181.442 65.9304C181.165 65.1141 180.925 64.8819 180.566 64.8819V64.6797H182.633V64.8819V64.9193Z" fill="#011F5B"/>
<path d="M188.932 68.0052L188.131 65.5338L187.225 68.0052H188.932ZM187.097 68.2898L186.745 69.3083C186.716 69.3694 186.703 69.4374 186.708 69.5052C186.714 69.5729 186.737 69.638 186.776 69.6937C186.815 69.7494 186.868 69.7937 186.93 69.8221C186.992 69.8505 187.06 69.8618 187.127 69.855V70.0572H185.742V69.855C185.859 69.8496 185.972 69.8117 186.068 69.7456C186.165 69.6794 186.241 69.5876 186.288 69.4805C186.618 68.8065 187.502 66.3201 188.139 64.6426H188.565C189.082 66.1404 189.854 68.5144 190.116 69.1885C190.281 69.6153 190.401 69.855 190.73 69.855V70.0572H188.955V69.855C189.434 69.855 189.479 69.6078 189.359 69.2708L189.03 68.2898H187.097Z" fill="#011F5B"/>
<path d="M196.58 70.0445L192.88 65.6559V69.0185C192.885 69.1542 192.9 69.2893 192.925 69.4229C192.962 69.7 193.224 69.8048 193.726 69.8423V70.0445H191.861V69.8423C192.228 69.8423 192.475 69.7 192.513 69.4229C192.537 69.2893 192.552 69.1542 192.558 69.0185V65.4162C192.468 65.2623 192.34 65.134 192.187 65.0435C192.034 64.9531 191.859 64.9035 191.681 64.8995V64.6973H193.06C194.198 66.0753 195.374 67.4757 196.505 68.8462V65.7457C196.499 65.6076 196.484 65.47 196.46 65.3338C196.423 65.0642 196.168 64.9594 195.666 64.9219V64.7197H197.524V64.9219C197.172 64.9219 196.909 65.0642 196.872 65.3338C196.848 65.47 196.833 65.6076 196.827 65.7457V70.0445H196.58Z" fill="#011F5B"/>
<path d="M200.175 69.1002C200.175 69.8042 200.175 69.7667 200.834 69.8491V70.0513H198.79V69.8491C199.471 69.7667 199.441 69.8042 199.441 69.1002V65.6777C199.441 64.9737 199.441 65.0111 198.79 64.9288V64.7266H200.834V64.9288C200.153 65.0111 200.175 64.9737 200.175 65.6777V69.1002Z" fill="#011F5B"/>
<path d="M205.194 68.0052L204.392 65.5338L203.456 68.0052H205.194ZM203.359 68.2898L203.007 69.3083C202.977 69.3694 202.964 69.4374 202.969 69.5052C202.975 69.5729 202.998 69.638 203.037 69.6937C203.076 69.7494 203.129 69.7937 203.191 69.8221C203.253 69.8505 203.321 69.8618 203.389 69.855V70.0572H202.003V69.855C202.12 69.8496 202.233 69.8117 202.33 69.7456C202.426 69.6794 202.502 69.5876 202.55 69.4805C202.879 68.8065 203.771 66.3201 204.4 64.6426H204.827C205.343 66.1404 206.115 68.5144 206.377 69.1885C206.542 69.6153 206.662 69.855 206.991 69.855V70.0572H205.224V69.855C205.696 69.855 205.74 69.6078 205.621 69.2708L205.299 68.2898H203.359Z" fill="#011F5B"/>
<path d="M63.6763 6.99805H7.21619V35.1346C7.21619 47.3867 13.9572 56.2613 19.6722 61.5486C25.9413 67.3601 32.8547 70.7078 35.1616 71.217L35.4462 71.2769L35.7309 71.2095C38.0378 70.7078 44.9511 67.3601 51.2203 61.5486C56.9202 56.2613 63.7137 47.3867 63.6763 35.1346V6.99805Z" fill="white"/>
<path d="M60.2008 18.7708C60.2865 18.834 60.3623 18.9098 60.4255 18.9955C60.4887 19.091 60.5223 19.203 60.5223 19.3175C60.5223 19.432 60.4887 19.544 60.4255 19.6395C60.3623 19.7253 60.2865 19.801 60.2008 19.8642C60.0735 19.9616 59.9536 20.0589 59.9536 20.2237V21.2197H48.1119V20.2237C48.1119 20.0589 47.992 19.9616 47.8647 19.8642C47.7767 19.8012 47.6984 19.7254 47.6325 19.6395C47.5736 19.5371 47.5452 19.42 47.5505 19.3019C47.5558 19.1839 47.5946 19.0698 47.6625 18.973C47.7284 18.8871 47.8066 18.8114 47.8946 18.7483C48.022 18.651 48.1418 18.5536 48.1418 18.3889V15.1386C48.1418 14.9738 48.022 14.884 47.8946 14.7791C47.8052 14.7208 47.7266 14.6473 47.6625 14.5619C47.599 14.4641 47.5676 14.3489 47.5726 14.2324C47.5687 14.1184 47.6001 14.0059 47.6625 13.9104C47.7206 13.8408 47.7887 13.7802 47.8647 13.7306C47.992 13.6333 48.1119 13.5359 48.1119 13.3712V12.3002H48.2617C48.843 12.3404 49.4267 12.2744 49.9844 12.1055C50.1594 12.025 50.3273 11.9298 50.4862 11.8209C50.8888 11.5243 51.372 11.3571 51.8719 11.3416C52.3441 11.3681 52.8069 11.4851 53.2351 11.6861C53.4711 11.8005 53.724 11.8764 53.9841 11.9108H54.0665C54.3263 11.8755 54.5791 11.7997 54.8155 11.6861C55.2406 11.4842 55.7012 11.3672 56.1712 11.3416C56.6745 11.3573 57.1608 11.5272 57.5643 11.8284C57.7232 11.9352 57.8911 12.028 58.0661 12.1055C58.6211 12.275 59.2025 12.341 59.7814 12.3002H59.9387V13.3337C59.9387 13.4985 60.0585 13.5958 60.1858 13.6932C60.2714 13.7537 60.3472 13.8269 60.4105 13.9104C60.4762 14.0076 60.5102 14.1227 60.5079 14.2399C60.5091 14.3547 60.4751 14.4671 60.4105 14.5619C60.3491 14.6471 60.273 14.7206 60.1858 14.7791C60.0585 14.884 59.9387 14.9738 59.9387 15.1386V18.4113C59.9387 18.5761 60.0585 18.6734 60.1858 18.7708H60.2008ZM45.6851 20.4708C45.0291 21.4066 44.0452 22.0615 42.9287 22.3057C42.5774 22.3656 42.2216 22.3957 41.8651 22.3955C40.0226 22.3955 38.3149 21.5942 36.6221 20.703L35.978 20.351C34.8769 19.7519 33.334 18.9056 32.0307 18.9056C31.6619 18.897 31.2966 18.9793 30.9671 19.1453H30.9147V19.2052C30.9087 19.3685 30.8784 19.5301 30.8248 19.6845C30.536 20.2383 30.1171 20.7138 29.6039 21.07C28.7845 21.7608 27.7608 22.1634 26.6903 22.2158C26.5273 22.2195 26.365 22.1942 26.2109 22.1409C26.0052 22.074 25.8231 21.9492 25.6866 21.7814C25.6254 21.6943 25.5728 21.6015 25.5293 21.5043C25.4981 21.4195 25.4755 21.3316 25.4619 21.2422V21.1748H25.3945C25.1989 21.1483 25.0181 21.056 24.882 20.9131C24.7458 20.7701 24.6624 20.5851 24.6455 20.3885C24.6854 20.0998 24.826 19.8346 25.0425 19.6395C25.3421 19.2801 25.5967 18.973 25.1773 18.5761L25.0425 18.4712C24.9799 18.4276 24.9221 18.3774 24.8702 18.3215C24.5032 17.9245 24.7204 17.1007 24.8702 16.6065V16.5465C25.0343 15.9553 25.2603 15.383 25.5443 14.839C25.9233 13.9562 26.4731 13.157 27.1622 12.4875H27.2146C27.2146 12.4875 27.252 12.4875 27.2595 12.4875L27.4618 12.8095L27.5816 13.0117L27.649 12.7945C27.7123 12.5444 27.8324 12.3123 27.9999 12.1162C28.1675 11.92 28.3781 11.7652 28.6152 11.6637C28.8085 11.608 29.0123 11.6001 29.2093 11.6405C29.4063 11.681 29.5905 11.7686 29.7462 11.8958L29.8361 11.9632L29.9035 11.8659C29.9849 11.7141 30.1043 11.586 30.2501 11.4941C30.3958 11.4022 30.5628 11.3497 30.7349 11.3416C30.9369 11.3492 31.1352 11.3976 31.318 11.4838C31.5008 11.57 31.6642 11.6923 31.7985 11.8434L31.8659 11.9108L31.9408 11.8509C32.3024 11.5139 32.7798 11.3288 33.274 11.3341C33.4645 11.3691 33.6409 11.4584 33.7817 11.5912C33.9226 11.7241 34.022 11.8949 34.068 12.083V12.2029L34.1803 12.143C34.3635 12.0406 34.5698 11.9869 34.7796 11.9869C34.9893 11.9869 35.1956 12.0406 35.3788 12.143C35.4963 12.2253 35.5878 12.3396 35.6422 12.4724C35.6966 12.6051 35.7118 12.7507 35.6858 12.8919V13.0342H35.8207C36.0534 12.975 36.2965 12.9699 36.5315 13.0192C36.7665 13.0685 36.9871 13.171 37.1764 13.3187C37.2934 13.4478 37.3793 13.6021 37.4273 13.7696C37.4754 13.9371 37.4843 14.1133 37.4535 14.2848V14.4196H37.5883C37.7573 14.3807 37.934 14.391 38.0973 14.4494C38.2606 14.5078 38.4037 14.6119 38.5096 14.7492C38.5671 14.8646 38.6007 14.9904 38.6084 15.119C38.6161 15.2477 38.5978 15.3766 38.5545 15.4981V15.6029H38.6594C38.7813 15.6179 38.8977 15.6626 38.9983 15.7331C39.0989 15.8036 39.1805 15.8978 39.2361 16.0073C39.2996 16.2917 39.2788 16.5884 39.1762 16.8611V16.9584L39.2586 16.9959C39.509 17.0886 39.7168 17.2698 39.8428 17.5052C39.9206 17.6729 39.9609 17.8557 39.9609 18.0406C39.9609 18.2256 39.9206 18.4083 39.8428 18.5761V18.6435L39.8953 18.6959C40.2922 19.0404 40.6892 19.3624 41.0787 19.647C41.8277 20.2162 43.0935 20.5233 43.9249 19.8343C44.0869 19.6902 44.2056 19.504 44.2678 19.2963C44.33 19.0887 44.3331 18.8678 44.2769 18.6585C44.2458 18.4772 44.1616 18.3093 44.0349 18.176C43.9082 18.0426 43.7448 17.9499 43.5654 17.9096C42.9287 17.7673 42.4344 18.3664 42.0224 18.973C42.0131 18.9776 42.0029 18.98 41.9925 18.98C41.9821 18.98 41.9718 18.9776 41.9625 18.973C41.9401 18.9649 41.9215 18.949 41.9101 18.9281C41.7188 18.596 41.6089 18.2234 41.5894 17.8407C41.5699 17.458 41.6413 17.0761 41.7977 16.7263C41.9655 16.4724 42.1862 16.2579 42.4448 16.0976C42.7035 15.9373 42.9938 15.835 43.2957 15.7976H43.3856V15.7078C43.3449 15.2947 43.3904 14.8778 43.5194 14.4833C43.6483 14.0888 43.8578 13.7254 44.1346 13.4161C44.3865 13.2042 44.6832 13.0522 45.0024 12.9718C45.3216 12.8914 45.655 12.8845 45.9772 12.9518C45.9916 12.946 46.0077 12.946 46.0221 12.9518C46.0297 12.971 46.0297 12.9924 46.0221 13.0117C45.7303 13.5888 45.5665 14.2222 45.542 14.8684C45.5174 15.5147 45.6326 16.1586 45.8798 16.7562C45.8798 16.8761 45.9472 17.0109 45.9847 17.1457C46.1692 17.6902 46.2378 18.2673 46.1862 18.8399C46.1346 19.4125 45.9639 19.968 45.6851 20.4708ZM23.0276 18.7708C23.1157 18.8339 23.1939 18.9096 23.2598 18.9955C23.3187 19.0926 23.3498 19.204 23.3498 19.3175C23.3498 19.4311 23.3187 19.5424 23.2598 19.6395C23.1939 19.7254 23.1157 19.8012 23.0276 19.8642C22.9003 19.9616 22.7805 20.0589 22.7805 20.2237V21.2197H10.9612V20.2237C10.9612 20.0589 10.8413 19.9616 10.714 19.8642C10.6283 19.801 10.5525 19.7253 10.4893 19.6395C10.4261 19.544 10.3925 19.432 10.3925 19.3175C10.3925 19.203 10.4261 19.091 10.4893 18.9955C10.5525 18.9098 10.6283 18.834 10.714 18.7708C10.8413 18.6734 10.9612 18.5761 10.9612 18.4113V15.1386C10.9612 14.9738 10.8413 14.884 10.714 14.7791C10.6268 14.7206 10.5507 14.6471 10.4893 14.5619C10.4237 14.4647 10.3896 14.3497 10.3919 14.2324C10.3907 14.1176 10.4247 14.0053 10.4893 13.9104C10.5485 13.8418 10.6165 13.7814 10.6915 13.7306C10.8188 13.6333 10.9387 13.5359 10.9387 13.3712V12.3002H11.096C11.6748 12.341 12.2562 12.275 12.8112 12.1055C12.9879 12.0283 13.1561 11.9329 13.313 11.8209C13.719 11.5254 14.2043 11.3584 14.7062 11.3416C15.1762 11.3672 15.6367 11.4842 16.0619 11.6861C16.2983 11.7997 16.551 11.8755 16.8109 11.9108H16.8933C17.153 11.8749 17.4057 11.7991 17.6423 11.6861C18.0675 11.4842 18.528 11.3672 18.998 11.3416C19.4993 11.3559 19.9836 11.5261 20.3837 11.8284C20.5444 11.9322 20.7121 12.0247 20.8855 12.1055C21.4432 12.2744 22.0269 12.3404 22.6082 12.3002H22.758V13.3337C22.758 13.4985 22.8778 13.5958 23.0052 13.6932C23.0947 13.7515 23.1733 13.825 23.2374 13.9104C23.3008 14.0082 23.3322 14.1234 23.3272 14.2399C23.3312 14.3539 23.2998 14.4664 23.2374 14.5619C23.1733 14.6473 23.0947 14.7208 23.0052 14.7791C22.8778 14.884 22.758 14.9738 22.758 15.1386V18.4113C22.758 18.5761 22.8778 18.6734 23.0052 18.7708H23.0276ZM8.64673 8.48828C8.64673 8.48828 8.72163 24.8445 8.64673 24.7696H62.2531V8.48828H8.64673Z" fill="#990000"/>
<path d="M27.1099 18.068C27.3094 18.0665 27.5031 18.1354 27.6567 18.2628C27.7124 18.3064 27.765 18.354 27.814 18.405C27.8431 18.4317 27.8663 18.4641 27.8821 18.5002C27.898 18.5363 27.9062 18.5753 27.9062 18.6147C27.9062 18.6542 27.898 18.6932 27.8821 18.7293C27.8663 18.7654 27.8431 18.7978 27.814 18.8244C27.6792 18.9368 27.5294 19.0416 27.432 19.109C27.2148 19.2588 26.8403 19.5284 26.5856 19.3187C26.4508 19.2064 26.713 19.0266 26.5856 18.5698C26.4583 18.113 26.8403 18.0605 27.1099 18.0605V18.068Z" fill="#011F5B"/>
<path d="M27.1997 12.8085C26.6099 13.4371 26.1312 14.1614 25.7841 14.9504C25.5073 15.4793 25.2888 16.0368 25.1325 16.6129V16.6728C25.0276 17.0548 24.8104 17.8636 25.1325 18.1707C25.1767 18.2142 25.2243 18.2543 25.2748 18.2905C25.3279 18.3263 25.378 18.3663 25.4246 18.4103C26.0088 18.9645 25.6044 19.4438 25.3047 19.7958C25.1344 19.9508 25.0166 20.155 24.9677 20.38C24.9677 20.7919 25.4695 20.9341 25.6193 20.9716C25.6552 20.9781 25.6879 20.9964 25.7123 21.0235C25.7367 21.0506 25.7514 21.085 25.7542 21.1214C25.7574 21.2263 25.7777 21.33 25.8141 21.4284C25.8458 21.5066 25.8887 21.5797 25.9414 21.6456C26.0483 21.78 26.1911 21.8813 26.3534 21.9377C26.4634 21.9668 26.5766 21.9819 26.6904 21.9826C27.6867 21.926 28.639 21.5535 29.4093 20.9192C29.8863 20.5954 30.275 20.1578 30.5403 19.646C30.5835 19.5329 30.6112 19.4145 30.6227 19.294L29.8737 19.1667C29.8263 19.1635 29.7816 19.1437 29.7474 19.1108C29.7132 19.078 29.6916 19.0341 29.6864 18.987C29.6864 18.8297 29.7988 18.7398 30.0684 18.5526L30.3156 18.3804C30.7126 18.0883 31.0646 17.8486 31.2294 17.7213C31.0288 17.4856 30.846 17.2353 30.6826 16.9724C30.5923 16.8236 30.4922 16.681 30.383 16.5455C30.1929 16.3189 29.931 16.1641 29.6408 16.1069C29.3506 16.0497 29.0495 16.0935 28.7876 16.231C28.5741 16.3838 28.3737 16.5542 28.1884 16.7403C28.0239 16.8946 27.8487 17.0373 27.6641 17.1671C27.6288 17.1882 27.5872 17.1959 27.5466 17.1889C27.5061 17.1819 27.4695 17.1607 27.4433 17.1291C27.417 17.0974 27.403 17.0575 27.4037 17.0164C27.4043 16.9753 27.4197 16.9358 27.4469 16.905L27.5368 16.8301C27.784 16.5905 28.3607 16.0438 28.3607 15.6618C28.1811 14.6343 27.7854 13.6567 27.1997 12.7935V12.8085ZM32.0084 18.6949C33.3416 18.6949 34.8621 19.5262 36.053 20.1927L36.6896 20.5372C38.7269 21.5857 40.7268 22.4994 42.8839 22.1174C43.9366 21.8824 44.8651 21.2662 45.4905 20.3874C45.7559 19.9084 45.9189 19.3795 45.9692 18.8342C46.0195 18.2888 45.9559 17.739 45.7826 17.2196L45.6702 16.8301C45.44 16.2451 45.328 15.6201 45.3409 14.9915C45.3537 14.3629 45.4911 13.7431 45.7451 13.168C45.4901 13.1377 45.2317 13.1599 44.9856 13.2333C44.7396 13.3067 44.5112 13.4298 44.3145 13.5948C44.0464 13.8983 43.8473 14.2564 43.7309 14.6442C43.6145 15.0321 43.5837 15.4406 43.6404 15.8416C43.641 15.8845 43.6262 15.9262 43.5988 15.9591C43.5713 15.9921 43.5329 16.0141 43.4906 16.0213C43.1934 16.0337 42.9032 16.1153 42.6432 16.2596C42.3831 16.4039 42.1603 16.607 41.9926 16.8526C41.8606 17.1152 41.7881 17.4037 41.7804 17.6976C41.7726 17.9914 41.8297 18.2834 41.9477 18.5526C42.2772 18.1033 42.8315 17.4966 43.543 17.6539C43.7648 17.7048 43.9671 17.8189 44.1253 17.9824C44.2835 18.1459 44.3908 18.3518 44.4344 18.5751C44.4997 18.8275 44.4945 19.093 44.4192 19.3426C44.3439 19.5922 44.2015 19.8163 44.0074 19.9905C43.0787 20.7394 41.7604 20.4324 40.8691 19.8033C39.7464 18.9647 38.7169 18.0081 37.7982 16.9499C37.6184 16.7403 37.4312 16.5306 37.2589 16.3209C36.6101 15.5186 35.8824 14.7835 35.0868 14.1266C33.9753 13.3167 32.6174 12.9171 31.2444 12.9957C30.1617 13.032 29.1014 13.3137 28.1435 13.8195C28.4546 14.3942 28.6458 15.026 28.7052 15.6768C28.7017 15.7737 28.684 15.8696 28.6528 15.9614C28.9806 15.7914 29.3565 15.7381 29.7186 15.8103C30.0808 15.8824 30.4076 16.0757 30.6452 16.3583C30.7679 16.5052 30.8805 16.6604 30.9822 16.8226C31.1618 17.121 31.3754 17.3974 31.6189 17.6464C31.653 17.683 31.6718 17.7312 31.6713 17.7812C31.669 17.8067 31.6611 17.8313 31.6482 17.8533C31.6352 17.8753 31.6175 17.8942 31.5964 17.9085C31.5964 17.9085 31.1545 18.2231 30.5328 18.6575L30.2781 18.8372H30.2332L30.78 18.9271C31.1574 18.7253 31.5805 18.6247 32.0084 18.635V18.6949ZM41.8653 22.5293C40.0152 22.5293 38.285 21.728 36.5398 20.8218L35.8882 20.4848C34.4801 19.7359 32.3604 18.5526 30.9822 19.2791C30.9712 19.4529 30.9359 19.6243 30.8774 19.7883C30.5865 20.3685 30.1536 20.8657 29.619 21.2337C28.7864 21.9057 27.7595 22.2917 26.6904 22.3346C26.5152 22.3377 26.3407 22.3124 26.1736 22.2597C25.9491 22.182 25.7516 22.0417 25.6044 21.8553C25.5339 21.7635 25.4759 21.6628 25.4321 21.5557C25.3967 21.4639 25.3716 21.3685 25.3572 21.2712C25.1447 21.2318 24.9514 21.1228 24.8076 20.9615C24.6639 20.8001 24.5779 20.5955 24.5632 20.38C24.6022 20.0711 24.7511 19.7867 24.9827 19.5786C25.3122 19.1817 25.462 18.9795 25.125 18.6575L25.0051 18.5601C24.9374 18.5144 24.8746 18.4617 24.8179 18.4028C24.4059 17.961 24.6306 17.0997 24.773 16.583V16.5306C24.9333 15.9284 25.1593 15.3458 25.4471 14.7931C25.8373 13.9003 26.3969 13.0915 27.0949 12.4116C27.1381 12.3941 27.1865 12.3941 27.2297 12.4116C27.2779 12.4199 27.3209 12.4468 27.3495 12.4864C27.3495 12.5239 27.6641 12.9657 27.9637 13.5499C28.9701 13.0357 30.0774 12.7493 31.2069 12.7111C32.6649 12.5988 34.1158 13.0045 35.304 13.8569C36.1288 14.526 36.8819 15.2789 37.551 16.1037L38.0903 16.7178C38.9843 17.7597 39.9888 18.7013 41.0863 19.5262C41.8353 20.0804 43.0187 20.3725 43.8052 19.7209C43.951 19.5886 44.0576 19.4186 44.1131 19.2297C44.1686 19.0407 44.1709 18.8401 44.1198 18.65C44.09 18.4902 44.0148 18.3424 43.9033 18.2242C43.7917 18.106 43.6484 18.0224 43.4906 17.9834C42.9214 17.8636 42.4495 18.4328 42.06 19.0094C42.0423 19.0342 42.0186 19.0541 41.991 19.0672C41.9635 19.0803 41.9331 19.0862 41.9027 19.0843C41.8722 19.0799 41.8432 19.0681 41.8184 19.0498C41.7936 19.0315 41.7737 19.0073 41.7604 18.9795C41.5701 18.6276 41.4668 18.2353 41.459 17.8354C41.4512 17.4354 41.5391 17.0394 41.7155 16.6803C41.8944 16.4126 42.1287 16.1864 42.4027 16.0171C42.6767 15.8479 42.9838 15.7395 43.3034 15.6993C43.2507 15.273 43.2903 14.8404 43.4196 14.4308C43.5488 14.0212 43.7646 13.6441 44.0524 13.3252C44.3176 13.1048 44.6289 12.9467 44.9633 12.8624C45.2977 12.7782 45.6468 12.77 45.9848 12.8384C46.0197 12.8295 46.0565 12.8329 46.0893 12.8478C46.122 12.8628 46.1485 12.8886 46.1646 12.9208C46.1753 12.9443 46.1809 12.9699 46.1809 12.9957C46.1809 13.0216 46.1753 13.0471 46.1646 13.0706C45.8787 13.6333 45.7173 14.251 45.6915 14.8816C45.6656 15.5122 45.7759 16.1411 46.0148 16.7253C46.0148 16.8526 46.0897 16.9799 46.1196 17.1147C46.3119 17.6782 46.3819 18.2762 46.3251 18.8689C46.2683 19.4616 46.0859 20.0355 45.7901 20.5522C45.1181 21.5157 44.1068 22.1898 42.9588 22.4395C42.6024 22.4991 42.2416 22.5291 41.8803 22.5293H41.8653Z" fill="#011F5B"/>
<path d="M26.0462 21.3477C25.8841 21.3587 25.7215 21.3587 25.5594 21.3477C25.537 21.3459 25.5152 21.3395 25.4954 21.329C25.4756 21.3185 25.4581 21.304 25.4441 21.2865C25.43 21.2689 25.4197 21.2487 25.4138 21.227C25.4079 21.2054 25.4064 21.1828 25.4096 21.1605C25.4152 21.1161 25.4379 21.0757 25.4729 21.0477C25.5078 21.0197 25.5523 21.0065 25.5968 21.0107C26.1281 21.0794 26.6681 21.0193 27.1713 20.8355C27.6745 20.6518 28.1261 20.3497 28.488 19.9548C28.5222 19.9248 28.5661 19.9082 28.6116 19.9082C28.6571 19.9082 28.701 19.9248 28.7352 19.9548C28.7668 19.9882 28.7844 20.0324 28.7844 20.0783C28.7844 20.1243 28.7668 20.1685 28.7352 20.2019C28.3895 20.5675 27.9725 20.8585 27.5101 21.0568C27.0476 21.2552 26.5494 21.3567 26.0462 21.3552V21.3477Z" fill="#011F5B"/>
<path d="M39.7157 18.7941H39.6483C39.6117 18.7749 39.5832 18.7431 39.5681 18.7046C39.5529 18.6661 39.5522 18.6235 39.5659 18.5844C39.6514 18.4329 39.7024 18.2645 39.7154 18.091C39.7283 17.9176 39.7029 17.7434 39.6408 17.5809C39.5781 17.4696 39.4932 17.3723 39.3914 17.295C39.2897 17.2177 39.1732 17.1621 39.0491 17.1316C39.0055 17.1173 38.9684 17.0881 38.9442 17.0492C38.9294 17.008 38.9294 16.963 38.9442 16.9219C39.0556 16.6493 39.0943 16.3526 39.0566 16.0606C38.9817 15.8584 38.5997 15.776 38.4798 15.761C38.4553 15.7569 38.4319 15.7475 38.4113 15.7335C38.3907 15.7195 38.3734 15.7012 38.3606 15.6798C38.3478 15.6584 38.3398 15.6346 38.3371 15.6098C38.3344 15.585 38.3371 15.56 38.345 15.5364C38.4491 15.3183 38.4626 15.0679 38.3825 14.8399C38.1278 14.443 37.4687 14.6377 37.4612 14.6377C37.4334 14.6462 37.4038 14.6466 37.3759 14.6386C37.3479 14.6306 37.3229 14.6147 37.3039 14.5927C37.2884 14.5694 37.2802 14.5421 37.2802 14.5141C37.2802 14.4861 37.2884 14.4588 37.3039 14.4355C37.3552 14.2696 37.3656 14.0937 37.3343 13.9229C37.303 13.7521 37.2309 13.5914 37.1241 13.4544C36.6373 12.9901 35.6786 13.2522 35.6786 13.2597C35.6508 13.2683 35.6212 13.2686 35.5932 13.2606C35.5653 13.2526 35.5403 13.2367 35.5213 13.2148C35.5058 13.1914 35.4976 13.1641 35.4976 13.1361C35.4976 13.1081 35.5058 13.0808 35.5213 13.0575C35.5213 13.0575 35.6786 12.5407 35.349 12.3086C35.1626 12.2171 34.9542 12.1798 34.7476 12.201C34.541 12.2222 34.3445 12.301 34.1806 12.4284C34.1564 12.4415 34.1294 12.4484 34.1019 12.4484C34.0744 12.4484 34.0474 12.4415 34.0233 12.4284C33.9975 12.4182 33.9753 12.4008 33.9593 12.3781C33.9434 12.3555 33.9344 12.3287 33.9334 12.3011C33.9334 12.3011 33.8435 11.6271 33.2668 11.5522C32.7875 11.5691 32.3325 11.7672 31.9935 12.1064C31.9784 12.1227 31.9597 12.1353 31.9389 12.1431C31.9181 12.1509 31.8957 12.1537 31.8736 12.1513C31.8505 12.1508 31.8277 12.1451 31.807 12.1347C31.7863 12.1244 31.7681 12.1096 31.7538 12.0914C31.6387 11.9361 31.4915 11.8075 31.3222 11.7145C31.1528 11.6214 30.9653 11.566 30.7726 11.5522C30.6079 11.5671 30.4506 11.6276 30.3184 11.7268C30.1861 11.826 30.084 11.96 30.0236 12.1139C30.0164 12.1393 30.002 12.1621 29.982 12.1794C29.962 12.1967 29.9374 12.2078 29.9112 12.2112C29.8851 12.2184 29.8576 12.2187 29.8314 12.2121C29.8052 12.2056 29.7811 12.1924 29.7614 12.1738C29.6245 12.0369 29.4551 11.937 29.2692 11.8833C29.0832 11.8296 28.8866 11.8239 28.6978 11.8667C28.0237 12.1139 27.8365 12.9377 27.7691 13.2073C27.7585 13.2466 27.733 13.2803 27.6981 13.3012C27.6632 13.3222 27.6215 13.3288 27.5818 13.3196C27.5611 13.3162 27.5414 13.3084 27.5239 13.2969C27.5065 13.2853 27.4916 13.2702 27.4803 13.2526C27.469 13.235 27.4615 13.2151 27.4584 13.1944C27.4552 13.1737 27.4564 13.1526 27.462 13.1324C27.5077 12.7978 27.6346 12.4795 27.8318 12.2053C28.029 11.9312 28.2903 11.7095 28.593 11.5597C28.8022 11.4964 29.0239 11.4859 29.2382 11.529C29.4525 11.5721 29.6528 11.6675 29.8213 11.8068C29.9155 11.64 30.0497 11.4992 30.2118 11.3972C30.374 11.2953 30.559 11.2353 30.7501 11.2227C30.9761 11.2262 31.1986 11.2782 31.4028 11.3751C31.6069 11.472 31.7879 11.6116 31.9335 11.7843C32.3177 11.428 32.8252 11.2347 33.3492 11.2451C33.5489 11.29 33.7324 11.3894 33.8791 11.5321C34.0259 11.6749 34.1302 11.8555 34.1806 12.0539C34.3775 11.9402 34.601 11.8804 34.8284 11.8804C35.0559 11.8804 35.2793 11.9402 35.4763 12.0539C35.6102 12.1448 35.7151 12.2721 35.7789 12.4207C35.8426 12.5694 35.8624 12.7332 35.8359 12.8927C36.0847 12.8289 36.3449 12.8241 36.5959 12.8787C36.8469 12.9333 37.0817 13.0458 37.2814 13.2073C37.4097 13.3482 37.5041 13.5167 37.5573 13.6997C37.6105 13.8827 37.6212 14.0755 37.5885 14.2632C37.7782 14.2217 37.9758 14.2356 38.1578 14.3033C38.3397 14.371 38.4984 14.4897 38.6147 14.6452C38.6815 14.7694 38.7213 14.9063 38.7316 15.0469C38.742 15.1876 38.7225 15.3288 38.6746 15.4615C38.8126 15.4835 38.9435 15.5377 39.0567 15.6197C39.1699 15.7017 39.2622 15.8091 39.3262 15.9333C39.3903 16.2426 39.3696 16.5635 39.2663 16.8619C39.5373 16.9657 39.7629 17.162 39.903 17.4161C39.9872 17.6213 40.0249 17.8426 40.0133 18.064C40.0016 18.2855 39.9409 18.5016 39.8355 18.6968C39.8239 18.7251 39.8042 18.7494 39.7789 18.7667C39.7536 18.784 39.7239 18.7935 39.6932 18.7941H39.7157Z" fill="#011F5B"/>
<path d="M38.9215 20.9942C38.9011 20.9923 38.8813 20.9864 38.8632 20.9766C38.8452 20.9668 38.8294 20.9534 38.8168 20.9373C38.8041 20.9211 38.7949 20.9025 38.7898 20.8827C38.7846 20.8629 38.7835 20.8422 38.7867 20.8219C38.8541 20.2078 38.5021 20.073 38.18 19.9981C38.1063 19.9814 38.0356 19.9536 37.9703 19.9157C37.798 19.8184 37.798 19.6162 37.7905 19.4065C37.8115 19.1642 37.745 18.9225 37.6033 18.725C37.3037 18.3954 36.7194 18.6126 36.712 18.6126C36.6876 18.6251 36.6607 18.6316 36.6333 18.6316C36.606 18.6316 36.579 18.6251 36.5547 18.6126C36.5328 18.5951 36.5163 18.5717 36.507 18.5452C36.4977 18.5188 36.4961 18.4902 36.5022 18.4628C36.5264 18.2885 36.5121 18.1111 36.4603 17.9429C36.4086 17.7747 36.3206 17.6198 36.2026 17.4893C35.8653 17.2936 35.4649 17.2372 35.0866 17.332C35.0657 17.3425 35.0426 17.348 35.0192 17.348C34.9958 17.348 34.9727 17.3425 34.9518 17.332C34.932 17.3157 34.9163 17.2951 34.9059 17.2717C34.8955 17.2483 34.8907 17.2228 34.8919 17.1972C34.9136 17.0162 34.8844 16.8327 34.8077 16.6674C34.731 16.502 34.6097 16.3613 34.4574 16.261C34.34 16.1771 34.2017 16.1271 34.0577 16.1165C33.9136 16.1059 33.7695 16.1352 33.641 16.2011C33.4046 16.3912 33.1053 16.4852 32.8026 16.4643C32.5 16.4435 32.2163 16.3094 32.0082 16.0888C31.9186 16.0151 31.8131 15.9632 31.7 15.9372C31.5869 15.9112 31.4694 15.9118 31.3566 15.939C31.2016 15.9959 31.0602 16.0846 30.9415 16.1994C30.8228 16.3142 30.7295 16.4525 30.6675 16.6055C30.6481 16.6438 30.6146 16.6731 30.5741 16.6871C30.5335 16.7011 30.4891 16.6987 30.4503 16.6804C30.4138 16.6612 30.3859 16.629 30.372 16.5902C30.3582 16.5513 30.3594 16.5087 30.3754 16.4707C30.4572 16.2732 30.5805 16.0954 30.7368 15.9494C30.8932 15.8035 31.0789 15.6927 31.2817 15.6245C31.4395 15.589 31.6032 15.5887 31.7611 15.6237C31.919 15.6586 32.0673 15.7279 32.1954 15.8267C32.7797 16.2461 32.9445 16.2311 33.4912 15.9165C33.6706 15.827 33.8706 15.7868 34.0706 15.7999C34.2707 15.8131 34.4636 15.8792 34.6297 15.9914C34.8012 16.106 34.9433 16.2592 35.0448 16.4387C35.1463 16.6182 35.2042 16.819 35.2139 17.0249C35.4194 16.9869 35.6304 16.9899 35.8348 17.0336C36.0392 17.0772 36.2329 17.1608 36.4049 17.2796C36.5338 17.4035 36.6362 17.5525 36.7057 17.7173C36.7752 17.8821 36.8105 18.0593 36.8093 18.2382C36.985 18.1911 37.1699 18.1905 37.3458 18.2364C37.5218 18.2824 37.6828 18.3733 37.813 18.5003C38.0099 18.7481 38.1062 19.0609 38.0826 19.3765C38.0681 19.4608 38.0681 19.5469 38.0826 19.6311L38.225 19.6836C38.3568 19.7024 38.4834 19.7479 38.5971 19.8172C38.7109 19.8866 38.8092 19.9784 38.8863 20.087C38.9634 20.1956 39.0176 20.3187 39.0455 20.449C39.0735 20.5792 39.0746 20.7137 39.0489 20.8444C39.042 20.8814 39.0227 20.915 38.994 20.9396C38.9654 20.9641 38.9293 20.9781 38.8916 20.9792L38.9215 20.9942Z" fill="#011F5B"/>
<path d="M23.1251 19.3359C23.1308 19.4026 23.1122 19.4691 23.0727 19.5232C23.0222 19.5897 22.9615 19.6478 22.8929 19.6954C22.7971 19.7511 22.7164 19.8294 22.6576 19.9233C22.5989 20.0173 22.564 20.1241 22.5559 20.2346V20.9835H11.171V20.2346C11.1572 20.1307 11.1196 20.0314 11.0611 19.9443C11.0027 19.8573 10.9249 19.7849 10.8339 19.7329C10.7636 19.6874 10.7026 19.6289 10.6541 19.5606C10.6126 19.5073 10.5913 19.4409 10.5942 19.3734C10.592 19.3036 10.6131 19.2351 10.6541 19.1787C10.6999 19.102 10.7611 19.0357 10.8339 18.984C10.9297 18.9282 11.0105 18.85 11.0692 18.7561C11.1279 18.6621 11.1629 18.5552 11.171 18.4447V15.1495C11.1629 15.04 11.128 14.9342 11.0692 14.8414C11.0104 14.7486 10.9296 14.6718 10.8339 14.6178C10.7653 14.5702 10.7046 14.5121 10.6541 14.4456C10.612 14.3897 10.5908 14.3208 10.5942 14.2509C10.592 14.1811 10.6131 14.1126 10.6541 14.0561C10.703 13.9903 10.764 13.9343 10.8339 13.8914C10.9297 13.8357 11.0105 13.7574 11.0692 13.6635C11.1279 13.5695 11.1629 13.4627 11.171 13.3522V12.6032C11.4631 12.6032 11.7552 12.6032 12.0248 12.6032V20.0923H16.2043C16.2429 20.2397 16.3292 20.3702 16.4498 20.4632C16.5705 20.5563 16.7185 20.6068 16.8709 20.6068C17.0233 20.6068 17.1713 20.5563 17.2919 20.4632C17.4126 20.3702 17.4989 20.2397 17.5375 20.0923H21.687V12.6032C21.9566 12.6032 22.2413 12.6032 22.5409 12.6032V13.3522C22.549 13.4627 22.5839 13.5695 22.6426 13.6635C22.7014 13.7574 22.7821 13.8357 22.8779 13.8914C22.9464 13.9361 23.0072 13.9918 23.0577 14.0561C23.0966 14.1133 23.1151 14.1819 23.1101 14.2509C23.1163 14.3199 23.0977 14.3889 23.0577 14.4456C23.0052 14.5103 22.9448 14.5681 22.8779 14.6178C22.7823 14.6718 22.7015 14.7486 22.6427 14.8414C22.5839 14.9342 22.5489 15.04 22.5409 15.1495V18.4223C22.549 18.5328 22.5839 18.6396 22.6426 18.7336C22.7014 18.8276 22.7821 18.9058 22.8779 18.9615C22.9464 19.0062 23.0072 19.0619 23.0577 19.1263C23.0966 19.1834 23.1151 19.252 23.1101 19.321L23.1251 19.3359ZM12.9236 12.3636C13.112 12.2802 13.2925 12.1799 13.4629 12.064C13.8218 11.7918 14.2561 11.6375 14.7063 11.6222C15.1406 11.6501 15.5654 11.762 15.9571 11.9517C16.1973 12.057 16.4485 12.1349 16.7061 12.1839V18.7593H16.6687C16.2297 18.8315 15.7984 18.9443 15.3804 19.0963L14.8785 19.2536C14.3888 19.3747 13.8847 19.4277 13.3805 19.4108C13.0725 19.4046 12.7645 19.4221 12.4593 19.4633V12.5134C12.632 12.4839 12.8005 12.4336 12.9611 12.3636H12.9236ZM17.7622 11.9517C18.1565 11.7619 18.5838 11.65 19.0205 11.6222C19.4699 11.6417 19.903 11.7957 20.2639 12.064C20.4343 12.1799 20.6148 12.2802 20.8032 12.3636C20.9638 12.4336 21.1323 12.4839 21.305 12.5134V19.4633C20.9995 19.4246 20.6915 19.4096 20.3837 19.4183C19.8796 19.4348 19.3755 19.3819 18.8857 19.2611L18.3839 19.1038C17.9658 18.9518 17.5345 18.839 17.0956 18.7668V12.1764C17.3358 12.1292 17.5697 12.0538 17.7922 11.9517H17.7622ZM23.0951 18.6919C22.9678 18.587 22.8929 18.5196 22.8929 18.4148V15.1495C22.8929 15.0447 22.9678 14.9848 23.0951 14.8799C23.1941 14.8135 23.2804 14.7298 23.3498 14.6328C23.4155 14.5189 23.4501 14.3898 23.4501 14.2583C23.4501 14.1269 23.4155 13.9977 23.3498 13.8839C23.2804 13.7869 23.1941 13.7032 23.0951 13.6367C22.9678 13.5394 22.8929 13.472 22.8929 13.3671V12.2438H22.6308C22.0648 12.2814 21.4967 12.218 20.953 12.0565C20.7845 11.9756 20.6218 11.883 20.4661 11.7794C20.0462 11.4697 19.5421 11.2947 19.0205 11.2777C18.5355 11.3049 18.0602 11.4244 17.6199 11.6297C17.3841 11.7434 17.1309 11.8168 16.8709 11.8469H16.7885C16.5285 11.8168 16.2753 11.7434 16.0395 11.6297C15.6233 11.4179 15.1711 11.2858 14.7063 11.2402C14.1844 11.2558 13.6799 11.431 13.2607 11.742C13.105 11.8456 12.9424 11.9382 12.7738 12.0191C12.2323 12.1928 11.6642 12.2688 11.0961 12.2438H10.8339V13.3447C10.8339 13.4495 10.759 13.5169 10.6242 13.6143C10.5292 13.683 10.4457 13.7664 10.377 13.8614C10.2955 13.9742 10.2557 14.1119 10.2647 14.2509C10.2569 14.3873 10.2966 14.5223 10.377 14.6328C10.4457 14.7278 10.5292 14.8112 10.6242 14.8799C10.759 14.9848 10.8339 15.0447 10.8339 15.1495V18.4223C10.8339 18.5271 10.759 18.5945 10.6242 18.6994C10.5311 18.7674 10.4479 18.8481 10.377 18.939C10.296 19.0521 10.2564 19.1896 10.2647 19.3285C10.2569 19.4649 10.2966 19.5999 10.377 19.7104C10.4457 19.8054 10.5292 19.8888 10.6242 19.9575C10.759 20.0624 10.8339 20.1223 10.8339 20.2346V21.343H22.9004V20.2346C22.9004 20.1223 22.9753 20.0624 23.1026 19.9575C23.2016 19.8911 23.2879 19.8074 23.3573 19.7104C23.4315 19.5969 23.4706 19.4641 23.4696 19.3285C23.4687 19.1908 23.4298 19.056 23.3573 18.939C23.2857 18.8461 23.1997 18.7652 23.1026 18.6994L23.0951 18.6919Z" fill="#011F5B"/>
<path d="M60.2982 19.3359C60.3011 19.4035 60.2799 19.4699 60.2383 19.5232C60.1899 19.5915 60.1289 19.6499 60.0586 19.6954C59.9628 19.7511 59.882 19.8294 59.8233 19.9233C59.7645 20.0173 59.7296 20.1241 59.7215 20.2346V20.9835H48.3366V20.2346C48.3285 20.1241 48.2936 20.0173 48.2348 19.9233C48.1761 19.8294 48.0953 19.7511 47.9996 19.6954C47.931 19.6478 47.8703 19.5897 47.8198 19.5232C47.7803 19.4691 47.7617 19.4026 47.7674 19.3359C47.7624 19.267 47.7809 19.1984 47.8198 19.1412C47.8703 19.0769 47.931 19.0212 47.9996 18.9765C48.0953 18.9208 48.1761 18.8425 48.2348 18.7486C48.2936 18.6546 48.3285 18.5478 48.3366 18.4373V15.1495C48.3286 15.04 48.2936 14.9342 48.2348 14.8414C48.176 14.7486 48.0952 14.6718 47.9996 14.6178C47.9327 14.5681 47.8723 14.5103 47.8198 14.4456C47.7798 14.3889 47.7612 14.3199 47.7674 14.2509C47.7624 14.1819 47.7809 14.1133 47.8198 14.0561C47.8703 13.9918 47.931 13.9361 47.9996 13.8914C48.0953 13.8357 48.1761 13.7574 48.2348 13.6635C48.2936 13.5695 48.3285 13.4627 48.3366 13.3522V12.6032C48.6362 12.6032 48.9208 12.6032 49.198 12.6032V20.0923H53.34C53.3812 20.2384 53.469 20.3669 53.59 20.4585C53.711 20.55 53.8586 20.5996 54.0103 20.5996C54.1621 20.5996 54.3097 20.55 54.4307 20.4585C54.5517 20.3669 54.6395 20.2384 54.6807 20.0923H58.8227V12.6032C59.0923 12.6032 59.3845 12.6032 59.6766 12.6032V13.3522C59.6847 13.4627 59.7196 13.5695 59.7783 13.6635C59.8371 13.7574 59.9178 13.8357 60.0136 13.8914C60.0835 13.9343 60.1445 13.9903 60.1934 14.0561C60.2344 14.1126 60.2555 14.1811 60.2533 14.2509C60.2567 14.3208 60.2355 14.3897 60.1934 14.4456C60.1429 14.5121 60.0822 14.5702 60.0136 14.6178C59.918 14.6718 59.8372 14.7486 59.7784 14.8414C59.7196 14.9342 59.6846 15.04 59.6766 15.1495V18.4223C59.6847 18.5328 59.7196 18.6396 59.7783 18.7336C59.8371 18.8276 59.9178 18.9058 60.0136 18.9615C60.0835 19.0045 60.1445 19.0604 60.1934 19.1263C60.2344 19.1827 60.2555 19.2512 60.2533 19.321L60.2982 19.3359ZM50.0893 12.3636C50.2777 12.2802 50.4582 12.1799 50.6286 12.064C50.9895 11.7957 51.4226 11.6417 51.8719 11.6222C52.3087 11.65 52.7359 11.7619 53.1303 11.9517C53.3698 12.0585 53.6213 12.1364 53.8793 12.1839V18.7593C53.443 18.8326 53.0143 18.9454 52.5985 19.0963L52.0891 19.2536C51.5995 19.3751 51.0953 19.4281 50.5911 19.4108C50.2833 19.4024 49.9754 19.4175 49.6698 19.4558V12.5134C49.8426 12.4839 50.0111 12.4336 50.1717 12.3636H50.0893ZM54.9354 11.9517C55.327 11.762 55.7519 11.6501 56.1862 11.6222C56.626 11.6435 57.049 11.7976 57.3996 12.064C57.5709 12.1783 57.7513 12.2785 57.9389 12.3636C58.1021 12.4335 58.2731 12.4838 58.4482 12.5134V19.4633C58.1427 19.425 57.8347 19.4099 57.5269 19.4183C57.0227 19.4355 56.5185 19.3826 56.0289 19.2611L55.5196 19.1038C55.1037 18.9529 54.6751 18.84 54.2388 18.7668V12.1764C54.4812 12.1282 54.7174 12.0529 54.9428 11.9517H54.9354ZM60.2683 18.6919C60.1335 18.587 60.0586 18.5196 60.0586 18.4148V15.1495C60.0586 15.0447 60.1335 14.9848 60.2683 14.8799C60.3633 14.8112 60.4468 14.7278 60.5155 14.6328C60.5959 14.5223 60.6356 14.3873 60.6278 14.2509C60.6367 14.1119 60.597 13.9742 60.5155 13.8614C60.4468 13.7664 60.3633 13.683 60.2683 13.6143C60.1335 13.5169 60.0586 13.4495 60.0586 13.3447V12.2438H59.7964C59.2382 12.2653 58.6806 12.1893 58.1486 12.0191C57.9801 11.9382 57.8174 11.8456 57.6617 11.742C57.2418 11.4322 56.7377 11.2573 56.2162 11.2402C55.7334 11.2665 55.2603 11.3861 54.823 11.5922C54.5872 11.7059 54.334 11.7793 54.074 11.8094H53.9916C53.7316 11.7793 53.4784 11.7059 53.2426 11.5922C52.8024 11.3869 52.327 11.2674 51.842 11.2402C51.3204 11.2573 50.8163 11.4322 50.3964 11.742C50.2407 11.8456 50.0781 11.9382 49.9095 12.0191C49.3776 12.1897 48.8199 12.2658 48.2617 12.2438H47.9996V13.3447C47.9996 13.4495 47.9247 13.5169 47.7973 13.6143C47.6983 13.6808 47.6121 13.7645 47.5427 13.8614C47.4769 13.9753 47.4423 14.1044 47.4423 14.2359C47.4423 14.3673 47.4769 14.4965 47.5427 14.6103C47.6121 14.7073 47.6983 14.791 47.7973 14.8575C47.9247 14.9623 47.9996 15.0222 47.9996 15.1271V18.3998C47.9996 18.5047 47.9247 18.5721 47.7973 18.6769C47.7002 18.7427 47.6142 18.8236 47.5427 18.9166C47.4701 19.0336 47.4313 19.1683 47.4303 19.306C47.4294 19.4416 47.4684 19.5744 47.5427 19.6879C47.6121 19.7849 47.6983 19.8686 47.7973 19.9351C47.9247 20.0399 47.9996 20.0998 47.9996 20.2122V21.3206H60.066V20.2346C60.066 20.1223 60.1409 20.0624 60.2758 19.9575C60.3708 19.8888 60.4542 19.8054 60.5229 19.7104C60.6034 19.5999 60.6431 19.4649 60.6353 19.3285C60.6436 19.1896 60.6039 19.0521 60.5229 18.939C60.4521 18.8481 60.3689 18.7674 60.2758 18.6994L60.2683 18.6919Z" fill="#011F5B"/>
<path d="M58.8376 48.4274L35.4461 25.8628L12.0546 48.4274C10.0645 44.2849 9.04011 39.7449 9.05862 35.1492V25.1438H61.8636V35.1492C61.8821 39.7449 60.8577 44.2849 58.8675 48.4274H58.8376ZM51.4074 50.779C50.757 51.4296 49.9282 51.8728 49.0259 52.0525C48.1236 52.2321 47.1882 52.1401 46.3382 51.7882C45.4881 51.4363 44.7615 50.8402 44.2503 50.0753C43.7391 49.3105 43.4663 48.4112 43.4663 47.4913C43.4663 46.5713 43.7391 45.6721 44.2503 44.9072C44.7615 44.1424 45.4881 43.5463 46.3382 43.1943C47.1882 42.8424 48.1236 42.7504 49.0259 42.9301C49.9282 43.1097 50.757 43.5529 51.4074 44.2036C51.84 44.6349 52.1832 45.1473 52.4173 45.7115C52.6515 46.2756 52.772 46.8805 52.772 47.4913C52.772 48.1021 52.6515 48.7069 52.4173 49.2711C52.1832 49.8352 51.84 50.3477 51.4074 50.779ZM30.7948 35.9506C30.7948 35.0308 31.0676 34.1316 31.5787 33.3668C32.0898 32.602 32.8162 32.0059 33.6661 31.6539C34.516 31.3019 35.4513 31.2098 36.3535 31.3892C37.2558 31.5687 38.0846 32.0116 38.7351 32.662C39.3856 33.3124 39.8286 34.1411 40.0081 35.0433C40.1875 35.9454 40.0954 36.8805 39.7434 37.7303C39.3913 38.5801 38.7952 39.3065 38.0302 39.8175C37.2653 40.3285 36.3661 40.6013 35.4461 40.6013C34.2125 40.6013 33.0294 40.1113 32.1571 39.2391C31.2848 38.367 30.7948 37.184 30.7948 35.9506ZM49.9768 60.2152C43.7002 66.0343 37.1763 68.97 35.4461 69.4118C33.7009 68.97 27.207 66.0343 20.9154 60.2152L20.451 59.7809L35.4311 43.8666L50.4112 59.7809L49.9469 60.2152H49.9768ZM19.5222 50.779C18.8715 50.1287 18.4283 49.3 18.2486 48.3978C18.0689 47.4956 18.1609 46.5603 18.5129 45.7104C18.8649 44.8604 19.461 44.1339 20.226 43.6228C20.9909 43.1117 21.8903 42.8388 22.8104 42.8388C23.7304 42.8388 24.6298 43.1117 25.3948 43.6228C26.1597 44.1339 26.7559 44.8604 27.1079 45.7104C27.4598 46.5603 27.5518 47.4956 27.3722 48.3978C27.1925 49.3 26.7492 50.1287 26.0985 50.779C25.6671 51.2115 25.1546 51.5546 24.5904 51.7888C24.0262 52.0229 23.4213 52.1434 22.8104 52.1434C22.1995 52.1434 21.5946 52.0229 21.0303 51.7888C20.4661 51.5546 19.9536 51.2115 19.5222 50.779ZM61.8486 8.84006V24.3874H9.04364V8.83257L61.8486 8.84006ZM62.5976 8.09115H8.28715V35.1492C8.2497 47.012 14.8559 55.6244 20.3986 60.7694C26.4431 66.3713 33.2515 69.7114 35.3787 70.1757H35.4836C37.6257 69.7114 44.4716 66.3713 50.4637 60.7694C56.0363 55.6244 62.6425 47.012 62.6425 35.1492V8.07617L62.5976 8.09115Z" fill="#011F5B"/>
</svg>
