<svg width="262" height="80" viewBox="0 0 262 80" fill="none" xmlns="http://www.w3.org/2000/svg">
<path d="M67.7727 22.4079L60.3504 12.7695C59.2655 13.4475 57.556 14.1136 55.8344 14.1136C54.113 14.1136 52.875 13.9544 51.4247 13.6656C49.6267 13.306 47.5867 12.9051 44.3503 12.9051C41.1136 12.9051 39.0738 13.3119 37.2758 13.6656C35.8196 13.9544 34.5875 14.1136 32.8662 14.1136C31.1445 14.1136 29.435 13.4475 28.3501 12.7695L20.9163 22.4079C21.8359 23.2922 23.51 25.2847 23.51 28.1143C23.51 30.0422 23.2271 31.7869 22.9028 33.809C22.4608 36.5265 21.9655 39.6097 21.9655 44.196C21.9655 52.06 26.9825 58.8393 35.0533 61.8811C40.8957 64.08 43.3363 65.7011 44.3443 66.5913C45.3526 65.6955 47.7933 64.08 53.6356 61.8811C61.7121 58.8393 66.7234 52.066 66.7234 44.196C66.7234 39.6097 66.2222 36.5265 65.7859 33.809C65.4556 31.7869 65.1786 30.0422 65.1786 28.1143C65.1786 25.2847 66.853 23.2863 67.7727 22.4079Z" fill="white"/>
<path d="M60.3512 12.7722L67.7734 22.4106C66.8537 23.2949 65.1796 25.2874 65.1796 28.1172C65.1796 30.0447 65.4626 31.7897 65.7869 33.8118C66.2289 36.5293 66.7241 39.6125 66.7241 44.1988C66.7241 52.0629 61.7072 58.8421 53.6364 61.8839C47.794 64.0828 45.3533 65.7039 44.3454 66.5941C43.3371 65.698 40.8964 64.0828 35.0541 61.8839C26.9776 58.8421 21.9663 52.0688 21.9663 44.1988C21.9663 39.6125 22.4675 36.5293 22.9038 33.8118C23.234 31.7897 23.5111 30.0447 23.5111 28.1172C23.5111 25.2933 21.8367 23.2949 20.917 22.4106L28.3393 12.7722C29.4242 13.4502 31.1337 14.1163 32.8553 14.1163C34.5767 14.1163 35.8147 13.9571 37.265 13.6683C39.063 13.3087 41.1027 12.9078 44.3394 12.9078C47.5758 12.9078 49.6158 13.3146 51.4139 13.6683C52.8701 13.9571 54.1022 14.1163 55.8235 14.1163C57.5568 14.1163 59.2606 13.4502 60.3512 12.7722ZM60.4867 12L60.0388 12.277C59.0662 12.8843 57.4507 13.5327 55.8295 13.5327C54.0787 13.5327 52.8876 13.3676 51.5319 13.0965C49.7041 12.7369 47.6409 12.3242 44.3454 12.3242C41.0498 12.3242 38.9804 12.7369 37.1588 13.0965C35.8028 13.3676 34.612 13.5327 32.861 13.5327C31.2398 13.5327 29.6245 12.8843 28.6517 12.277L28.2037 12L27.8854 12.4185L20.4631 22.0569L20.1448 22.4696L20.516 22.8292C21.4182 23.6958 22.9332 25.535 22.9332 28.1172C22.9332 29.9977 22.6562 31.719 22.3319 33.7173C21.8899 36.4586 21.3828 39.5652 21.3828 44.1988C21.3828 52.3104 26.5412 59.2959 34.8478 62.4264C40.7787 64.6606 43.1014 66.2698 43.9622 67.0304L44.3454 67.3723L44.7285 67.0304C45.5834 66.2698 47.9061 64.6606 53.8427 62.4264C62.1492 59.2959 67.3079 52.3164 67.3079 44.1988C67.3079 39.5652 66.8068 36.4586 66.3585 33.7173C66.0345 31.719 65.7572 29.9918 65.7572 28.1172C65.7572 25.535 67.2725 23.6958 68.1744 22.8292L68.5459 22.4696L68.2276 22.0569L60.811 12.4185L60.4867 12Z" fill="#000F46"/>
<path d="M63.6759 28.0164C63.6759 25.4699 64.7784 23.5068 65.8101 22.2276L59.9264 14.5935C58.8183 15.183 57.4388 15.519 55.8351 15.519C53.9664 15.519 52.5928 15.3363 51.1306 15.0415C49.3974 14.6996 47.4284 14.3105 44.3391 14.3105C41.2499 14.3105 39.2809 14.6996 37.5477 15.0415C36.0855 15.3304 34.7119 15.519 32.8432 15.519C31.2395 15.519 29.86 15.183 28.7519 14.5935L22.8682 22.2276C23.8999 23.5068 25.0024 25.4699 25.0024 28.0164C25.0024 30.0623 24.7135 31.8661 24.3713 33.953C23.9412 36.6174 23.4517 39.6357 23.4517 44.0983C23.4517 51.3198 28.0914 57.5566 35.5668 60.3746C40.2065 62.1194 42.8476 63.552 44.3391 64.5893C45.8307 63.552 48.4718 62.1194 53.1115 60.3746C60.5869 57.5625 65.2263 51.3255 65.2263 44.0983C65.2263 39.6298 64.7371 36.6114 64.3067 33.953C63.9648 31.8661 63.6759 30.0623 63.6759 28.0164Z" fill="#000F46"/>
<path d="M27.3839 16.9148C24.4658 16.2486 23.1157 15.8301 23.1157 15.8301C23.1157 17.5868 24.0176 18.4593 24.0176 18.4593C24.0176 18.4593 24.2123 19.1077 24.7663 20.0745" fill="#000F46"/>
<path d="M63.7124 26.0289C65.0272 25.292 65.3749 24.9914 65.8348 23.665C65.8348 23.665 66.8725 22.763 67.3085 22.032C68.4996 20.7705 68.8649 19.2201 68.8768 19.2083C69.8024 18.1118 70.1029 16.5968 70.1029 16.5968C71.0345 15.1348 71.1525 13.832 71.1525 13.832C71.1525 13.832 69.0005 14.5512 64.414 16.0132C63.7478 16.2254 61.2893 17.0743 61.2893 17.0743" fill="#000F46"/>
<path d="M28.9522 32.1015L29.4061 33.2512L30.6147 32.8975L30.0253 33.9646L31.0567 34.7603L29.8187 34.8664L29.8778 36.1222L28.9757 35.3086L28.0031 36.1222L28.0914 34.9252L26.9125 34.6601L27.9618 33.9233L27.384 32.8443L28.4924 33.2393L28.9522 32.1015ZM35.5963 35.0727L34.4878 34.7073L35.0597 35.7685L34.0105 36.4934L35.225 36.7588L35.107 37.973L36.068 37.1595L36.9993 37.973L36.9229 36.7175L38.1666 36.6114L37.1527 35.8333L37.7246 34.7543L36.516 35.0786L36.0739 33.9586L35.5963 35.0727ZM27.1777 42.3176L26.0692 41.9523L26.6295 43.0015L25.5978 43.7268L26.7767 43.9919L26.6765 45.2004L27.6494 44.375L28.5512 45.2004L28.4924 43.9331L29.7304 43.8269L28.7106 43.031L29.2881 41.9817L28.0739 42.3176L27.6316 41.1801L27.1777 42.3176ZM35.6376 42.7599L34.5764 42.7774L35.4607 43.4438L35.1364 44.5225L36.0326 43.8739L36.9345 44.5225L36.5986 43.4438L37.4829 42.7658H36.3923L36.0386 41.7163L35.6376 42.7599ZM35.549 50.1996L34.4409 49.8161L35.0009 50.8772L33.9516 51.6025L35.1483 51.8676L35.0597 53.0761L36.0207 52.251L36.9345 53.094L36.8462 51.856L38.1018 51.7086L37.0819 50.9126L37.6597 49.8634L36.463 50.2052L36.0207 49.0558L35.549 50.1996ZM46.3494 53.0821C47.0215 52.7462 47.1984 52.4219 47.4166 52.0034L47.4341 51.9681C47.4814 51.8736 47.5227 51.7793 47.564 51.6792C47.6347 51.5082 47.7171 51.3195 47.8645 51.0895C47.8645 51.0838 47.8645 51.0779 47.8645 51.0779C44.2331 46.9511 41.6744 42.1173 40.7901 40.4314C40.7841 40.4195 40.7666 40.4255 40.7666 40.4373C40.7134 41.8991 40.7431 44.941 41.7689 46.9511C42.3464 48.0773 42.441 48.1891 43.9854 50.0875L44.2271 50.388L44.398 50.5943C44.404 50.6062 44.398 50.6181 44.3864 50.6121C44.1917 50.5179 43.8853 50.3173 43.8853 50.3173C43.4314 50.0581 42.3643 49.2208 41.4268 47.8651C41.4208 47.8532 41.4033 47.8592 41.4033 47.8708C41.356 49.8693 42.3818 51.7499 43.0658 52.4867C43.726 53.2001 44.6694 53.3062 45.1762 53.3062C45.6301 53.3062 46.0665 53.2176 46.3494 53.0821ZM52.9581 54.3435C53.8662 54.2906 54.9862 53.9369 55.3872 53.3591C55.5109 53.206 55.7112 52.9938 56.177 52.7284C56.46 52.581 56.7314 52.4867 56.973 52.4041C57.6864 52.1625 58.1578 52.0034 58.1519 50.7004C53.129 47.6939 51.0893 44.6699 51.2249 44.6521C51.2249 44.6521 52.0976 45.5363 53.365 46.5621C54.4732 47.4582 56.8137 49.4155 58.8593 50.3291C59.0008 50.3999 58.8653 52.3099 57.7099 52.8286C57.6097 52.8758 57.4623 52.9347 57.2854 52.9995C56.6841 53.2236 55.7763 53.5597 55.8705 54.1726C55.9 54.2258 56.0947 54.3025 56.5013 54.3025C57.4034 54.3025 58.5764 53.9429 59.0246 53.1469C59.2015 52.8286 59.3311 52.5397 59.4491 52.2864C59.8144 51.4904 60.0385 51.0012 61.0762 50.7771C60.6398 50.3113 58.3466 47.8651 57.2854 46.7273C56.1654 45.5247 55.3518 44.1688 55.2633 44.0213C55.2633 44.0154 55.0805 43.7268 54.8094 43.544C53.6715 42.6597 52.4394 42.4181 51.3488 42.2059C50.1521 41.9936 49.5564 41.7695 49.1498 41.3805C48.4658 40.7438 48.5779 39.724 48.6252 39.3409C48.6252 39.3171 48.6311 39.2936 48.6311 39.2701C48.566 39.3409 48.4599 39.5118 48.4129 39.5825C48.2361 39.8714 47.9647 40.3015 47.4638 40.3015C47.4106 40.3015 47.3518 40.2959 47.2926 40.284C46.8979 40.2132 46.6205 40.0186 46.4026 39.2523C46.3435 39.052 46.2314 38.9872 46.1845 38.9812C46.1197 38.9812 46.09 39.0047 46.0724 39.0225C45.8955 39.211 45.9369 39.9008 46.0017 40.2073C46.0192 40.3428 45.9782 40.4195 45.9428 40.4608C45.8956 40.5197 45.8189 40.5491 45.7306 40.5491C45.6245 40.5491 45.5299 40.5021 45.4886 40.4314C45.359 40.2427 45.2354 40.0364 45.1292 39.8301C45.0466 40.1425 44.8873 40.4784 44.522 40.4843C44.2565 40.4843 44.0208 40.2721 43.7673 40.0483C43.4843 39.7947 43.2486 39.6001 43.0479 39.6001C42.9831 39.6001 42.9243 39.6179 42.8595 39.6592C42.7534 39.7299 42.6413 39.7653 42.5292 39.7653C42.3878 39.7653 42.2641 39.7062 42.1696 39.5941C41.8277 39.1521 42.2641 38.5803 42.435 38.3915C42.3229 38.3151 42.0753 38.2384 41.7689 38.2384C41.5388 38.2384 40.9847 38.2854 40.7431 38.6983C40.6664 38.9518 40.8138 39.2404 40.9315 39.4764C41.3738 40.4489 44.8638 46.686 48.4483 50.6415C48.6781 50.907 48.7018 51.1427 48.5306 51.3724C48.0473 52.0504 47.8823 52.5869 48.0414 52.9641C48.242 53.4417 48.8844 53.5478 48.8903 53.5478C49.0672 53.5832 49.2324 53.5951 49.3739 53.5951C50.0814 53.5951 50.3111 53.2117 50.5766 52.7697C50.9184 52.1565 51.2543 52.0269 51.4784 52.0269C51.6024 52.0269 51.6907 52.0623 51.726 52.0798L51.7379 52.0858C51.8203 52.1271 51.9264 52.251 51.9618 52.4101C51.9915 52.534 51.9971 52.7343 51.8381 52.9584L51.8322 52.9641C51.6847 53.1293 51.4196 53.253 51.1895 53.3651C50.9597 53.4771 50.7002 53.6008 50.7121 53.6953C50.7475 53.8249 51.6377 54.3319 52.8345 54.3319C52.8814 54.3435 52.9168 54.3435 52.9581 54.3435ZM46.7799 42.9367C47.4106 43.8564 49.0966 46.3088 51.9855 49.5983C51.9855 49.5983 52.1859 49.8693 51.897 50.4174L51.7673 50.6121L51.6731 50.4058C51.6731 50.4058 51.5845 50.2052 51.3958 49.993C47.8645 45.9432 46.3494 42.4651 46.3673 42.4535C46.3673 42.4591 46.4437 42.4534 46.7799 42.9367ZM55.4636 43.2726C55.611 43.1665 55.6877 42.8836 55.6877 42.4181C55.6877 42.1645 55.6877 41.9229 55.8411 41.7223C55.9885 41.5279 56.1889 41.4158 56.4305 41.3923C56.1711 41.239 55.8646 41.0681 55.5168 40.8793C54.65 40.4076 53.371 39.7121 51.8203 38.5684C52.1918 39.0695 52.6692 39.5706 53.2117 40.0423L53.4064 40.2132C53.3945 40.2308 53.1822 40.16 53.1822 40.16C53.1644 40.1544 52.7518 40.0129 52.4923 39.8476C52.4867 39.8417 52.4748 39.836 52.4629 39.8301C51.7085 39.3997 50.9892 38.7042 50.4291 37.8553C50.4232 37.8434 49.6863 36.6408 48.7901 34.6069C48.525 33.9999 47.0863 31.5594 46.5322 31.0404C45.6655 30.8636 44.5573 30.852 44.239 30.852C44.0681 30.852 43.9206 30.8576 43.8261 30.8636C43.1659 30.9049 42.6707 31.017 42.4112 31.1171C41.2793 34.2532 40.914 36.458 40.8138 37.7608L40.8019 37.8669C41.0909 37.7373 41.4152 37.6666 41.7451 37.6666C42.3524 37.6666 42.8948 37.9023 43.0069 38.2206C43.0952 38.5095 42.9656 38.6629 42.8357 38.8103C42.7593 38.9045 42.6767 38.9928 42.6413 39.1286C42.7709 39.0636 42.9064 39.0282 43.0479 39.0282C43.4902 39.0282 43.8674 39.3643 44.1445 39.6119L44.1504 39.6179C44.3686 39.8182 44.4628 39.8771 44.5041 39.9008C44.5455 39.836 44.6516 39.5825 44.7104 38.7042C44.7104 38.6983 44.7104 38.6923 44.7104 38.6923C44.2506 35.9807 45.6655 34.0647 45.6655 34.0647C45.6655 34.0647 44.7458 37.1773 45.4298 39.0814C45.5478 38.6097 45.8248 38.4566 46.0546 38.4212C46.09 38.4153 46.1253 38.4093 46.1607 38.4093C46.4556 38.4093 46.8152 38.6216 46.9508 39.0933C47.1158 39.6708 47.2278 39.6886 47.3931 39.724C47.4166 39.7299 47.44 39.7299 47.4579 39.7299C47.6228 39.7299 47.729 39.5941 47.9293 39.2758C48.0946 39.0106 48.3009 38.6745 48.6721 38.6745C48.7134 38.6745 48.7607 38.6804 48.808 38.6923C48.9905 38.7336 49.2381 38.9221 49.1911 39.2758C48.9494 41.1504 49.7865 41.3157 51.4549 41.6399C52.3746 41.8224 53.5125 42.0406 54.6031 42.7067C54.4791 42.4534 54.2728 42.2234 54.1254 42.0644C54.0606 41.9936 54.0133 41.9404 53.978 41.8932L53.9016 41.7871L54.0312 41.799C54.0431 41.799 55.1396 41.9051 55.3929 43.2905C55.3929 43.2905 55.3929 43.2905 55.3988 43.2905C55.4107 43.308 55.4342 43.2964 55.4636 43.2726ZM56.6428 41.911C56.5839 41.911 56.5248 41.917 56.46 41.9345C56.2418 41.9877 56.2243 42.1586 56.2183 42.471C56.2124 42.701 56.2064 42.9781 56.0593 43.2373C56.7135 43.0958 57.1261 42.7599 57.1204 42.3589C57.1145 42.2115 57.0497 42.0819 56.9436 41.9993C56.8669 41.9404 56.7608 41.911 56.6428 41.911ZM48.8668 33.4102C48.8787 33.4281 48.9022 33.4281 48.9197 33.4102C49.3915 32.8443 49.0672 31.6417 48.967 31.1879C49.6331 31.5888 50.5469 31.8718 51.048 31.9188C51.1072 31.3472 50.9597 30.7634 50.7121 30.0795C51.4609 30.6219 52.575 30.9462 52.9522 30.9284C53.0348 30.3271 52.5928 29.1952 52.5631 29.0362C52.8461 29.1483 53.5125 29.5255 54.0725 29.5903C54.2199 29.2249 54.3142 28.6293 54.261 28.0518C54.261 28.0518 53.2236 28.2521 52.7046 28.2521C52.5631 28.2521 52.4335 28.2462 52.3214 28.2346C52.0325 28.2108 51.5019 28.1106 50.9773 27.9986C50.6768 27.9338 50.37 27.8809 50.1049 27.8336C49.9987 27.8158 49.8926 27.7983 49.7984 27.7748C49.5035 27.7216 49.2559 27.6862 48.8728 27.6508C48.7313 27.6389 48.4599 27.6273 48.3362 27.6273C48.3303 27.6273 48.3303 27.6273 48.3303 27.6333C48.1475 28.7708 47.4814 29.779 47.1217 30.3271C47.0688 30.4097 47.0215 30.4805 46.9861 30.5336V30.5393C47.6877 31.524 48.69 33.1332 48.8668 33.4102ZM36.4158 26.295C36.1563 26.0651 36.0621 25.7939 36.1447 25.5286C35.667 25.4697 34.8416 25.3164 34.1814 24.9509C33.8925 25.0158 32.9612 25.2044 31.7939 25.2044C31.5344 25.2044 31.2633 25.1985 30.9744 25.1808C30.9979 25.1985 31.0214 25.2103 31.0451 25.228C31.2927 25.3872 31.5403 25.5522 31.788 25.5994C31.8881 25.5817 32.1238 25.564 32.7192 25.5227C32.8078 25.5169 32.902 25.511 32.9906 25.511C33.6154 25.511 34.2994 25.7291 35.0776 26.183C35.1424 26.2066 35.7791 26.4601 36.115 26.631C36.1682 26.5603 36.2743 26.4424 36.4158 26.295ZM63.6405 25.4166C64.1711 25.2752 64.7725 24.7328 65.1086 24.1197C64.4366 24.5147 63.8822 24.6739 63.2398 24.6739C63.1159 24.6739 62.9804 24.668 62.8329 24.6562C62.7387 24.8095 62.6326 25.0983 62.1136 25.3518C62.6385 25.564 63.3754 25.4874 63.6405 25.4166ZM55.1337 25.5463C55.4047 25.5169 55.6464 25.4874 55.8586 25.4638C57.2382 25.3046 57.4504 25.281 57.6626 25.1455C57.6921 25.1278 57.7393 25.0806 57.7925 25.0217C57.9634 24.8507 58.217 24.5972 58.5056 24.5619C58.5469 24.556 58.5883 24.5501 58.6236 24.5442C58.659 24.5383 58.7003 24.5324 58.7357 24.5265C58.8593 24.5088 58.9655 24.4852 59.06 24.4145C59.3016 24.2435 59.5258 24.0844 59.7496 24.0726C59.7555 24.0726 59.7615 24.0726 59.7615 24.0726C59.9383 24.0726 60.015 24.2435 60.0326 24.3025C60.0798 24.3909 60.0739 24.6031 60.062 24.7564C60.1211 24.7446 60.1978 24.721 60.2686 24.6915C60.2861 24.6857 60.3096 24.6739 60.3393 24.6621C60.4276 24.6267 60.5516 24.5736 60.6633 24.5383C60.74 24.5147 60.7992 24.5029 60.858 24.5029C60.9876 24.5029 61.0643 24.5678 61.141 24.6503C61.2647 24.78 61.3354 24.9627 61.3532 25.0983C61.7304 24.9922 62.0726 24.7387 62.2197 24.556C61.6538 24.3968 60.9228 24.049 60.4808 23.5008C60.2921 23.2649 60.2213 23.035 60.2035 22.8641C58.1873 23.6304 54.7446 24.3968 53.6242 24.6326C53.6596 24.7623 53.6596 24.892 53.6242 25.0158C53.5948 25.1219 53.5419 25.2221 53.4593 25.3164C53.5832 25.4225 53.8543 25.6878 53.8543 25.6878C53.8543 25.6878 54.9684 25.564 55.1337 25.5463ZM37.1761 24.9391C37.1292 24.8507 37.0938 24.7328 37.0879 24.6267C35.7672 23.8309 34.2581 23.5892 33.4032 23.5125C33.6508 23.8662 33.9516 24.1433 34.3288 24.3791C35.1953 24.9156 36.5692 24.9981 36.7576 25.0099C36.8343 24.9922 36.9993 24.9627 37.1761 24.9391ZM33.5271 24.497C33.2028 24.2199 32.9493 23.9016 32.7252 23.5066C32.3067 23.5538 31.8941 23.5833 31.4871 23.5833C30.2078 23.5833 28.9582 23.3298 27.6788 22.811C28.3155 23.4595 29.424 24.332 30.3671 24.5324C30.821 24.6031 31.2987 24.6385 31.788 24.6385C32.4954 24.6385 33.1083 24.5678 33.5271 24.497ZM60.3747 22.1861C60.3922 22.1567 60.4924 22.027 60.6577 21.9032C60.746 21.8324 60.8402 21.7735 60.9406 21.7322L61.0289 21.6969C61.3886 21.5377 61.7658 21.3785 61.984 21.2135L62.0488 21.1663C62.2141 21.0484 62.3671 20.9305 62.4851 20.7065C61.8779 20.677 61.3532 20.5237 61.0055 20.3882C57.3208 21.1899 53.8071 22.5811 52.687 23.0468C52.9346 23.2767 52.9876 23.5833 52.852 23.9783C53.0173 23.99 53.1644 24.0372 53.2943 24.1256C53.8897 23.9959 58.2993 23.0586 60.3747 22.1861ZM65.0849 23.4477C65.5272 23.1235 66.1166 22.6872 66.6178 22.027C65.3444 22.5575 64.348 22.6696 62.9979 22.6813C62.9625 22.6813 62.9331 22.6813 62.9037 22.6813C61.9367 22.6813 61.2471 22.5281 60.9109 22.4337C60.8756 22.4691 60.8521 22.4986 60.8402 22.5104C60.8227 22.5398 60.6752 22.7992 60.9463 23.1294C61.4005 23.6894 62.2729 24.0136 62.7503 24.0667C62.8977 24.0844 63.057 24.0961 63.228 24.0961C63.6289 24.1021 64.2597 24.0372 65.0849 23.4477ZM32.4541 22.9643C32.3185 22.6519 32.2124 22.3335 32.1063 22.0211L32.0885 21.9798C31.8293 21.2194 31.1688 21.0071 31.0981 20.9895C27.9559 20.3292 25.7215 19.2976 24.6014 18.5076C24.9965 19.4214 25.3915 20.2408 26.0282 20.9364C26.7945 21.7794 27.8263 22.3512 29.2646 22.7344H29.2765C29.7185 22.8464 30.1549 22.923 30.5734 22.9584C30.8977 22.9879 31.222 22.9997 31.5344 22.9997C31.9354 23.0115 32.2478 22.9879 32.4541 22.9643ZM51.8794 22.7403C51.897 22.7403 51.9088 22.7403 51.9264 22.7403C52.3922 22.534 56.0239 20.9777 60.1271 19.9991C59.2722 19.6454 58.4703 19.4803 57.6213 19.4803C56.979 19.4803 56.3009 19.5747 55.5581 19.7751C53.1822 20.4059 51.6907 21.3491 50.9657 21.9091C51.0893 21.9385 51.1955 21.9916 51.2956 22.0683C51.5432 22.2569 51.6731 22.4986 51.6731 22.758C51.7439 22.7462 51.8146 22.7403 51.8794 22.7403ZM63.057 22.0977C63.8822 22.0977 65.1146 22.0034 66.2581 21.5731C67.343 21.1486 67.9146 20.005 68.1212 19.4803C66.5351 20.3292 65.0673 20.5709 63.0984 20.7006C62.9272 21.2311 62.6207 21.4552 62.379 21.632L62.3202 21.6792C62.1549 21.803 61.9311 21.9209 61.7188 22.0211C61.9959 22.0506 62.4617 22.0977 63.057 22.0977ZM37.9427 27.3502C38.6502 26.7253 38.9685 26.5485 39.8763 26.1594C40.4363 25.4284 41.2086 24.9922 42.0165 24.9391C41.079 24.1964 40.4601 23.4359 40.4542 22.2628C40.4482 21.0956 39.7702 19.8989 39.1513 19.4567C38.1609 18.7022 36.8402 18.6373 35.0068 18.5548C33.7688 18.4959 32.3655 18.431 30.709 18.1422C30.6855 18.1362 27.8379 17.5644 27.0421 17.3817C27.0186 17.3758 24.9317 16.9513 23.8054 16.6035C23.9588 17.1046 24.3951 17.6175 25.1026 18.1362C25.1909 18.1952 27.2838 19.6041 31.104 20.4117L31.1453 20.4235C31.1453 20.4235 31.4164 20.4825 31.5109 20.5002C34.7592 21.125 35.4429 21.3196 35.508 21.3373C36.51 21.6202 37.3295 21.9857 37.636 22.2864C37.7775 22.416 37.9427 22.6165 37.9543 22.6283L38.0958 22.7992L37.471 22.5634C36.7341 22.2864 36.1503 22.0859 35.3606 21.8914C35.3368 21.8855 34.7887 21.7263 32.3539 21.2488C32.4716 21.4198 32.5721 21.6084 32.6369 21.8089L32.6544 21.8501C32.7784 22.2097 32.902 22.5811 33.0673 22.9289C33.6743 22.9525 35.5903 23.1058 37.2766 24.0785C37.5004 23.8014 37.8542 23.7424 38.1196 23.7424C38.1312 23.7424 38.149 23.7424 38.1609 23.7424C38.149 23.5125 38.2198 23.3003 38.3672 23.1294C38.591 22.87 38.9272 22.8405 39.157 22.8405C39.2102 22.8405 39.2631 22.8405 39.3044 22.8464C39.3692 22.7344 39.5345 22.6165 39.6347 22.5516C39.7821 22.4573 40.0826 22.3866 40.1004 22.3866L40.2654 22.3512L40.0472 22.6224C39.7643 23.0233 39.835 23.3298 39.835 23.3357L39.8588 23.4182L39.5699 23.3828C39.5051 23.377 39.44 23.371 39.3636 23.371C39.0922 23.371 38.8684 23.4241 38.7976 23.5066C38.6383 23.6894 38.7679 23.9429 38.7679 23.9488L38.9861 24.3791L38.88 24.3673C38.8033 24.3614 38.7209 24.3496 38.6442 24.3437C38.4733 24.326 38.2965 24.3025 38.1431 24.3025C37.9074 24.3025 37.7659 24.3496 37.7067 24.4498L37.7011 24.4675C37.6419 24.5736 37.5652 24.721 38.1018 25.2339L38.1903 25.3223L38.0664 25.34C38.0604 25.34 37.2882 25.4402 36.911 25.5758C36.8108 25.6112 36.7517 25.6642 36.7401 25.7232C36.7341 25.7585 36.7401 25.8765 37.0052 26.0297L37.2823 26.1948C37.2823 26.1948 36.6634 26.4954 36.6515 26.8963L37.9427 27.3502ZM32.1004 19.103C32.0944 19.103 32.1004 19.0972 32.1004 19.0972C32.4068 19.0972 33.8395 19.3506 34.6647 19.4391C35.0892 19.4921 37.2528 19.7633 37.8895 20.1465C38.5203 20.5178 38.827 21.1781 39.0274 21.7086L39.1335 21.9975C39.1335 21.9975 39.0452 21.9975 38.6971 21.632C38.4614 21.3373 38.1136 20.8951 37.595 20.6358C36.0974 19.9166 33.6508 19.9401 32.1004 19.103ZM62.7149 20.1406C62.7622 20.1406 62.8094 20.1406 62.8564 20.1406C64.0415 20.0934 66.3936 19.8046 67.6789 19.0382C68.746 18.4664 69.0644 17.647 69.3355 16.9101C69.3239 16.916 69.2885 16.9278 69.2885 16.9278C69.0055 17.0457 68.6812 17.1812 68.1623 17.3581L67.909 17.4406C67.2369 17.6705 66.2227 17.9771 65.2029 18.2541C63.4931 18.7198 61.9721 19.4273 61.1529 19.8458C61.5007 19.9696 62.0726 20.1406 62.7149 20.1406ZM46.2612 22.2038C46.6737 21.8442 46.6619 21.5613 46.6205 21.3844C46.4026 20.8421 45.9898 20.506 45.3944 20.3941L42.6532 20.0168C42.6472 20.0227 42.6294 20.0522 42.6235 20.0639C42.6472 20.0757 42.6767 20.0934 42.7061 20.1052C43.0126 20.2585 43.6493 20.5768 43.8793 21.2488C43.9501 21.4493 44.0737 21.461 44.7931 21.5023L45.0112 21.5141C45.1822 21.5259 45.2589 21.5318 45.3885 21.5436C45.6952 21.579 45.925 21.8324 45.9722 21.8796C46.0135 21.9268 46.1432 22.0918 46.1726 22.2805L46.2612 22.2038ZM53.1409 25.8765C53.1882 25.8647 53.2352 25.8529 53.2765 25.8411C52.9641 25.4933 52.5809 25.2516 52.5809 25.2516L52.7931 25.1455C52.9641 25.0571 53.0702 24.9568 53.0937 24.8566C53.1056 24.8095 53.0937 24.7682 53.0642 24.7033C52.9876 24.5501 52.8345 24.4734 52.6163 24.4734C52.5277 24.4734 52.4454 24.4852 52.3922 24.497L51.897 24.5736L52.0916 24.2082C52.4275 23.5479 52.2447 23.4241 52.1624 23.3652C52.0444 23.2826 51.9207 23.2414 51.7849 23.2414C51.6377 23.2414 51.5138 23.2885 51.4077 23.3298C51.3783 23.3416 51.3488 23.3534 51.3251 23.3593L50.8182 23.542C50.8182 23.542 51.001 23.1471 51.0126 23.1235C51.1306 22.87 51.1541 22.6931 50.9419 22.5222C50.8536 22.4573 50.7591 22.422 50.6589 22.422C50.5587 22.422 50.4526 22.4573 50.3465 22.5281L49.8691 22.8523L49.8926 22.7167C49.9752 22.2215 49.4857 21.5318 49.4857 21.5318C49.4857 21.5318 49.763 21.5554 50.1402 21.7617C50.1637 21.7735 50.1815 21.7853 50.1991 21.7912C50.8771 21.1604 52.4394 20.0168 55.4107 19.2268C56.2064 19.0146 56.9317 18.9144 57.6213 18.9144C58.5942 18.9144 59.5079 19.1148 60.4984 19.5452C61.0584 19.2445 62.9156 18.2895 65.0614 17.7059C66.1814 17.3994 67.2723 17.0339 67.6908 16.8924L68.4099 16.633C69.0938 16.3618 69.9193 15.8961 70.3143 14.6641L61.7188 17.5409C60.4336 18.0537 58.1225 18.2423 56.0768 18.4133C55.0864 18.4959 54.1548 18.5725 53.4652 18.6786C49.6626 19.3388 49.2678 21.1722 49.0556 22.1626C49.0437 22.2274 49.0318 22.2864 49.0143 22.3394C48.8433 23.2532 48.4718 23.9723 47.9177 24.4793C48.0473 24.4734 48.2007 24.4734 48.2714 24.4734C48.6721 24.4852 48.9551 24.5913 49.2559 24.721C49.362 24.7682 49.4741 24.8153 49.5862 24.8684C49.6744 24.9097 49.7687 24.9509 49.8632 24.9922C50.2877 25.1808 50.8596 25.3518 51.7555 25.6053L51.8262 25.623C52.0503 25.6878 52.2272 25.735 52.3806 25.788C52.5221 25.8352 52.7518 25.9295 52.8107 25.9531C52.9227 25.9295 53.0348 25.9059 53.1409 25.8765ZM46.4615 20.2408C46.6737 20.1288 46.6913 19.8104 46.6619 19.7043C46.5736 19.3978 46.3435 19.1679 45.9838 19.0205C45.7894 18.9498 45.5359 18.9203 45.2354 18.9203C44.3038 18.9203 43.113 19.274 42.8476 19.6159L45.4886 19.9166C45.6245 19.9342 45.9782 20.0109 46.3435 20.2703C46.3908 20.2644 46.4261 20.2526 46.4615 20.2408ZM30.7916 26.1712C30.6442 26.0238 30.4144 25.9413 30.2316 25.9236C29.8541 25.9 29.4356 26.0533 29.0759 26.3893C29.8894 26.4365 30.0134 26.7961 30.4497 26.4542L30.7916 26.1712ZM31.0157 26.3952L30.7384 26.7077C30.4084 27.1085 30.7384 27.2323 30.7681 27.9926C31.0921 27.6687 31.2455 27.2736 31.2336 26.9258C31.222 26.7489 31.1513 26.5308 31.0157 26.3952ZM29.984 27.3325L29.7539 27.6803C29.4888 28.1285 29.8365 28.1992 29.9721 28.9476C30.2432 28.5764 30.3436 28.1695 30.2729 27.8217C30.2432 27.6508 30.1371 27.4445 29.984 27.3325ZM29.2411 28.541L29.0643 28.9066C28.8637 29.3721 29.2058 29.4018 29.4356 30.1033C29.6537 29.7142 29.695 29.3013 29.583 28.9774C29.5301 28.818 29.4061 28.6353 29.2411 28.541ZM29.6597 27.1203C29.4828 27.0201 29.2352 27.0024 29.0524 27.0378C28.6868 27.1144 28.3215 27.3856 28.0739 27.8042C28.8696 27.6273 29.0878 27.9338 29.4121 27.4858L29.6597 27.1203ZM28.858 28.3642C28.6574 28.2994 28.4098 28.3288 28.2329 28.4055C27.8792 28.5586 27.5668 28.9007 27.4018 29.3721C28.1622 29.0362 28.4451 29.3013 28.6811 28.7886L28.858 28.3642ZM28.5866 29.496C28.4511 29.5962 28.3568 29.773 28.3215 29.9205C28.2567 30.221 28.3331 30.5806 28.5631 30.9108C28.6987 30.2563 28.9995 30.1975 28.7754 29.8025L28.5866 29.496ZM34.2816 28.0045L34.1873 28.4409C34.0872 28.989 34.4644 28.9301 34.8829 29.6316C35.0184 29.1599 34.9596 28.7119 34.7652 28.3936C34.6647 28.2346 34.4822 28.0634 34.2816 28.0045ZM33.981 27.9162C33.7982 27.863 33.5682 27.8984 33.4091 27.9692C33.0908 28.1166 32.8138 28.4409 32.6782 28.8769C33.3619 28.547 33.6273 28.7827 33.8336 28.3053L33.981 27.9162ZM33.6273 29.2603C33.4504 29.1777 33.2204 29.1777 33.0554 29.2306C32.7192 29.3311 32.4009 29.6081 32.1946 30.0206C32.9199 29.7965 33.1496 30.0679 33.421 29.6256L33.6273 29.2603ZM32.902 30.4805C32.743 30.3803 32.5189 30.3509 32.3539 30.3803C32.0177 30.4332 31.67 30.6632 31.4223 31.0345C32.1533 30.9108 32.3361 31.2057 32.6544 30.8107L32.902 30.4805ZM33.9516 29.4134L33.7394 29.8084C33.4918 30.3095 33.869 30.3568 34.0812 31.1406C34.3407 30.7221 34.4114 30.2801 34.3053 29.9145C34.2521 29.7377 34.1225 29.5255 33.9516 29.4134ZM33.1969 30.6692L32.908 31.0229C32.5602 31.4708 32.9258 31.6004 32.9847 32.4258C33.3265 32.0602 33.4858 31.6242 33.4564 31.2411C33.4386 31.0523 33.3503 30.8166 33.1969 30.6692ZM32.3539 31.5002L31.9883 31.4708C31.5344 31.4533 31.6227 31.7538 31.104 32.1723C31.499 32.2255 31.8587 32.1253 32.0944 31.9306C32.2184 31.8364 32.3301 31.6655 32.3539 31.5002ZM46.721 28.034C46.7974 28.7827 46.8625 29.4253 46.5498 30.0031V30.0088C46.4969 30.1446 46.4026 30.3568 46.3554 30.4451C45.4711 30.2917 44.4982 30.2801 44.2212 30.2801C44.0502 30.2801 43.9028 30.2861 43.7967 30.2917C43.3782 30.3155 42.9891 30.3743 42.6648 30.457C42.7061 30.3214 42.7768 30.1149 42.9064 29.944L42.9772 29.8438L42.8535 29.8497C42.7947 29.8557 42.7355 29.8557 42.6767 29.8557C42.1874 29.8557 41.8985 29.7377 41.6744 29.4488C41.5213 29.2365 41.48 28.9714 41.5682 28.7414C41.639 28.541 41.7983 28.3407 41.9457 28.146C42.0753 27.9751 42.3583 27.5271 42.4526 27.3325C42.5117 27.2146 42.5706 27.0908 42.6235 26.9552C42.7474 27.1203 42.9302 27.2323 43.1838 27.2913C43.3309 27.3266 43.4608 27.3443 43.5904 27.3443C43.838 27.3443 44.0975 27.2854 44.4218 27.1498C43.9914 27.533 42.7828 27.7748 42.7828 27.7748C42.7534 27.8101 42.7709 27.8571 42.8122 27.8749C42.8241 27.8809 42.8357 27.8809 42.8416 27.8865C43.001 27.9278 43.1541 27.9457 43.3193 27.9457C43.8261 27.9457 44.2919 27.7451 44.799 27.5035C45.6185 27.0732 46.6205 25.7055 46.6619 25.6465C46.721 25.564 46.8033 25.4933 46.886 25.4461C46.5263 26.0828 46.603 26.7784 46.6797 27.5094C46.6856 27.6862 46.7032 27.8571 46.721 28.034ZM45.9957 28.8359C45.7954 29.2131 45.5831 29.5433 44.8463 29.5727C43.9382 29.614 43.7084 28.9655 43.7084 28.9655C43.7613 29.2484 43.9795 30.0854 44.8519 30.0501C45.9663 30.0031 45.9957 28.8359 45.9957 28.8359ZM47.2278 29.0481L47.281 28.9774C47.3458 28.8947 47.3987 28.7946 47.4047 28.7767C47.7349 28.1695 47.7878 27.6921 47.8116 27.4858L47.8175 27.4563C47.8175 27.4563 47.8645 27.079 48.0119 27.079C48.9611 27.079 50.1049 27.2677 51.001 27.4445C51.2368 27.4917 51.4844 27.5389 51.7201 27.586C52.0268 27.6627 52.3627 27.6981 52.7165 27.6981C53.2236 27.6981 53.7717 27.6214 54.3376 27.4681L56.6606 26.7843C56.7548 26.7607 56.8491 26.743 56.9436 26.7195C57.2795 26.6428 57.6038 26.5603 57.981 26.5603C58.0871 26.5544 58.2758 26.5839 58.376 26.5839C59.1896 26.5839 60.1387 26.1771 60.4157 25.9649C60.7047 25.7409 60.7578 25.5463 60.7992 25.3164C60.8167 25.2103 60.8108 25.1455 60.7813 25.1101C60.7638 25.0924 60.74 25.0806 60.7106 25.0806C60.6398 25.0806 60.5218 25.1278 60.3688 25.1867C60.1565 25.2693 59.1542 25.5463 58.942 25.5581C58.9833 25.4874 59.1307 25.3459 59.2722 25.2398C59.4607 25.0983 59.6375 24.9627 59.6613 24.7092C59.6613 24.6621 59.6259 24.6444 59.5965 24.6444C59.5787 24.6444 59.5492 24.6621 59.5314 24.668C59.455 24.7092 59.3843 24.7623 59.3135 24.8153C59.1423 24.9391 58.9655 25.0688 58.7297 25.0688C58.7297 25.0688 58.7179 25.0688 58.7122 25.0688C58.7063 25.0688 58.7063 25.0688 58.7063 25.0688C58.4527 25.0924 58.3053 25.2398 58.1519 25.3931C57.9869 25.5581 57.816 25.7291 57.4977 25.7703L54.1667 26.2066C53.9132 26.236 53.6656 26.2891 53.4298 26.3422C53.1998 26.3952 52.9581 26.4483 52.7224 26.4777C52.2566 26.295 51.726 26.1476 51.2133 26.0061C50.5058 25.8057 49.8394 25.623 49.362 25.3636C49.2972 25.3282 48.684 25.004 48.0767 25.004C47.9353 25.004 47.7997 25.0217 47.6817 25.0571H47.6761H47.6701C47.5994 25.1042 46.9567 25.564 47.0393 26.8256C47.0747 27.3384 47.1101 27.704 47.1455 27.9986C47.163 28.1695 47.1808 28.311 47.1924 28.4525C47.1924 28.4822 47.2103 28.7473 47.2043 28.9536L47.2278 29.0481ZM42.3818 25.4108C42.3524 25.4108 42.3229 25.4108 42.2935 25.4108C41.5507 25.4108 40.8667 25.8057 40.2535 26.578C39.4578 26.914 38.8446 27.3208 38.1196 27.8749C38.0135 27.863 37.1467 27.5389 36.3097 27.2264C35.8026 27.0378 35.2779 26.8373 34.8769 26.6959C34.311 26.3009 33.6214 26.0592 33.1969 26.0002C33.1202 25.9884 33.0319 25.9826 32.9258 25.9826C32.4776 25.9826 31.9235 26.0769 31.7526 26.1594C31.7288 26.1653 31.6878 26.1889 31.6818 26.236C31.6818 26.2596 31.6878 26.2832 31.7053 26.3009C31.7288 26.3245 31.7642 26.3363 31.8293 26.3363C31.8941 26.3363 31.9824 26.3245 32.0885 26.3068C32.23 26.2891 32.4068 26.2596 32.5837 26.2596C33.0908 26.2596 33.3797 26.4601 33.5034 26.8904C33.3206 26.9258 33.2558 26.9788 33.191 27.0378C33.1202 27.1026 33.0554 27.1616 32.8197 27.197L32.7606 27.2087H32.7546C32.7136 27.2205 32.6839 27.2441 32.6839 27.2736C32.6782 27.3148 32.7136 27.3502 32.7252 27.3561C32.7784 27.3974 32.8607 27.4209 32.9612 27.4209C33.0614 27.4209 33.1734 27.3974 33.2617 27.3561C33.3559 27.309 33.468 27.2972 33.586 27.2854C33.751 27.2677 33.9397 27.2205 34.146 27.1085C34.7592 27.3679 35.3487 27.751 35.9087 28.2581C36.2862 28.5999 36.7163 28.9949 37.5477 29.4312C37.6006 29.4547 37.6773 29.4782 37.7659 29.4782C37.9074 29.4782 38.0664 29.4193 38.2492 29.2957C38.7622 28.9949 41.4152 27.4622 41.6803 27.3266H41.6862L41.6922 27.3208C42.0105 27.0142 42.1933 26.3716 42.2168 26.295C42.2287 26.2537 42.2403 26.2007 42.2581 26.1476C42.3229 25.9177 42.4112 25.6053 42.4231 25.4402L42.4291 25.4108H42.3818ZM47.9825 21.3255C47.7822 21.52 47.5934 21.579 47.4519 21.579C47.2926 21.579 47.1455 21.5377 47.0215 21.4846C47.0156 21.5495 47.0334 21.632 47.0569 21.691C47.1158 21.8442 47.2691 21.9327 47.4106 21.9327C47.729 21.9327 47.9825 21.6438 47.9825 21.3255ZM46.9627 20.9482C47.2219 21.1133 47.446 21.1545 47.6347 21.072C47.8823 20.96 47.9885 20.6711 47.9944 20.6358C48.0298 20.4059 47.9293 20.3705 47.7938 20.3292C47.6761 20.2879 47.5346 20.2408 47.5227 20.0345C47.5227 19.9578 47.4992 19.9107 47.4579 19.8871C47.3871 19.8399 47.2572 19.8753 47.1924 19.9048C47.1511 20.3587 46.9154 20.5709 46.7445 20.6711L46.9627 20.9482ZM44.3627 18.6255C44.3627 18.6255 44.0502 18.4841 43.7084 18.4546C43.2899 18.4192 43.0126 18.5076 42.8535 18.5843C42.594 18.7081 42.4704 19.0323 42.6059 19.2327C43.0069 18.9085 43.6493 18.7198 44.3627 18.6255ZM46.9273 24.7564C46.7858 24.7092 46.6972 24.6857 46.5676 24.6326C45.6301 24.2612 45.9898 23.3475 45.8602 22.6224C45.8423 22.475 45.8013 22.3276 45.6126 22.3866C45.524 22.4102 45.1881 22.7757 44.6575 22.587C44.8638 22.5222 45.0526 22.4573 45.1822 22.3571C45.359 22.2215 45.4179 22.0447 45.3296 21.9209C45.2764 21.8324 45.1527 21.8148 45.0526 21.8442C44.964 21.8737 44.8638 22.0152 44.8932 22.1567C44.8932 22.1567 44.681 22.1803 44.4572 21.968C44.3627 21.8796 44.2036 21.8501 44.0208 21.856C43.7613 21.8737 43.5964 21.8089 43.5021 21.52C43.3901 21.0366 42.877 20.6475 42.4644 20.4294C42.3583 20.7006 42.2581 20.8834 42.2641 21.2076C42.2935 21.4257 42.6826 21.3844 42.8241 21.408C43.2248 21.5082 42.5646 21.7912 42.5706 21.9857C42.5292 21.9268 42.4998 21.8089 42.5587 21.7558C42.6588 21.6143 42.4466 21.6261 42.3937 21.5554C42.3818 21.9385 42.0813 22.475 42.1048 22.6106C42.1107 22.646 42.4466 22.6696 42.4466 22.6696C42.5352 22.7521 42.4763 22.9112 42.4879 23.0233C42.4879 23.0291 42.4998 23.035 42.5058 23.035C42.5292 23.0468 42.6472 23.0586 42.6826 23.0586C42.712 23.0645 42.7415 23.0881 42.7415 23.1176C42.7415 23.1529 42.718 23.1765 42.6826 23.1765C42.6826 23.1765 42.6354 23.1765 42.5824 23.1647C42.6059 23.2649 42.6 23.371 42.7415 23.43C42.8122 23.5302 42.712 23.8073 42.8948 23.8545C43.4017 23.9723 44.0621 23.4005 44.6103 23.0173C44.5279 23.3416 44.0737 23.6894 43.962 24.0136C43.962 24.0136 43.9441 24.5324 43.8321 24.8684C43.6965 25.2752 43.2602 25.1985 42.9362 25.3636C42.9362 25.3872 42.9302 25.4166 42.9243 25.452C42.9183 25.4992 42.9064 25.5522 42.9064 25.6112V25.6407C42.9064 25.6524 42.9008 25.6701 42.9008 25.6937C42.877 25.9059 42.8122 26.4777 43.1778 26.6723C43.2955 26.7312 43.4314 26.7607 43.5904 26.7607C43.956 26.7607 44.4159 26.6015 44.9111 26.3009C45.4417 25.9826 45.7187 25.735 46.0192 25.4697C46.2374 25.2634 46.4969 25.0335 46.9273 24.7564ZM54.6854 27.9457C55.2692 28.8828 56.1654 28.8594 56.7843 28.6825C56.0768 28.4468 55.8233 28.3229 55.2927 27.7748C55.2986 27.7748 54.9627 27.8809 54.6854 27.9457ZM42.034 30.4097C41.8337 30.3509 41.7276 30.3036 41.5566 30.1856C41.0142 29.8203 40.6899 29.0362 41.079 28.3582C41.0849 28.3407 41.1084 28.2994 41.1792 28.1873C40.8846 28.3701 38.314 29.8792 38.314 29.8792C38.314 29.8792 38.3259 30.0679 38.5794 30.1621C39.1041 30.3271 39.7348 30.1799 40.0886 30.1092C39.8409 30.3743 39.5345 30.9168 39.6995 31.524C40.2182 31.3941 40.4658 31.3059 40.8549 30.7162C40.8433 31.2645 40.8079 32.1723 41.2912 32.6205C41.3738 32.3786 41.6628 31.4886 42.034 30.4097ZM55.847 27.6273C56.1122 27.8925 56.5132 28.2521 57.4329 28.4114C57.9221 28.4878 58.7357 28.3817 59.0659 28.2934C58.1519 28.0753 57.6451 27.6687 57.138 27.2441C56.979 27.2736 56.3598 27.4327 55.847 27.6273ZM57.8573 27.0672C58.2286 27.3679 58.6944 27.7451 59.4726 27.9457C60.3982 28.1695 61.6362 27.6214 61.707 27.5507C60.8934 27.5094 60.2802 27.2264 59.6494 26.8256C58.8831 27.2205 58.1462 26.9494 57.8573 27.0672ZM60.2626 26.5249C60.6752 26.7489 61.0055 26.8786 61.3886 26.9788C62.4025 27.2854 63.0333 26.5485 63.3222 26.124C63.3341 26.1064 63.3341 26.071 63.3046 26.071C61.9899 26.0651 61.8838 25.9472 61.3708 25.7291C61.2944 25.9 61.0289 26.3186 60.2626 26.5249Z" fill="white"/>
<path d="M44.3451 59.7412C54.6209 59.7412 56.3895 68 66.9304 68C73.315 68 73.4389 65.2884 73.4389 65.2884L72.3599 59.7471C73.7573 58.0788 79.4757 58.2732 79.4757 58.2732L74.5176 51.8477C69.9073 52.1425 66.1225 53.3332 66.1225 55.3315V61.2856C59.9089 61.2856 55.7584 53.0621 44.351 53.0621C32.9433 53.0621 28.7872 61.2856 22.5792 61.2856V55.3315C22.5792 53.3392 18.7887 52.1482 14.1843 51.8477L9.22632 58.2732C9.22632 58.2732 14.9507 58.0728 16.342 59.7471L15.2632 65.2884C15.2632 65.2884 15.387 68 21.7716 68C32.3009 68 34.0755 59.7412 44.3451 59.7412Z" fill="#000F46"/>
<path d="M68.933 57.8259C71.3856 58.5038 71.6156 58.9402 71.6745 59.1878C71.7218 59.441 71.6626 59.677 71.4858 59.9008C70.8609 60.6968 68.9743 61.2333 66.6692 61.2746V56.6881C67.129 57.1598 67.8778 57.5369 68.933 57.8259ZM66.6751 55.3027C66.6751 56.4289 67.8483 56.9475 69.0864 57.2894C71.4388 57.9379 72.0517 58.4212 72.2345 59.0932C73.337 58.2444 75.2765 57.8847 78.3245 57.767L74.1919 52.3907C72.659 52.5438 70.967 52.7798 69.7763 53.1335C67.925 53.6816 66.6751 54.4597 66.6751 55.3027ZM71.8927 60.3018C70.9846 61.3864 68.6147 61.8052 66.6751 61.8405H66.1151C63.3088 61.8405 60.9861 60.3196 58.2978 58.5627C54.8608 56.3168 50.9758 53.7761 44.9036 53.6287H43.7833C37.7052 53.7761 33.8261 56.3168 30.3891 58.5627C27.7008 60.3196 25.3781 61.8405 22.5718 61.8405H22.0118C20.0723 61.8052 17.7023 61.3864 16.7943 60.3018L15.8216 65.3009C15.9042 65.6308 16.582 67.4406 21.7583 67.4406C26.8872 67.4406 29.8056 65.4599 32.8946 63.3671C35.8189 61.3807 38.8431 59.3349 43.7833 59.1878H44.9036C49.8439 59.3349 52.8683 61.3807 55.7923 63.3671C58.8816 65.4599 61.7997 67.4406 66.9287 67.4406C72.1049 67.4406 72.7886 65.6251 72.8653 65.3009L71.8927 60.3018ZM19.7539 57.8259C17.3013 58.5038 17.0716 58.9402 17.0124 59.1878C16.9655 59.441 17.0243 59.677 17.2012 59.9008C17.826 60.6968 19.7126 61.2333 22.0177 61.2746V56.6881C21.5579 57.1598 20.8151 57.5369 19.7539 57.8259ZM18.9166 53.1275C17.7258 52.7738 16.0339 52.5381 14.5011 52.3848L10.3684 57.7611C13.4163 57.879 15.35 58.2444 16.4583 59.0873C16.6352 58.4212 17.2484 57.9379 19.6065 57.2834C20.8386 56.9416 22.0177 56.4229 22.0177 55.297C22.0118 54.4597 20.7619 53.6816 18.9166 53.1275Z" fill="white"/>
<path d="M71.2452 64.9427C71.2452 64.9427 71.3867 65.5734 71.3629 65.6088C71.3629 65.6088 71.2863 65.6385 71.2568 65.6207C71.2333 65.5678 71.2158 65.5559 71.0859 65.5793C71.0859 65.5793 69.1345 66.0157 69.0991 65.9922C69.0991 65.9922 69.0756 65.9155 69.0991 65.8801C69.2347 65.8329 69.2347 65.8035 69.2231 65.7387L68.6865 63.3275C68.6746 63.2627 68.663 63.239 68.4743 63.2333C68.4743 63.2333 68.4565 63.1566 68.4802 63.1213L70.3725 62.7028C70.4965 62.673 70.5081 62.6496 70.5318 62.5669C70.5318 62.5669 70.6026 62.5375 70.6379 62.5613C70.6379 62.5613 70.7854 63.2095 70.7616 63.2449C70.7616 63.2449 70.6849 63.2627 70.6496 63.2449C70.6261 63.2036 70.6085 63.1861 70.4846 63.2155C70.4846 63.2155 69.3467 63.469 69.3408 63.4396C69.3408 63.4455 69.4647 64.0171 69.4647 64.1057C69.4647 64.1116 69.4647 64.1176 69.4588 64.1176C69.4647 64.1176 70.1487 63.9642 70.1487 63.9642C70.2783 63.9348 70.2842 63.9229 70.3077 63.8403C70.3077 63.8403 70.3903 63.8108 70.4198 63.8227C70.4198 63.8227 70.5791 64.4713 70.5553 64.5066C70.5553 64.5066 70.4727 64.5361 70.4433 64.5301C70.4257 64.4888 70.3903 64.4594 70.2607 64.4829C70.2607 64.4829 69.6535 64.6184 69.5943 64.6303C69.6122 64.7129 69.7358 65.261 69.7301 65.3436C69.7301 65.3496 69.7242 65.3555 69.7242 65.3555C69.7299 65.3555 70.9622 65.0842 70.9622 65.0842C71.0918 65.0547 71.0978 65.0429 71.1213 64.9546C71.1213 64.9546 71.198 64.9192 71.2333 64.9367L71.2452 64.9427ZM59.2597 63.3156C59.2597 63.3156 59.3304 63.351 59.3423 63.3923C59.3423 63.3923 58.9532 63.9877 58.9119 63.9936C58.9119 63.9936 58.8471 63.9583 58.8352 63.9229C58.859 63.87 58.859 63.8346 58.7469 63.7639C58.7469 63.7639 57.1373 62.7084 57.1317 62.6674C57.1317 62.6674 57.1727 62.5966 57.2081 62.5848C57.3142 62.6377 57.3439 62.6261 57.3793 62.5669L58.7291 60.5098C58.7704 60.4507 58.7763 60.4212 58.6702 60.2976C58.6702 60.2976 58.7056 60.2268 58.7469 60.2209C58.7469 60.2209 59.5132 60.722 59.5192 60.763C59.5192 60.763 59.4897 60.8338 59.4484 60.8457C59.3129 60.7749 59.2834 60.7868 59.2421 60.8457C59.2421 60.8457 58.0514 62.6614 58.016 62.6614L59.0299 63.3275C59.136 63.3923 59.1595 63.3923 59.2597 63.3156ZM39.6812 58.2577C39.6812 58.2577 39.6399 58.3284 39.6105 58.3344C39.5751 58.3168 39.5516 58.3049 39.5279 58.3109C39.3688 58.4229 39.3156 58.7882 38.673 58.977C37.9067 59.2127 37.1933 58.7882 36.9398 57.9512C36.6273 56.9314 37.1698 56.2654 37.8478 56.0531C38.4197 55.8938 38.6555 56.1355 38.7262 56.0588C38.7794 55.9999 38.8088 55.9527 38.8442 55.9586L38.909 55.9646L38.8912 56.0472C38.8912 56.0472 38.7321 56.79 38.7027 56.8135L38.6379 56.8016C38.6379 56.8016 38.626 56.7133 38.5553 56.6366C38.4492 56.5245 38.2075 56.4892 38.0128 56.5483C37.7711 56.6191 37.2346 56.8253 37.5235 57.7625C37.6769 58.2107 37.9834 58.6055 38.5669 58.4524C38.7381 58.3992 38.8971 58.2755 38.9679 58.14C38.9679 58.14 39.0386 57.9926 38.956 57.8157C38.956 57.8157 38.9913 57.7566 39.0267 57.7566L39.6812 58.2577ZM22.5435 63.5279C22.3135 63.2862 21.9892 63.1507 21.6236 63.1388C21.2523 63.1329 20.928 63.2508 20.6863 63.4809C20.4034 63.746 20.244 64.1529 20.2324 64.6184C20.2087 65.5264 20.7392 66.1453 21.5528 66.169C21.9244 66.1747 22.2487 66.0629 22.4903 65.8269C22.7733 65.5618 22.9323 65.1549 22.9442 64.6835C22.9502 64.2237 22.8087 63.8049 22.5435 63.5279ZM22.3253 64.6716C22.3194 65.0313 22.2249 65.3083 22.054 65.4732C21.9303 65.5972 21.7594 65.656 21.5588 65.6501C21.0814 65.6385 20.8278 65.2788 20.8397 64.6422C20.8454 64.2766 20.9458 64.0055 21.1167 63.8403C21.2404 63.7225 21.4057 63.6634 21.606 63.6694C21.8064 63.6753 21.9716 63.7401 22.0893 63.864C22.2546 64.0349 22.3369 64.312 22.3253 64.6716ZM66.9887 63.2803L65.7741 63.2743C65.7447 63.304 65.7387 63.3804 65.7387 63.3804C65.8567 63.4218 65.8746 63.4512 65.8686 63.5279L65.8627 65.9922C65.8627 66.0686 65.8508 66.0864 65.7506 66.104L65.7271 66.2101C65.7566 66.2398 66.8647 66.2454 66.8647 66.2454C67.3483 66.2454 67.7196 66.1218 67.9672 65.8742C68.2207 65.6266 68.3447 65.2551 68.3447 64.7658C68.3506 63.8462 67.8435 63.2862 66.9887 63.2803ZM67.7374 64.7718C67.7315 65.497 67.5014 65.7268 66.7705 65.7268H66.4521C66.4816 65.7208 66.4875 63.9701 66.4934 63.8108C66.5407 63.8108 66.7824 63.8168 66.7824 63.8168C67.5074 63.8168 67.7434 64.0525 67.7434 64.7658V64.7718H67.7374ZM47.6165 55.2158C47.6165 55.2158 47.8582 55.3573 47.8936 55.3692C47.9289 55.3811 47.9703 55.3573 48.0056 55.3279L48.0939 55.3986C48.0939 55.3986 47.5928 56.0412 47.5514 56.0472C47.5514 56.0472 47.4807 56.0059 47.4632 55.9764C47.4632 55.9764 47.475 55.8998 47.481 55.8819C47.5104 55.7405 47.239 55.5461 46.8324 55.4988C46.679 55.4753 46.5613 55.4988 46.4787 55.5636C46.396 55.6227 46.3785 55.6935 46.3726 55.7642C46.3488 55.988 46.6377 56.0942 46.9739 56.2122C47.4632 56.389 48.0704 56.6012 47.9878 57.3027C47.9584 57.5268 47.8404 57.7271 47.6576 57.8746C47.4691 58.022 47.127 58.1869 46.5554 58.1046C46.5554 58.1046 45.9951 58.0042 45.5825 57.7271C45.5825 57.7271 45.5706 57.7155 45.4588 57.7919L45.3821 57.7331L45.3997 57.7096C45.3997 57.7096 45.8241 57.0551 45.8655 57.0435L45.9421 57.0845C45.9421 57.0845 45.9362 57.1377 45.9362 57.1553C45.9127 57.3675 46.4139 57.5387 46.6496 57.5681C46.9266 57.6035 47.1213 57.5741 47.2331 57.4855C47.2863 57.4382 47.3392 57.3559 47.357 57.2438C47.3924 57.0022 47.0741 56.8901 46.7203 56.7605C46.2486 56.5893 45.6651 56.3831 45.7418 55.7642C45.7947 55.3573 46.1425 54.9153 46.9445 55.0155C47.1977 55.0449 47.4218 55.1157 47.6165 55.2158ZM52.4625 56.6779C52.4212 56.6955 52.3918 56.7662 52.3918 56.7662C52.486 56.8488 52.4801 56.8666 52.4741 56.8782L52.3151 57.061L50.6053 58.7942C50.6053 58.7942 50.5581 58.8414 50.5052 58.8474C50.4757 58.853 50.4344 58.859 50.3991 58.859L50.3577 58.9535L51.1184 59.3072L51.1597 59.2127C51.1478 59.2067 51.1359 59.1951 51.124 59.1773C51.1124 59.1598 51.1124 59.142 51.1184 59.1185C51.13 59.1006 51.1597 59.0537 51.1597 59.0537C51.1597 59.0537 51.4956 58.694 51.5075 58.6705C51.531 58.6881 52.3918 59.0831 52.3918 59.089C52.3858 59.1303 52.3267 59.5958 52.3267 59.5958C52.3267 59.5958 52.3151 59.649 52.3092 59.6666C52.2973 59.6844 52.2857 59.6963 52.2619 59.7019C52.2384 59.7019 52.2206 59.7019 52.209 59.6963L52.1677 59.7905L52.9283 60.1442L52.9693 60.05C52.9459 60.0203 52.9224 59.9908 52.9105 59.9614C52.8811 59.9201 52.8927 59.8494 52.8927 59.8494L53.1052 57.4266L53.1346 57.2025C53.1406 57.185 53.1581 57.1496 53.2407 57.179C53.2761 57.1612 53.3115 57.0905 53.3115 57.0905C53.3115 57.0492 52.4625 56.6779 52.4625 56.6779ZM52.4566 58.6292C52.4566 58.6292 51.9082 58.3757 51.8199 58.3344C51.8669 58.2815 52.5095 57.5741 52.5981 57.4795C52.5981 57.4795 52.4625 58.5998 52.4566 58.6292ZM61.4293 61.8595C61.388 61.8714 61.3585 61.9422 61.3585 61.9422C61.4471 62.0307 61.4412 62.0483 61.4352 62.0542L61.2702 62.2311C61.2702 62.2311 59.5016 63.8994 59.5016 63.9053C59.5016 63.9053 59.4544 63.9523 59.4012 63.9583C59.3658 63.9642 59.3307 63.9642 59.2953 63.9642L59.2481 64.0525L59.9968 64.43L60.0438 64.3414C60.0322 64.3354 60.0203 64.3238 60.0084 64.306C59.9968 64.2885 59.9968 64.2706 60.0084 64.2472C60.0203 64.2293 60.0557 64.1883 60.0557 64.1883C60.0557 64.1883 60.4035 63.8403 60.4213 63.8168C60.4448 63.8346 61.2878 64.259 61.2937 64.2647C61.2878 64.306 61.2111 64.7718 61.2111 64.7718C61.2111 64.7718 61.1995 64.825 61.1876 64.8425C61.1757 64.8603 61.1641 64.8719 61.1403 64.8719C61.1169 64.8719 61.099 64.8719 61.0874 64.866L61.0402 64.9546L61.7889 65.3318L61.8362 65.2435C61.8124 65.2081 61.7949 65.1787 61.777 65.149C61.7536 65.1079 61.7595 65.0372 61.7595 65.0372L62.0541 62.6201L62.0954 62.396C62.1013 62.3785 62.1192 62.3431 62.2015 62.3785C62.2369 62.3666 62.2723 62.2899 62.2723 62.2899C62.2607 62.2605 61.4293 61.8595 61.4293 61.8595ZM61.3526 63.8108C61.3526 63.8108 60.8161 63.5398 60.7278 63.4925C60.775 63.4396 61.4471 62.7557 61.5354 62.6614C61.5294 62.6674 61.3585 63.7814 61.3526 63.8108ZM45.1818 57.2557C45.1818 57.2557 45.2053 57.904 45.1758 57.9334C45.1758 57.9334 45.0932 57.9512 45.0638 57.9278C45.0519 57.8746 45.0343 57.857 44.9045 57.857C44.9045 57.857 42.9061 57.9218 42.8766 57.8924C42.8766 57.8924 42.8707 57.8098 42.8942 57.7803C43.0357 57.7566 43.0416 57.7331 43.0416 57.6623L42.9649 55.1924C42.9649 55.1276 42.959 55.0981 42.7705 55.0568C42.7705 55.0568 42.7705 54.9801 42.8 54.9507L44.7395 54.8916C44.8691 54.8859 44.8869 54.8621 44.9223 54.7855C44.9223 54.7855 44.999 54.7739 45.0284 54.8033C45.0284 54.8033 45.0519 55.4694 45.0225 55.4988C45.0225 55.4988 44.9458 55.5047 44.9163 55.4813C44.9045 55.434 44.8869 55.4165 44.757 55.4221C44.757 55.4221 43.5957 55.4575 43.59 55.4281C43.59 55.434 43.6076 56.0178 43.59 56.106C43.59 56.112 43.5841 56.1179 43.5841 56.1179C43.5897 56.1179 44.2915 56.0942 44.2915 56.0942C44.4211 56.0885 44.433 56.0826 44.4684 55.9999C44.4684 55.9999 44.5567 55.9824 44.5802 55.9999C44.5802 55.9999 44.6155 56.666 44.5861 56.6955C44.5861 56.6955 44.4978 56.7073 44.4743 56.6955C44.4625 56.6485 44.4387 56.6131 44.3031 56.6191C44.3031 56.6191 43.6783 56.6366 43.6251 56.6366C43.6311 56.7192 43.6489 57.2792 43.6311 57.3675C43.6311 57.3734 43.6251 57.3734 43.6251 57.3734C43.6311 57.3734 44.8929 57.3321 44.8929 57.3321C45.0225 57.3265 45.0344 57.3146 45.0697 57.2379C45.0697 57.2379 45.1521 57.2144 45.1818 57.2438V57.2557ZM24.7717 62.8912C24.7717 62.8912 25.0371 62.9503 25.0784 62.9503C25.1138 62.9503 25.1492 62.915 25.1667 62.8737L25.2728 62.909C25.2728 62.909 25.0077 63.6578 24.9723 63.6812C24.9723 63.6812 24.8897 63.6634 24.8662 63.6399C24.8662 63.6399 24.8543 63.5632 24.8543 63.5457C24.8368 63.4102 24.5244 63.3097 24.1353 63.3864C23.9878 63.4158 23.8874 63.475 23.8285 63.5516C23.7697 63.628 23.7756 63.7047 23.7931 63.7695C23.8404 63.9877 24.1353 63.9936 24.489 63.9996C24.9958 64.0115 25.6266 64.0231 25.7621 64.6951C25.8034 64.9073 25.7565 65.1374 25.6325 65.3258C25.5029 65.5205 25.2375 65.78 24.6834 65.8742C24.6834 65.8742 24.135 65.9509 23.6695 65.8269C23.6695 65.8269 23.6517 65.821 23.575 65.9215L23.4867 65.8917L23.4926 65.8623C23.4926 65.8623 23.6811 65.1255 23.7165 65.102L23.7991 65.1195C23.7991 65.1195 23.811 65.1727 23.8166 65.1903C23.8579 65.3966 24.3769 65.3966 24.6067 65.3496C24.8721 65.2964 25.0431 65.2081 25.1254 65.0901C25.1608 65.0313 25.1846 64.9367 25.1667 64.825C25.1257 64.589 24.8014 64.583 24.4239 64.5714C23.9346 64.5596 23.3333 64.5477 23.2096 63.9464C23.133 63.5516 23.3158 63.0386 24.094 62.8853C24.3356 62.8618 24.5654 62.8558 24.7717 62.8912ZM31.1387 62.3077C31.1387 62.3077 31.4924 62.8499 31.4868 62.8912C31.4868 62.8912 31.4276 62.9503 31.3922 62.9444C31.3509 62.9031 31.3274 62.8971 31.2213 62.9679C31.2213 62.9679 29.5469 64.0584 29.5059 64.0525C29.5059 64.0525 29.4587 63.9877 29.4646 63.9464C29.5767 63.8521 29.5648 63.8287 29.5294 63.7695L28.1793 61.7005C28.1439 61.6416 28.1205 61.6238 27.9436 61.6827C27.9436 61.6827 27.9023 61.6179 27.9082 61.5766L29.5294 60.5214C29.6355 60.4507 29.6415 60.4212 29.6296 60.3386C29.6296 60.3386 29.6884 60.2857 29.7297 60.2976C29.7297 60.2976 30.0954 60.8516 30.0835 60.8929C30.0835 60.8929 30.0187 60.9399 29.9833 60.9342C29.9479 60.8989 29.9244 60.8929 29.8124 60.9637C29.8124 60.9637 28.8398 61.6003 28.822 61.5766C28.822 61.5825 29.1403 62.0717 29.1697 62.1544C29.1697 62.1603 29.1697 62.1663 29.1697 62.1663C29.1757 62.1663 29.7651 61.7831 29.7651 61.7831C29.8772 61.7124 29.8772 61.7005 29.8653 61.6119C29.8653 61.6119 29.9304 61.5531 29.9598 61.5531C29.9598 61.5531 30.337 62.1015 30.3254 62.1425C30.3254 62.1425 30.2544 62.2016 30.2309 62.2016C30.1955 62.1663 30.1542 62.1544 30.0481 62.2251C30.0481 62.2251 29.5235 62.5613 29.4762 62.5966C29.5235 62.6674 29.8299 63.1388 29.8596 63.2155C29.8596 63.2214 29.8596 63.2274 29.8596 63.2274C29.8653 63.2274 30.9208 62.5375 30.9208 62.5375C31.0326 62.4668 31.0326 62.4492 31.0269 62.3606C31.0269 62.3606 31.0858 62.3018 31.1271 62.3077H31.1387ZM33.5618 58.0574C33.55 58.0987 33.5853 58.1635 33.5853 58.1635C33.7093 58.14 33.7209 58.1575 33.7209 58.1635L33.7741 58.3992L34.1159 60.8103C34.1159 60.8103 34.1278 60.881 34.1043 60.9224C34.0865 60.9518 34.0689 60.9812 34.0452 61.0166L34.0924 61.1051L34.8352 60.7101L34.788 60.6216C34.7764 60.6275 34.7586 60.6275 34.741 60.6275C34.7172 60.6275 34.6997 60.6159 34.6938 60.5981C34.6819 60.5805 34.6703 60.5273 34.6703 60.5273C34.6703 60.5273 34.5876 60.044 34.5758 60.0146C34.5995 60.0087 35.4425 59.5664 35.4425 59.5605C35.4719 59.5958 35.8081 59.9201 35.8081 59.9201C35.8081 59.9201 35.8432 59.9614 35.8551 59.9792C35.867 59.9968 35.867 60.0203 35.8551 60.0381C35.8432 60.0556 35.8316 60.0675 35.8197 60.0735L35.867 60.1617L36.6098 59.767L36.5625 59.6784C36.5212 59.6784 36.4859 59.6784 36.4564 59.6725C36.4095 59.6666 36.3563 59.6196 36.3563 59.6196L34.5582 57.9807L34.3989 57.8216C34.3873 57.8038 34.3695 57.7684 34.4462 57.7212C34.458 57.6802 34.4167 57.6094 34.4167 57.6094C34.3695 57.6151 33.5618 58.0574 33.5618 58.0574ZM35.1123 59.254C35.1123 59.254 34.5817 59.531 34.4934 59.5842C34.4815 59.5135 34.3047 58.5701 34.2812 58.4464C34.2812 58.4464 35.0888 59.2305 35.1123 59.254ZM50.5346 58.6114C50.5346 58.6114 50.4639 58.6468 50.4344 58.6352C50.4166 58.5998 50.405 58.576 50.3756 58.5701C50.1809 58.576 49.9333 58.8474 49.2966 58.6527C48.5303 58.4286 48.1647 57.6802 48.4123 56.8369C48.7131 55.8112 49.5382 55.5579 50.2163 55.7583C50.7822 55.9411 50.847 56.271 50.9472 56.2475C51.0239 56.23 51.0771 56.2062 51.1006 56.23L51.1538 56.271L51.0946 56.3302C51.0946 56.3302 50.5524 56.8666 50.5171 56.8666L50.4698 56.8253C50.4698 56.8253 50.5111 56.7487 50.4933 56.6425C50.4639 56.4892 50.2811 56.3302 50.0866 56.271C49.845 56.2003 49.285 56.0707 49.0076 57.0197C48.8899 57.4795 48.931 57.9747 49.4969 58.1753C49.6681 58.2223 49.8685 58.2107 50.004 58.134C50.004 58.134 50.1455 58.0514 50.1749 57.857C50.1749 57.857 50.2397 57.8273 50.2635 57.8451L50.5346 58.6114ZM19.2361 62.7735L17.9154 62.52C17.88 62.5434 17.886 62.6201 17.886 62.6201C18.0099 62.6909 18.0156 62.7203 17.998 62.791L17.5263 65.214C17.5147 65.2848 17.4909 65.3142 17.3848 65.3083C17.3494 65.3318 17.3435 65.4263 17.3435 65.4263C17.3494 65.4319 18.2278 65.5972 18.2278 65.5972L18.2456 65.497C18.1455 65.4438 18.1276 65.4144 18.1276 65.3671C18.1276 65.3555 18.1276 65.3436 18.1336 65.3318C18.1336 65.3318 18.3223 64.3768 18.3223 64.3652C18.3223 64.3946 18.8999 64.5066 18.8999 64.5066C19.6427 64.6538 19.9964 64.2531 20.0791 63.8346C20.1676 63.4158 19.9848 62.915 19.2361 62.7735ZM18.9058 63.9701C18.9058 63.9701 18.4284 63.8756 18.4225 63.8756C18.4519 63.7873 18.5405 63.2568 18.558 63.1742C18.6112 63.1861 19.0414 63.2687 19.0414 63.2687C19.401 63.3451 19.5309 63.4631 19.4837 63.7225C19.4305 63.9817 19.2774 64.0409 18.9058 63.9701ZM33.8329 61.0814C33.7268 61.0992 33.6855 61.0814 33.5146 60.9812L32.6716 60.5038C33.0078 60.1383 32.9605 59.7316 32.7658 59.4368C32.5301 59.0772 32.0587 58.8474 31.416 59.2599L30.2898 59.9908C30.2841 60.0321 30.343 60.0853 30.343 60.0853C30.4785 60.05 30.502 60.0675 30.5433 60.1264L31.8875 62.1957C31.9288 62.2545 31.9347 62.2959 31.8461 62.3606C31.8405 62.402 31.8993 62.4727 31.8993 62.4727C31.9112 62.4727 32.6541 61.9835 32.6541 61.9835L32.589 61.8774C32.4828 61.9068 32.4475 61.9008 32.4121 61.8655C32.4064 61.8539 32.3946 61.8479 32.3886 61.836C32.3886 61.836 31.8815 61.0579 31.8759 61.046C31.8759 61.046 32.0349 60.9458 32.1704 60.8576C32.3119 60.9518 33.1493 61.4294 33.1609 61.4351C33.1846 61.4529 33.1255 61.5118 33.1079 61.5236C33.102 61.5412 33.1727 61.6357 33.1727 61.6357C33.1903 61.6416 33.8977 61.1699 33.8977 61.1699C33.8861 61.1521 33.8329 61.0814 33.8329 61.0814ZM31.2097 60.0262C31.2567 59.9968 31.6223 59.7551 31.6223 59.7551C31.9347 59.5605 32.1056 59.5548 32.2531 59.7727C32.3946 59.9968 32.3298 60.1501 32.0114 60.3505C32.0114 60.3505 31.6045 60.6159 31.5985 60.6216C31.5575 60.5452 31.2508 60.0969 31.2097 60.0262ZM42.4697 57.8805C42.3636 57.857 42.3342 57.8216 42.2102 57.6623L41.6148 56.8961C42.0631 56.6898 42.1751 56.2948 42.116 55.9527C42.0393 55.5342 41.6915 55.1335 40.9428 55.269L39.6224 55.5107C39.5986 55.5461 39.634 55.6168 39.634 55.6168C39.7755 55.6403 39.7874 55.6641 39.8049 55.7348L40.2472 58.1635C40.2591 58.2342 40.2531 58.2696 40.147 58.299C40.1233 58.3344 40.147 58.4229 40.147 58.4229C40.1586 58.4286 41.0313 58.2636 41.0313 58.2636L41.0076 58.14C40.8958 58.1222 40.8664 58.1046 40.8485 58.0633C40.8426 58.0514 40.8426 58.0395 40.8366 58.0279C40.8366 58.0279 40.6717 57.1142 40.6657 57.1024C40.6657 57.1024 40.8485 57.0729 41.0135 57.0435C41.108 57.185 41.6975 57.9512 41.7034 57.9572C41.721 57.9807 41.6443 58.0101 41.6208 58.016C41.6089 58.0279 41.6386 58.14 41.6386 58.14C41.6502 58.1516 42.4875 57.9926 42.4875 57.9926C42.4932 57.9631 42.4697 57.8805 42.4697 57.8805ZM40.4535 55.8938C40.5067 55.8819 40.9371 55.8055 40.9371 55.8055C41.2965 55.7464 41.4617 55.8055 41.5087 56.0647C41.556 56.3242 41.432 56.4422 41.0608 56.507C41.0608 56.507 40.5831 56.5953 40.5774 56.5953C40.5774 56.507 40.4713 55.9764 40.4535 55.8938ZM27.9671 64.583C27.9965 64.6538 28.0203 64.6657 28.1439 64.6538L28.1912 64.7483L28.1618 64.7599C28.1618 64.7599 27.4778 65.0726 27.413 65.0961C27.413 65.0961 27.3658 65.0134 27.3717 64.9899C27.3892 64.9781 27.4246 64.9367 27.4246 64.9073C27.4246 64.8898 27.419 64.866 27.4011 64.8366C27.4011 64.8366 26.5287 62.9503 26.4933 62.8442L25.892 63.1272C25.7975 63.1742 25.774 63.1979 25.774 63.2803C25.774 63.2922 25.774 63.3097 25.7799 63.3275C25.7799 63.3275 25.7151 63.3804 25.6738 63.3629C25.6738 63.3629 25.373 62.7203 25.3849 62.679C25.3849 62.679 25.4438 62.6377 25.4791 62.6436C25.5145 62.6909 25.5383 62.7028 25.656 62.6436L27.3658 61.8655C27.4778 61.8126 27.5013 61.8066 27.5013 61.7124C27.5013 61.7124 27.5486 61.677 27.5899 61.6651C27.5899 61.6651 27.9142 62.3253 27.9023 62.3606C27.9023 62.3606 27.8375 62.4079 27.8021 62.396C27.7548 62.3253 27.7254 62.2783 27.6134 62.3312C27.6134 62.3312 27.0768 62.5848 27.0533 62.5848C27.0712 62.6023 27.9671 64.583 27.9671 64.583ZM63.3747 65.8683C62.6379 65.662 62.3668 65.1903 62.5552 64.4769L62.9856 62.909C63.0035 62.8383 62.9681 62.7792 62.8736 62.7381C62.8736 62.6968 62.8974 62.6261 62.8974 62.6261C62.8974 62.6261 63.4987 62.7851 63.7638 62.8677C63.7638 62.8677 63.7463 62.9503 63.7169 62.9738C63.6223 62.9619 63.5989 62.9973 63.581 63.0681L63.1506 64.6481C63.1037 64.825 63.1155 64.984 63.1863 65.1079C63.2511 65.2256 63.3629 65.3083 63.5222 65.3555C63.6812 65.3966 63.8227 65.379 63.9407 65.3202C64.0646 65.2494 64.1589 65.1195 64.2118 64.9427L64.666 63.3688C64.6835 63.2981 64.6835 63.2568 64.6012 63.2155C64.5833 63.1801 64.6128 63.0975 64.6128 63.0975C64.8782 63.1682 65.4795 63.3394 65.4795 63.3394C65.4795 63.3394 65.4676 63.4158 65.4442 63.4455C65.3437 63.4336 65.2789 63.469 65.2614 63.5338L64.8075 65.0961C64.5893 65.8153 64.1057 66.0745 63.3747 65.8683ZM54.3842 61.046C54.3726 61.0344 54.3548 61.0285 54.3432 61.0166C54.3432 61.0166 54.7026 59.095 54.7971 58.7707C54.8028 58.7529 54.8028 58.7353 54.8087 58.7175C54.685 58.9181 53.7535 60.3859 53.7535 60.3859C53.7419 60.3977 53.7359 60.4153 53.7359 60.4331C53.7359 60.4566 53.7535 60.492 53.8067 60.5508L53.7535 60.6394C53.7535 60.6394 53.1108 60.2325 53.0695 60.2031C53.0695 60.2031 53.1108 60.1264 53.1346 60.1207C53.1875 60.1501 53.2464 60.1207 53.2761 60.0794L54.6318 57.9394C54.6556 57.898 54.6613 57.8686 54.5965 57.7863C54.5965 57.7863 54.6202 57.7096 54.6672 57.6977C54.6672 57.6977 55.534 58.2401 55.534 58.2517C55.534 58.2517 55.4927 58.3168 55.4632 58.3284C55.4044 58.3168 55.3747 58.3579 55.3631 58.3697C55.3333 58.417 55.0269 60.0381 55.0209 60.05C55.0328 60.044 56.3651 59.0712 56.4005 59.0299C56.4123 59.0183 56.4299 58.971 56.3945 58.9238C56.3945 58.8884 56.4358 58.8236 56.4358 58.8236C56.4477 58.8177 57.3026 59.372 57.3026 59.372C57.3142 59.4133 57.2553 59.4722 57.2553 59.4722C57.1552 59.4487 57.1257 59.4662 57.102 59.5075L55.7462 61.6473C55.7168 61.6946 55.7224 61.7594 55.7697 61.7947C55.7756 61.8185 55.7224 61.8892 55.7224 61.8892C55.6755 61.8655 55.0328 61.4529 55.0328 61.4529L55.0917 61.3643C55.1684 61.3881 55.2097 61.3881 55.2275 61.3762C55.2451 61.3703 55.251 61.3587 55.2626 61.3409C55.2626 61.3409 56.1942 59.8731 56.3238 59.6725C56.3122 59.6844 56.2943 59.6963 56.2768 59.7079C56.0292 59.932 54.4374 61.0757 54.4374 61.0757C54.4137 61.0638 54.3961 61.0519 54.3842 61.046Z" fill="#000F46"/>
<path d="M87.9208 36.4992H246.871V37.4062H87.9208V36.4992ZM107.788 16.1731H107.351L105.843 16.1296C105.756 16.1296 105.482 16.1296 105.482 16.3698C105.482 16.49 105.581 16.5776 105.712 16.5776L106.204 16.6211C106.608 16.7087 106.728 16.8723 106.761 17.3754L106.794 20.6097V20.9266L100.444 20.894L100.466 20.5987L100.499 17.3644C100.532 16.8508 100.641 16.6646 100.969 16.6101L101.319 16.5665C101.45 16.5665 101.559 16.4789 101.559 16.3588C101.559 16.2057 101.439 16.1186 101.199 16.1186L99.9745 16.1511H99.5265L98.0293 16.1076C97.7889 16.1076 97.6687 16.1842 97.6687 16.3478C97.6687 16.4679 97.7671 16.5555 97.8982 16.5555L98.3791 16.5991C98.7943 16.6867 98.9145 16.8508 98.9364 17.3534L98.9692 20.5987V23.2435C98.9692 24.6534 98.9692 25.8662 98.8927 26.4893C98.8271 26.9373 98.7615 27.1776 98.543 27.2211L98.1168 27.2762C97.9529 27.2762 97.8763 27.3743 97.8763 27.4834C97.8763 27.7131 98.1386 27.7131 98.237 27.7131L99.461 27.6801H99.8872L101.559 27.7241C101.876 27.7241 101.909 27.56 101.909 27.4944C101.909 27.3963 101.832 27.2867 101.679 27.2867L101.013 27.2321C100.663 27.1776 100.576 26.9483 100.521 26.4998C100.444 25.8772 100.444 24.6639 100.444 23.2545V21.6809L106.805 21.7029L106.772 23.2545C106.772 24.6639 106.772 25.8772 106.695 26.4998C106.641 26.9373 106.564 27.1886 106.346 27.2321L105.919 27.2867C105.756 27.2867 105.679 27.3963 105.679 27.4944C105.679 27.7241 105.941 27.7241 106.04 27.7241L107.275 27.6911H107.69L109.373 27.7351C109.701 27.7351 109.733 27.571 109.733 27.5054C109.733 27.4073 109.657 27.2977 109.493 27.2977L108.826 27.2431C108.466 27.1886 108.378 26.9588 108.335 26.5109C108.258 25.8882 108.258 24.675 108.258 23.2655V20.6207L108.291 17.3859C108.324 16.8724 108.433 16.6867 108.75 16.6321L109.1 16.5886C109.242 16.5886 109.34 16.501 109.34 16.3809C109.34 16.1401 109.078 16.1401 108.979 16.1401L107.788 16.1731ZM117.427 16.0966C117.121 16.1621 116.804 16.1731 116.804 16.1731L113.362 16.1841L113.154 16.1731L111.657 16.1401C111.569 16.1401 111.296 16.1401 111.296 16.3698C111.296 16.49 111.395 16.5665 111.526 16.5776L112.006 16.6211C112.4 16.6541 112.531 16.8723 112.564 17.3754L112.597 20.6097V23.2545C112.597 24.6639 112.597 25.8772 112.52 26.4998C112.455 26.9483 112.389 27.1886 112.17 27.2321C112.105 27.2431 111.744 27.2867 111.744 27.2867C111.569 27.2977 111.515 27.3853 111.515 27.4944C111.515 27.7241 111.777 27.7241 111.864 27.7241L113.088 27.6911L113.908 27.7021L117.055 27.7677C117.646 27.7677 117.853 27.7677 117.973 27.2977C118.05 26.9809 118.17 25.9428 118.17 25.8116C118.17 25.7025 118.17 25.4728 117.962 25.4728C117.777 25.4728 117.744 25.6805 117.722 25.7896C117.623 26.3687 117.46 26.642 117.11 26.7841C116.739 26.9373 116.093 26.9373 115.711 26.9373C114.258 26.9373 114.116 26.7516 114.083 25.8116V23.9102V23.2435V21.9211C114.083 21.9321 116.214 22.0087 116.214 22.0087C116.728 22.0632 116.87 22.271 116.891 22.4456C116.924 22.6208 116.946 22.9156 116.946 22.9156C116.968 23.0798 117.033 23.1669 117.165 23.1669C117.383 23.1669 117.383 22.8936 117.383 22.7735L117.438 21.823L117.558 20.9706C117.558 20.7519 117.405 20.7299 117.372 20.7409C117.296 20.7409 117.176 20.894 117.066 20.9596C116.826 21.1018 116.826 21.1128 116.421 21.1453L114.039 21.1783L114.061 16.9925C114.236 16.96 115.842 16.971 116.083 17.0035C116.902 17.0911 116.99 17.2768 117.055 17.4515L117.132 17.9435C117.132 18.2168 117.296 18.2493 117.372 18.2493C117.449 18.2493 117.547 18.2057 117.591 17.987L117.646 17.2222L117.657 16.982L117.744 16.4679L117.777 16.2712C117.777 16.042 117.646 16.02 117.601 16.02C117.558 16.02 117.558 16.0745 117.427 16.0966ZM137.797 16.7958L137.786 25.4182C137.786 26.7621 137.677 27.1776 137.414 27.2211C137.152 27.2652 136.835 27.3087 136.835 27.3087C136.661 27.3197 136.595 27.4073 136.595 27.5164C136.595 27.7456 136.846 27.7456 136.955 27.7456L138.158 27.7131H138.628L140.005 27.7456C140.114 27.7456 140.387 27.7456 140.387 27.5164C140.387 27.4178 140.343 27.3307 140.147 27.3087C140.147 27.3087 139.709 27.2652 139.425 27.2211C139.141 27.1776 138.955 26.8497 138.922 25.5819C138.922 25.5819 138.759 19.2548 138.737 18.6867C139.108 19.1017 142.452 22.7735 142.452 22.7735C144.081 24.5328 146.223 26.7076 146.386 26.8607C147.25 27.7131 147.392 27.8553 147.566 27.8553C147.796 27.8553 147.818 27.6801 147.818 26.675L147.84 17.8669C147.84 16.9269 147.916 16.7197 148.31 16.6321L148.649 16.5886C148.845 16.5665 148.933 16.4679 148.933 16.3698C148.933 16.1511 148.671 16.1511 148.55 16.1511L147.545 16.1841H146.955L145.709 16.1511C145.567 16.1511 145.294 16.1511 145.294 16.3698C145.294 16.512 145.348 16.5776 145.534 16.5886L146.245 16.6646C146.605 16.7197 146.725 16.96 146.736 17.987C146.736 17.987 146.867 23.9212 146.9 25.3306C146.605 25.0138 145.775 24.1179 145.775 24.1179L143.491 21.6263L138.573 16.3263C138.365 16.0855 138.223 15.9544 138.092 15.9544C137.819 15.9329 137.797 16.2712 137.797 16.7958ZM152.572 16.1731H152.102L150.812 16.1401C150.725 16.1401 150.463 16.1401 150.463 16.3809C150.463 16.501 150.539 16.5776 150.692 16.5886L151.129 16.6431C151.359 16.6756 151.523 16.8509 151.556 17.3859L151.588 20.6207V23.2655C151.588 24.675 151.588 25.8882 151.512 26.5109C151.446 26.9698 151.38 27.1996 151.162 27.2431L150.736 27.2977C150.539 27.3197 150.496 27.4073 150.496 27.5054C150.496 27.7351 150.769 27.7351 150.856 27.7351L152.091 27.7021H152.506L154.189 27.7456C154.517 27.7456 154.539 27.582 154.539 27.5164C154.539 27.4178 154.473 27.3197 154.31 27.3087L153.654 27.2541C153.293 27.1996 153.205 26.9698 153.162 26.5219C153.085 25.8992 153.085 24.686 153.085 23.2765V20.6318L153.118 17.3969C153.151 16.8834 153.26 16.6977 153.577 16.6431L153.938 16.5991C154.091 16.5886 154.178 16.512 154.178 16.3919C154.178 16.1511 153.905 16.1511 153.818 16.1511L152.572 16.1731ZM166.429 16.1731H165.86L164.735 16.1401C164.582 16.1401 164.287 16.1401 164.287 16.3698C164.287 16.4464 164.32 16.5555 164.571 16.5776L165.106 16.6321C165.227 16.6541 165.249 16.7743 165.227 16.8724L165.095 17.4079C164.79 18.4025 162.932 23.2765 161.992 25.4838C161.806 24.9813 159.205 18.0526 159.205 18.0526C158.986 17.4955 158.801 17.0145 158.801 16.8508C158.801 16.7743 158.823 16.6756 158.932 16.6541L159.456 16.5886C159.719 16.5665 159.719 16.4354 159.719 16.3698C159.719 16.1511 159.391 16.1511 159.194 16.1511L158.102 16.1841H157.424L156.036 16.1511C155.828 16.1511 155.533 16.1511 155.533 16.3698C155.533 16.501 155.599 16.5776 155.774 16.5886L156.309 16.6431C156.757 16.7197 156.987 16.9054 157.315 17.7358L161.03 27.0464C161.314 27.7456 161.391 27.9644 161.642 27.9644C161.828 27.9644 161.894 27.8112 162.112 27.3197L162.375 26.7516L164.232 22.3911L165.117 20.2384L166.002 18.1071C166.396 17.1131 166.615 16.8613 166.789 16.7412C167.04 16.5776 167.347 16.5776 167.445 16.5776C167.696 16.5776 167.74 16.4354 167.74 16.3588C167.74 16.2167 167.62 16.1401 167.368 16.1401L166.429 16.1731ZM189.356 18.7523C189.356 19.7794 189.695 20.7409 191.356 22.1068L192.033 22.6644C193.367 23.757 193.727 24.3146 193.727 25.2871C193.727 26.2161 193.028 27.1665 191.694 27.1665C191.148 27.1665 189.848 27.0244 189.575 25.724L189.531 25.1885C189.531 25.1014 189.531 24.9047 189.312 24.9047C189.116 24.9047 189.094 25.1229 189.072 25.2436L189.061 25.3962L188.996 26.8607C188.996 27.2652 189.006 27.3963 189.29 27.5384C189.869 27.8222 190.547 27.9534 191.356 27.9534C192.274 27.9534 193.082 27.7241 193.694 27.2977C194.678 26.5985 195.028 25.5058 195.028 24.708C195.028 23.5278 194.656 22.5553 192.788 21.0797L192.372 20.7519C190.93 19.5717 190.58 19.0907 190.58 18.3149C190.58 17.3423 191.279 16.6867 192.318 16.6867C193.563 16.6867 193.979 17.2002 194.099 17.4299C194.175 17.5826 194.274 17.9655 194.285 18.1402C194.296 18.2493 194.317 18.446 194.514 18.446C194.733 18.446 194.733 18.1402 194.733 17.987L194.787 16.512V16.4024C194.787 16.2057 194.601 16.1841 194.525 16.1841C194.448 16.1841 194.022 16.1076 194.022 16.1076C193.596 15.9985 193.137 15.9544 192.602 15.9544C190.656 15.9329 189.356 17.0691 189.356 18.7523ZM221.616 16.1731H220.982L220.228 16.1401C219.922 16.1401 219.867 16.2712 219.867 16.3478C219.867 16.501 220.02 16.5555 220.162 16.5991C220.239 16.6321 220.337 16.6431 220.337 16.9164C220.337 17.1346 220.261 17.3754 220.097 17.6266C219.845 18.0526 218.152 20.9596 217.693 21.8665C217.19 21.0362 215.256 17.7032 215.037 17.2988C214.928 17.0911 214.862 16.9269 214.862 16.7632C214.862 16.6977 214.906 16.6431 214.993 16.5886L215.07 16.5555C215.168 16.512 215.278 16.4789 215.278 16.3478C215.278 16.2057 215.168 16.1296 214.971 16.1296L213.912 16.1621H213.354L212.217 16.1296C211.923 16.1296 211.901 16.3153 211.901 16.3478C211.901 16.4789 212.01 16.5665 212.163 16.5665C212.273 16.5665 212.535 16.6431 212.742 16.7853C213.037 16.982 213.409 17.3859 213.726 17.8669C214.272 18.6647 216.272 21.9652 216.37 22.1834C216.567 22.6208 216.709 22.9377 216.709 23.7135V25.0028L216.666 26.4998C216.644 26.7952 216.567 27.1665 216.294 27.2211L215.868 27.2762C215.671 27.2977 215.627 27.3743 215.627 27.4834C215.627 27.7131 215.889 27.7131 215.977 27.7131L217.212 27.6801H217.627L219.299 27.7131C219.616 27.7131 219.649 27.5489 219.649 27.4834C219.649 27.3853 219.572 27.2762 219.42 27.2762L218.753 27.2211C218.425 27.1776 218.272 26.9588 218.239 26.4998L218.195 25.0028V23.7135C218.195 23.2325 218.195 22.7735 218.414 22.2489C218.665 21.6373 220.763 18.1071 221.266 17.4955C221.605 17.0801 221.758 16.9164 222.042 16.7522C222.249 16.6211 222.512 16.5555 222.676 16.5555C222.905 16.5555 222.982 16.4244 222.982 16.3153C222.982 16.2167 222.905 16.1076 222.676 16.1076L221.616 16.1731ZM227.157 21.9211C227.157 19.6047 228.796 15.9219 233.2 15.9219C236.806 15.9219 239.221 18.2383 239.221 21.6809C239.221 25.3091 236.653 27.9534 233.112 27.9534C229.014 27.9534 227.157 24.8281 227.157 21.9211ZM228.817 21.5062C228.817 24.8281 230.752 27.1555 233.517 27.1555C234.194 27.1555 237.56 26.9153 237.56 22.1068C237.56 18.3694 235.243 16.6646 233.101 16.6646C230.457 16.6757 228.817 18.5226 228.817 21.5062ZM246.521 16.1621C246.466 16.1621 246.346 16.1731 246.346 16.1731L242.652 16.1841L242.456 16.1731L240.959 16.1401C240.871 16.1401 240.598 16.1401 240.598 16.3809C240.598 16.501 240.674 16.5776 240.839 16.5886L241.32 16.6321C241.723 16.6867 241.855 16.8834 241.877 17.3859L241.91 20.6318V23.2765C241.91 24.686 241.91 25.8992 241.833 26.5219C241.768 26.9698 241.702 27.2106 241.483 27.2541L241.057 27.3087C240.861 27.3307 240.828 27.4073 240.828 27.5164C240.828 27.7456 241.101 27.7456 241.177 27.7456L242.401 27.7131H242.828L244.499 27.7567C244.816 27.7567 244.86 27.593 244.86 27.5274C244.86 27.4288 244.805 27.3307 244.62 27.3197L243.964 27.2652C243.603 27.2211 243.516 26.9808 243.472 26.5439C243.396 25.9207 243.396 24.697 243.396 23.298V22.0197C243.953 21.9977 245.308 22.0087 245.647 22.0412C246.051 22.0963 246.281 22.3365 246.335 22.5112C246.39 22.6864 246.412 22.8936 246.412 23.0247C246.412 23.1669 246.499 23.2545 246.631 23.2545C246.849 23.2545 246.849 22.9922 246.849 22.8501L246.914 21.8555L247.035 21.0031C247.057 20.7954 246.893 20.7739 246.849 20.7739C246.74 20.7739 246.674 20.861 246.62 20.9376C246.488 21.1128 246.357 21.1673 245.985 21.1888L245.319 21.1998L243.396 21.2109L243.407 17.0365C243.428 16.982 245.734 17.0255 245.734 17.0255C246.27 17.0365 246.609 17.2547 246.663 17.441C246.707 17.5826 246.783 17.9655 246.783 17.9655C246.838 18.2603 246.969 18.2603 247.002 18.2603C247.079 18.2603 247.199 18.2383 247.231 18.009C247.231 18.009 247.275 17.1892 247.308 17.0035C247.319 16.9054 247.395 16.49 247.395 16.49L247.428 16.2933C247.45 16.1296 247.341 16.031 247.221 16.042C247.09 16.031 246.772 16.1401 246.521 16.1621ZM134.737 16.1731H134.267L132.879 16.1401C132.792 16.1401 132.53 16.1401 132.53 16.3698C132.53 16.49 132.628 16.5776 132.759 16.5776L133.24 16.6211C133.688 16.6756 133.775 16.9054 133.797 17.3754L133.83 20.6207V22.5002C133.83 24.3036 133.579 25.3747 132.989 26.1175C132.453 26.7621 131.579 27.1555 130.715 27.1555C129.863 27.1555 129.229 27.0244 128.519 26.3582C127.983 25.8442 127.426 25.0138 127.426 22.7299V20.6207L127.459 17.3754C127.492 16.8508 127.601 16.6646 127.918 16.6211L128.279 16.5776C128.431 16.5665 128.519 16.49 128.519 16.3698C128.519 16.1401 128.257 16.1401 128.158 16.1401L127.043 16.1731H126.355L124.935 16.1401C124.847 16.1401 124.574 16.1401 124.574 16.3698C124.574 16.49 124.672 16.5776 124.814 16.5776L125.295 16.6211C125.688 16.6646 125.82 16.8723 125.853 17.3754L125.885 20.6207V22.8175C125.885 25.254 126.606 26.2596 127.23 26.8607C128.246 27.8222 129.656 27.9644 130.409 27.9644C131.218 27.9644 132.431 27.8442 133.59 26.8172C134.846 25.6915 135.01 23.779 135.01 22.2379V20.6207L135.043 17.3754C135.076 16.8613 135.185 16.6867 135.502 16.6211L135.852 16.5776C136.005 16.5665 136.092 16.49 136.092 16.3698C136.092 16.1401 135.83 16.1401 135.743 16.1401L134.737 16.1731ZM86.9263 16.2607C86.9045 16.3153 86.5767 17.7137 86.5767 17.8999C86.5767 18.0856 86.675 18.1512 86.7734 18.1512C86.9263 18.1512 86.9919 18.0201 87.0247 17.9214L87.2651 17.4735C87.4728 17.1567 87.8006 17.058 88.7077 17.0475C88.7077 17.0475 90.3687 17.0255 90.8168 17.0145V23.2655C90.8168 24.675 90.8168 25.8882 90.7403 26.5109C90.6747 26.9588 90.6091 27.1996 90.3906 27.2431C90.0408 27.2977 89.9644 27.2977 89.9644 27.2977C89.8004 27.2977 89.7349 27.3963 89.7349 27.5054C89.7349 27.7351 89.9972 27.7351 90.0846 27.7351L91.3194 27.7021H91.7347L93.4067 27.7456C93.7237 27.7456 93.7565 27.582 93.7565 27.5164C93.7565 27.4178 93.6799 27.3087 93.527 27.3087L92.8713 27.2541C92.5106 27.1996 92.4232 26.9698 92.3795 26.5329C92.303 25.9097 92.303 24.686 92.303 23.2765V17.0255C92.5106 17.0255 94.0843 17.058 94.0843 17.058C95.5268 17.0911 95.7781 17.441 95.8219 17.7903L95.8328 17.9545C95.8437 18.0966 95.8656 18.3149 96.0732 18.3149C96.106 18.3149 96.2918 18.3038 96.2918 18.009L96.3027 17.528L96.3355 16.3588C96.3355 16.2712 96.3355 16.053 96.1497 16.053L95.9639 16.0855C95.7563 16.1296 95.3519 16.2057 94.6525 16.2057H89.0136C89.0136 16.2057 87.9536 16.1511 87.8443 16.1296C87.735 16.1076 87.3635 16.009 87.3635 16.009L87.1777 15.9544H87.1668C87.0356 15.9434 86.981 16.1076 86.9263 16.2607ZM174.898 16.0966C174.592 16.1621 174.275 16.1731 174.275 16.1731L170.833 16.1841L170.625 16.1731L169.128 16.1401C169.041 16.1401 168.767 16.1401 168.767 16.3698C168.767 16.49 168.866 16.5665 168.997 16.5776L169.478 16.6211C169.871 16.6541 170.002 16.8723 170.035 17.3754L170.068 20.6097V23.2545C170.068 24.6639 170.068 25.8772 169.991 26.4998C169.925 26.9483 169.86 27.1886 169.642 27.2321C169.576 27.2431 169.215 27.2867 169.215 27.2867C169.041 27.2977 168.986 27.3853 168.986 27.4944C168.986 27.7241 169.248 27.7241 169.335 27.7241L170.56 27.6911L171.379 27.7021L174.526 27.7677C175.116 27.7677 175.324 27.7677 175.444 27.2977C175.521 26.9809 175.641 25.9428 175.641 25.8116C175.641 25.7025 175.641 25.4728 175.433 25.4728C175.248 25.4728 175.215 25.6805 175.193 25.7896C175.095 26.3687 174.931 26.642 174.581 26.7841C174.209 26.9373 173.565 26.9373 173.182 26.9373C171.729 26.9373 171.587 26.7516 171.554 25.8116V23.9102V23.2435V21.9211C171.554 21.9321 173.685 22.0087 173.685 22.0087C174.198 22.0632 174.341 22.271 174.363 22.4456C174.395 22.6208 174.417 22.9156 174.417 22.9156C174.439 23.0798 174.505 23.1669 174.636 23.1669C174.854 23.1669 174.854 22.8936 174.854 22.7735L174.909 21.823L175.029 20.9706C175.029 20.7519 174.876 20.7299 174.843 20.7409C174.767 20.7409 174.646 20.894 174.537 20.9596C174.297 21.1018 174.297 21.1128 173.893 21.1453L171.51 21.1783L171.532 16.9925C171.707 16.96 173.314 16.971 173.554 17.0035C174.374 17.0911 174.461 17.2768 174.526 17.4515L174.603 17.9435C174.603 18.2168 174.767 18.2493 174.843 18.2493C174.92 18.2493 175.018 18.2057 175.062 17.987L175.116 17.2222L175.127 16.982L175.215 16.4679L175.248 16.2712C175.248 16.042 175.116 16.02 175.073 16.02C175.029 16.02 175.029 16.0745 174.898 16.0966ZM198.404 16.1731H197.934L196.645 16.1401C196.557 16.1401 196.295 16.1401 196.295 16.3809C196.295 16.501 196.372 16.5776 196.525 16.5886L196.962 16.6431C197.192 16.6756 197.355 16.8509 197.388 17.3859L197.421 20.6207V23.2655C197.421 24.675 197.421 25.8882 197.344 26.5109C197.279 26.9698 197.213 27.1996 196.995 27.2431L196.568 27.2977C196.372 27.3197 196.328 27.4073 196.328 27.5054C196.328 27.7351 196.602 27.7351 196.689 27.7351L197.923 27.7021H198.339L200.022 27.7456C200.349 27.7456 200.371 27.582 200.371 27.5164C200.371 27.4178 200.306 27.3197 200.142 27.3087L199.487 27.2541C199.126 27.1996 199.038 26.9698 198.995 26.5219C198.918 25.8992 198.918 24.686 198.918 23.2765V20.6318L198.951 17.3969C198.984 16.8834 199.093 16.6977 199.41 16.6431L199.77 16.5991C199.924 16.5886 200.011 16.512 200.011 16.3919C200.011 16.1511 199.738 16.1511 199.65 16.1511L198.404 16.1731ZM201.366 16.2607C201.344 16.3153 201.016 17.7137 201.016 17.8999C201.016 18.0856 201.115 18.1512 201.213 18.1512C201.366 18.1512 201.432 18.0201 201.464 17.9214L201.705 17.4735C201.913 17.1567 202.24 17.058 203.147 17.0475C203.147 17.0475 204.808 17.0255 205.257 17.0145V23.2655C205.257 24.675 205.257 25.8882 205.18 26.5109C205.114 26.9588 205.049 27.1996 204.83 27.2431C204.48 27.2977 204.404 27.2977 204.404 27.2977C204.24 27.2977 204.174 27.3963 204.174 27.5054C204.174 27.7351 204.437 27.7351 204.524 27.7351L205.759 27.7021H206.175L207.846 27.7456C208.163 27.7456 208.196 27.582 208.196 27.5164C208.196 27.4178 208.12 27.3087 207.966 27.3087L207.311 27.2541C206.95 27.1996 206.863 26.9698 206.819 26.5329C206.743 25.9097 206.743 24.686 206.743 23.2765V17.0255C206.95 17.0255 208.524 17.058 208.524 17.058C209.967 17.0911 210.218 17.441 210.261 17.7903L210.272 17.9545C210.283 18.0966 210.305 18.3149 210.513 18.3149C210.546 18.3149 210.731 18.3038 210.731 18.009L210.742 17.528L210.775 16.3588C210.775 16.2712 210.775 16.053 210.589 16.053L210.404 16.0855C210.196 16.1296 209.791 16.2057 209.092 16.2057H203.453C203.453 16.2057 202.393 16.1511 202.284 16.1296C202.175 16.1076 201.803 16.009 201.803 16.009L201.617 15.9544H201.606C201.464 15.9434 201.41 16.1076 201.366 16.2607ZM188.067 27.5054C188.067 27.7351 187.782 27.7351 187.586 27.7351H187.017C186.176 27.7351 185.772 27.6586 185.356 27.4398C184.744 27.112 184.242 26.4563 183.488 25.4618C183.488 25.4618 181.684 22.9377 181.619 22.9266C181.619 22.9266 179.695 22.8936 179.695 22.9046V23.2655C179.695 24.675 179.695 25.8882 179.772 26.5219C179.816 26.9698 179.903 27.1996 180.264 27.2431L180.92 27.2977C181.116 27.3087 181.16 27.4073 181.16 27.5054C181.16 27.571 181.127 27.7351 180.799 27.7351L179.127 27.6911C179.127 27.6911 178.952 27.6911 178.887 27.6911L177.531 27.7351C177.444 27.7351 177.171 27.7351 177.171 27.5054C177.171 27.3963 177.215 27.3197 177.4 27.2977L177.827 27.2431C178.046 27.1996 178.111 26.9483 178.177 26.5109C178.253 25.8882 178.253 24.675 178.253 23.2655V20.6207L178.22 17.3754C178.187 16.8723 178.056 16.6646 177.663 16.6211L177.182 16.5776C177.04 16.5665 176.941 16.49 176.941 16.3698C176.941 16.1401 177.204 16.1401 177.302 16.1401L178.799 16.1731L179.499 16.1621L180.777 16.1296C181.706 16.1296 182.755 16.2057 183.597 16.8068C184.001 17.1021 184.678 17.8779 184.678 18.949C184.678 20.1838 184.11 21.2874 182.898 22.4346C182.985 22.5443 183.192 22.8065 183.192 22.8065C184.253 24.1724 185.171 25.3637 185.968 26.194C186.733 27.0029 187.345 27.1776 187.739 27.2431L187.815 27.2541C187.957 27.2867 188.067 27.3963 188.067 27.5054ZM183.203 19.7463C183.203 17.9325 182.274 16.8508 180.712 16.8508C180.242 16.8508 179.859 16.9054 179.739 16.9379C179.706 16.9489 179.695 16.971 179.695 17.0145V21.9321C179.695 21.9652 179.695 21.9867 179.75 22.0197C179.925 22.1288 180.559 22.2379 181.269 22.2379C181.586 22.2379 182.001 22.2054 182.329 21.9757C182.887 21.5933 183.203 20.7629 183.203 19.7463ZM104.4 46.3455C104.4 46.3455 98.7178 58.2899 98.1933 59.3715C98.0949 59.1638 91.9642 46.5091 91.9642 46.5091C91.6801 45.93 91.5271 45.7664 91.2976 45.7664C91.1446 45.7664 90.9479 45.8755 90.8496 46.411L88.5765 61.4041C88.4563 62.2455 88.2487 63.0653 87.6804 63.1744L87.0029 63.24C86.828 63.251 86.5767 63.24 86.5767 63.4587C86.5767 63.7756 86.9154 63.7756 87.0466 63.7756L88.4563 63.732L89.3196 63.699L90.0518 63.721L91.7347 63.7645C92.0298 63.7645 92.3467 63.7425 92.3467 63.4477C92.3467 63.3056 92.2265 63.262 91.9423 63.229L90.9916 63.1089C90.5545 63.0108 90.3469 62.781 90.3469 62.4312L90.4124 61.3606C90.4124 61.3606 91.4615 53.3502 91.5927 52.3232C91.7784 52.629 92.7074 54.607 92.7074 54.607L93.975 57.3279C94.2482 57.962 96.0295 61.4261 96.6196 62.5518L96.6852 62.6829C97.0349 63.3386 97.2425 63.732 97.472 63.732C97.7234 63.732 97.8436 63.5023 98.3791 62.4096L103.395 51.9733C103.395 52.0609 104.761 62.0708 104.761 62.0708C104.794 62.2785 104.805 62.4422 104.805 62.5733C104.805 62.8466 104.75 62.9777 104.685 62.9998C104.532 63.0653 104.39 63.1524 104.39 63.3056C104.39 63.5133 104.63 63.5789 105.111 63.6114C106.018 63.6769 109.187 63.7535 109.788 63.7535C110.214 63.7535 110.444 63.6444 110.444 63.4367C110.444 63.218 110.16 63.218 110.018 63.218C109.701 63.218 109.264 63.1965 108.608 62.9887C107.93 62.781 107.723 62.0928 107.526 60.7159L105.428 46.5091C105.351 45.9956 105.198 45.7443 104.958 45.7443C104.717 45.7554 104.586 45.9736 104.4 46.3455ZM131.207 46.3014L129.994 46.3344L128.825 46.3124L126.847 46.2689C126.574 46.2689 126.29 46.2909 126.29 46.5312C126.29 46.7934 126.519 46.7714 126.738 46.7934L127.481 46.859C128.224 46.9246 128.388 47.3946 128.42 48.1158C128.464 48.8481 128.464 49.4817 128.464 52.9894V57.0331C128.464 59.1423 128.464 60.9561 128.344 61.9176C128.246 62.6609 128.115 63.0543 127.721 63.1309L126.902 63.218C126.683 63.24 126.475 63.24 126.475 63.4587C126.475 63.7425 126.869 63.7425 126.989 63.7425L128.574 63.699L129.885 63.6769L133.469 63.7645L136.573 63.8081C137.786 63.8081 137.928 63.688 138.081 63.1419C138.267 62.4642 138.431 60.7484 138.431 60.4861C138.431 60.2674 138.431 60.0382 138.19 60.0382C137.917 60.0382 137.895 60.2894 137.873 60.4316C137.83 60.8575 137.556 61.4917 137.294 61.7755C136.759 62.3551 135.939 62.3986 134.649 62.3986C132.813 62.3986 132.267 62.224 131.907 61.9066C131.448 61.5132 131.448 59.907 131.448 57.011V52.9678C131.448 49.4597 131.448 48.826 131.492 48.0938C131.535 47.2524 131.743 46.9356 132.3 46.837L133.185 46.7714C133.426 46.7714 133.655 46.7389 133.655 46.5091C133.655 46.2799 133.393 46.2469 133.12 46.2469L131.207 46.3014ZM145.862 62.4096C146.474 62.6609 146.998 62.6829 147.523 62.6829C147.982 62.6829 150.244 62.5408 150.244 59.7979C150.244 58.9015 150.026 56.6612 148.036 55.2627C147.556 54.9128 147.031 54.7707 146.157 54.7272L145.173 54.7051C145.13 54.7051 145.097 54.7161 145.097 54.8148V60.2674C145.097 61.765 145.162 62.1253 145.862 62.4096ZM146.004 47.318L145.261 47.3615C145.14 47.3946 145.097 47.4491 145.097 47.7004V53.3828C145.097 53.5469 145.14 53.569 145.217 53.5795L146.288 53.645C146.966 53.645 147.501 53.569 147.905 53.2191C148.506 52.7271 148.823 51.8967 148.823 50.8256C148.823 49.4707 148.058 47.318 146.004 47.318ZM146.397 46.2579C150.998 46.2579 151.348 48.9462 151.348 49.766C151.348 51.5364 150.43 52.651 149.053 53.7657C151.064 54.4869 153.184 56.1476 153.184 58.7488C153.184 61.2729 151.271 63.8191 146.987 63.8191L146.266 63.7866L145.37 63.7425L143.654 63.6769L142.343 63.699L140.758 63.7425C140.627 63.7425 140.245 63.7425 140.245 63.4587C140.245 63.24 140.441 63.229 140.671 63.218L141.491 63.1309C141.917 63.0433 142.026 62.5298 142.114 61.9176C142.223 60.9561 142.223 59.1312 142.223 57.0331V52.9894C142.223 49.4817 142.223 48.8586 142.179 48.1158C142.135 47.3946 142.048 46.9356 141.228 46.859L140.343 46.7934C140.081 46.7714 139.895 46.7934 139.895 46.5312C139.895 46.2909 140.19 46.2689 140.452 46.2689L142.693 46.3124L143.578 46.3344L145.239 46.2909L146.397 46.2579ZM158.823 54.3007C158.823 59.3169 161.697 62.8246 165.828 62.8246C167.412 62.8246 171.106 62.1033 171.106 55.4484C171.106 50.5633 168.363 47.1648 164.429 47.1648C162.33 47.1538 158.823 48.0828 158.823 54.3007ZM155.544 55.0115C155.544 50.6399 158.539 45.941 165.095 45.941C170.865 45.941 174.439 49.263 174.439 54.596C174.439 60.1803 170.505 64.0814 164.866 64.0814C158.462 64.0814 155.544 59.3825 155.544 55.0115ZM191.509 46.3124L188.198 46.2689C187.935 46.2689 187.662 46.2909 187.662 46.5312C187.662 46.7934 188.383 46.8044 188.919 46.859C189.575 46.9246 189.826 47.3946 189.869 48.1158C189.914 48.8481 189.914 49.4817 189.914 52.9894V55.8638C189.914 58.3224 189.815 60.3115 188.602 61.5242C187.498 62.6279 186.045 62.7485 185.465 62.7485C184.668 62.7485 183.629 62.6389 182.624 61.8195C181.706 61.0652 180.854 59.8635 180.854 56.2022V52.9789C180.854 49.4707 180.854 48.8481 180.898 48.1048C180.952 47.2634 181.149 46.9466 181.706 46.848L182.362 46.7824C182.548 46.7604 182.788 46.7824 182.788 46.5201C182.788 46.2799 182.493 46.2579 182.231 46.2579L180.548 46.3014L179.4 46.3344L178.177 46.3014L176.045 46.2579C175.772 46.2579 175.488 46.2799 175.488 46.5201C175.488 46.7824 175.729 46.7714 175.936 46.7824C175.936 46.7824 176.144 46.7934 176.821 46.848C177.499 46.9025 177.728 47.3835 177.761 48.1048C177.805 48.8371 177.805 49.4707 177.805 52.9789V56.3333C177.805 59.2514 178.46 61.1964 179.87 62.4642C181.641 64.0704 184.001 64.0704 185.006 64.0704C186.351 64.0704 188.099 63.8847 189.826 62.3986C191.76 60.7374 192.033 58.0711 192.033 55.4374V52.9789C192.033 49.4707 192.033 48.8481 192.077 48.1048C192.121 47.2634 192.329 46.9466 192.886 46.848L193.541 46.7824C193.815 46.7604 194.011 46.7499 194.011 46.5201C194.011 46.2799 193.738 46.2579 193.476 46.2579L191.509 46.3124ZM201.115 55.1641C201.541 55.3063 202.185 55.3939 202.841 55.3939C203.759 55.3939 204.043 55.2952 204.437 55.0115C204.939 54.6506 205.77 53.7216 205.77 51.6124C205.77 48.334 203.595 47.4601 202.306 47.4601C201.683 47.4601 201.311 47.4926 201.104 47.5472C200.973 47.5802 200.94 47.6458 200.94 47.8095V54.8037C200.951 55.044 200.995 55.1096 201.115 55.1641ZM202.754 46.2689C204.142 46.2689 205.726 46.389 207.016 47.2634C207.562 47.6348 208.601 48.7825 208.601 50.4542C208.601 52.3447 207.693 53.8858 205.584 55.6121C205.639 55.6887 206.36 56.5851 206.36 56.5851C208.043 58.7048 209.376 60.377 210.546 61.6118C211.792 62.9011 212.687 63.0868 213.059 63.1634L213.114 63.1744C213.376 63.229 213.442 63.3711 213.442 63.4697C213.442 63.7535 213.103 63.7535 212.95 63.7535H211.376C210.119 63.7535 209.508 63.6444 208.884 63.3056C207.912 62.792 207.06 61.754 205.716 59.907L204.546 58.2568L203.442 56.7377C203.344 56.6176 203.234 56.5956 203.071 56.5956L201.071 56.5521C200.973 56.5521 200.94 56.5851 200.94 56.6832V57C200.94 59.1202 200.94 60.9561 201.049 61.9176C201.126 62.6389 201.278 63.0543 201.902 63.1309L203.016 63.218C203.311 63.218 203.344 63.3821 203.344 63.4587C203.344 63.7425 202.951 63.7425 202.831 63.7425L200.197 63.688L199.454 63.6664L198.525 63.688L196.656 63.732C196.525 63.732 196.143 63.732 196.143 63.4477C196.143 63.229 196.361 63.229 196.568 63.2075L197.388 63.1199C197.825 63.0323 197.923 62.5188 198.011 61.9066C198.12 60.9451 198.12 59.1202 198.12 57.022V52.9789C198.12 49.4707 198.12 48.8371 198.077 48.1048C198.033 47.3725 197.88 46.9356 197.126 46.848L196.241 46.7824C196.098 46.7824 195.793 46.7824 195.793 46.5201C195.793 46.2799 196.087 46.2579 196.35 46.2579L198.579 46.3014L199.497 46.3234L201.191 46.2909L202.754 46.2689ZM217.135 46.7058L216.928 60.3225C216.906 62.3 216.807 62.9452 216.25 63.1199C215.911 63.218 215.638 63.229 215.409 63.229C215.289 63.229 214.982 63.229 214.982 63.4697C214.982 63.7535 215.31 63.7535 215.54 63.7535L217.463 63.699H218.491L220.556 63.7425C220.741 63.7425 221.146 63.7425 221.146 63.4587C221.146 63.218 220.829 63.218 220.698 63.218C220.359 63.218 220.064 63.1965 219.671 63.0543C219.179 62.8796 218.95 62.1364 218.905 60.5517C218.905 60.5517 218.654 51.2085 218.654 51.0008C218.785 51.1099 219.124 51.4813 219.124 51.4813C220.097 52.5414 222.108 54.7492 224.096 56.7377L227.146 59.7869L230.883 63.4913C231.145 63.7535 231.429 64.0158 231.702 64.0158C232.019 64.0158 232.052 63.6334 232.052 63.251L232.304 48.7384C232.326 47.4491 232.369 46.9466 232.959 46.837L233.637 46.7714C233.997 46.7499 234.107 46.6843 234.107 46.5091C234.107 46.2469 233.757 46.2469 233.517 46.2469L231.834 46.3014L231.419 46.3234L230.61 46.3014L228.785 46.2579C228.512 46.2579 228.129 46.2579 228.129 46.5201C228.129 46.7499 228.358 46.7824 228.555 46.7824C228.872 46.7824 229.265 46.7824 229.604 46.9135C230.085 47.1213 230.325 47.4711 230.348 48.9351C230.348 48.9351 230.566 58.6612 230.577 59.2734L230.522 59.2078C230.522 59.1858 228.905 57.503 228.905 57.503L225.495 53.9729C221.998 50.4978 218.403 46.6292 218.37 46.5967L218.152 46.367C217.878 46.0722 217.704 45.8755 217.474 45.8755C217.168 45.8755 217.135 46.3455 217.135 46.7058ZM245.319 46.3124C245.002 46.3345 241.177 46.3344 239.582 46.3344L238.412 46.3014L238.139 46.2909L236.271 46.2689C235.997 46.2689 235.702 46.2909 235.702 46.5312C235.702 46.7934 235.986 46.7934 236.15 46.7934L237.036 46.859C237.844 46.9571 237.942 47.3946 237.986 48.1158C238.03 48.8481 238.03 49.4817 238.03 52.9894V57.0331C238.03 59.1423 238.03 60.9671 237.91 61.9286C237.822 62.5408 237.724 63.0543 237.287 63.1419L236.467 63.229C236.216 63.251 236.041 63.251 236.041 63.4697C236.041 63.7535 236.423 63.7535 236.555 63.7535L238.139 63.71L239.451 63.688L241.844 63.7535L242.51 63.7756L245.822 63.8301C246.685 63.8301 246.947 63.8301 247.122 63.1854C247.242 62.7155 247.428 61.1639 247.428 60.6173C247.428 60.388 247.428 60.1473 247.188 60.1473C246.969 60.1473 246.914 60.3115 246.882 60.5407C246.718 61.4917 246.444 61.9396 245.876 62.2019C245.286 62.4752 244.314 62.4752 243.735 62.4752C241.352 62.4752 241.079 62.0928 241.035 60.5952V57.9835V57.0331V55.2187C241.035 55.044 241.079 55.044 241.112 55.044C241.625 55.044 243.931 55.066 244.368 55.1096C245.101 55.1861 245.483 55.4484 245.603 55.9619L245.68 56.5741L245.691 56.7818C245.691 56.9455 245.778 57.0441 245.953 57.0441C246.215 57.0441 246.215 56.7267 246.215 56.5521L246.259 55.8088L246.303 55.0115L246.455 53.5795L246.488 53.3282C246.488 53.1756 246.412 53.088 246.27 53.088C246.139 53.088 246.041 53.1971 245.887 53.3723C245.669 53.6235 245.33 53.6891 244.795 53.7326C244.456 53.7657 243.155 53.7762 241.123 53.7762C241.046 53.7762 241.024 53.7547 241.024 53.5795V47.7659C241.024 47.5913 241.079 47.5913 241.123 47.5913C241.571 47.5913 243.986 47.6348 244.379 47.6783C245.537 47.8205 245.723 48.0938 245.876 48.4762C246.007 48.7825 246.007 49.2305 246.007 49.285C246.007 49.3941 246.007 49.6674 246.27 49.6674C246.499 49.6674 246.543 49.4382 246.554 49.3726L246.641 48.3235L246.674 47.8535L246.827 46.5857L246.86 46.3565C246.882 46.1488 246.794 46.0942 246.663 46.0942C246.477 46.0832 245.745 46.3014 245.319 46.3124ZM121.678 46.3124C121.361 46.3345 117.536 46.3344 115.941 46.3344L114.772 46.3014L114.498 46.2909L112.629 46.2689C112.356 46.2689 112.061 46.2909 112.061 46.5312C112.061 46.7934 112.345 46.7934 112.509 46.7934L113.394 46.859C114.203 46.9571 114.301 47.3946 114.345 48.1158C114.389 48.8481 114.389 49.4817 114.389 52.9894V57.0331C114.389 59.1423 114.389 60.9671 114.269 61.9286C114.181 62.5408 114.083 63.0543 113.646 63.1419L112.826 63.229C112.575 63.251 112.4 63.251 112.4 63.4697C112.4 63.7535 112.782 63.7535 112.913 63.7535L114.498 63.71L115.81 63.688L118.203 63.7535L118.869 63.7756L122.181 63.8301C123.044 63.8301 123.306 63.8301 123.481 63.1854C123.601 62.7155 123.787 61.1639 123.787 60.6173C123.787 60.388 123.787 60.1473 123.547 60.1473C123.328 60.1473 123.273 60.3115 123.24 60.5407C123.077 61.4917 122.803 61.9396 122.235 62.2019C121.645 62.4752 120.673 62.4752 120.093 62.4752C117.711 62.4752 117.438 62.0928 117.394 60.5952V57.9835V57.0331V55.2187C117.394 55.044 117.438 55.044 117.47 55.044C117.984 55.044 120.29 55.066 120.727 55.1096C121.46 55.1861 121.842 55.4484 121.962 55.9619L122.039 56.5741L122.05 56.7818C122.05 56.9455 122.137 57.0441 122.312 57.0441C122.574 57.0441 122.574 56.7267 122.574 56.5521L122.618 55.8088L122.661 55.0115L122.814 53.5795L122.847 53.3282C122.847 53.1756 122.771 53.088 122.629 53.088C122.498 53.088 122.399 53.1971 122.246 53.3723C122.028 53.6235 121.689 53.6891 121.153 53.7326C120.814 53.7657 119.514 53.7762 117.481 53.7762C117.405 53.7762 117.383 53.7547 117.383 53.5795V47.7659C117.383 47.5913 117.438 47.5913 117.481 47.5913C117.929 47.5913 120.345 47.6348 120.738 47.6783C121.896 47.8205 122.082 48.0938 122.235 48.4762C122.366 48.7825 122.366 49.2305 122.366 49.285C122.366 49.3941 122.366 49.6674 122.629 49.6674C122.858 49.6674 122.902 49.4382 122.913 49.3726L123 48.3235L123.033 47.8535L123.186 46.5857L123.219 46.3565C123.24 46.1488 123.153 46.0942 123.022 46.0942C122.836 46.0832 122.104 46.3014 121.678 46.3124Z" fill="#010F46"/>
</svg>
